<?xml version="1.0" encoding="UTF-8"?>
<svg version="1.1" xmlns="http://www.w3.org/2000/svg" width="512" height="512">
<path d="M0 0 C1.28483276 -0.01253311 2.56966553 -0.02506622 3.89343262 -0.03797913 C5.28768937 -0.02571042 6.68193641 -0.01229034 8.07617188 0.00219727 C9.51436543 0.00136802 10.95255889 -0.00109346 12.39074707 -0.00511169 C15.40027503 -0.00796579 18.40905714 0.00669168 21.41845703 0.03417969 C25.26888876 0.06826331 29.11798741 0.06224142 32.96848297 0.04351711 C35.9369002 0.03292948 38.90500923 0.04190063 41.87339783 0.05690193 C43.2927102 0.06207137 44.71205493 0.06161698 46.13136292 0.05535698 C48.1175657 0.04988459 50.10378428 0.07317688 52.08984375 0.09765625 C53.21837769 0.10385483 54.34691162 0.11005341 55.50964355 0.11643982 C59.23561837 0.74821845 60.91945552 1.94825176 63.54492188 4.63110352 C64.11254883 8.02270508 64.11254883 8.02270508 64.03320312 12.02172852 C64.02612839 12.72634216 64.01905365 13.43095581 64.01176453 14.15692139 C63.98385544 16.39941243 63.92113474 18.63937223 63.85742188 20.88110352 C63.83233399 22.40450485 63.80952166 23.92794548 63.7890625 25.45141602 C63.73404401 29.178796 63.64779992 32.90470258 63.54492188 36.63110352 C64.640625 36.60274414 65.73632812 36.57438477 66.86523438 36.54516602 C70.82587663 36.63766509 72.44280983 37.25890019 75.54492188 39.63110352 C77.00551514 42.55229004 76.69648736 45.14170592 76.72192383 48.40405273 C76.72849503 49.1001767 76.73506622 49.79630066 76.74183655 50.51351929 C76.76157386 52.82094425 76.77323229 55.12830416 76.78320312 57.43579102 C76.78727865 58.22330875 76.79135418 59.01082649 76.79555321 59.8222084 C76.81641461 63.98946115 76.83071667 68.15668094 76.84008789 72.32397461 C76.85115982 76.63064893 76.885568 80.93680762 76.92525959 85.24329948 C76.95138764 88.55299855 76.95977624 91.86257396 76.96336937 95.1723671 C76.96824431 96.76001599 76.97988415 98.34765904 76.99840736 99.93520737 C77.02272193 102.15701088 77.02184889 104.37746978 77.01489258 106.59936523 C77.02369194 108.49560135 77.02369194 108.49560135 77.03266907 110.43014526 C76.45754271 114.20455033 75.58520916 115.39013018 72.54492188 117.63110352 C68.91188275 118.17219445 67.03694009 117.87164575 63.73242188 116.25610352 C61.54492188 114.63110352 61.54492188 114.63110352 60.54492188 112.63110352 C60.45372517 110.72128406 60.4273965 108.80823166 60.43139648 106.89624023 C60.43151733 105.67831787 60.43163818 104.46039551 60.4317627 103.20556641 C60.43687866 101.92029053 60.44199463 100.63501465 60.44726562 99.31079102 C60.44827271 98.13331299 60.44927979 96.95583496 60.45031738 95.74267578 C60.45556224 91.33047517 60.46952342 86.9182884 60.48242188 82.50610352 C60.50304687 72.64735352 60.52367187 62.78860352 60.54492188 52.63110352 C37.77492188 52.63110352 15.00492187 52.63110352 -8.45507812 52.63110352 C-8.45507812 164.50110352 -8.45507812 276.37110352 -8.45507812 391.63110352 C14.31492187 391.63110352 37.08492188 391.63110352 60.54492188 391.63110352 C60.52397461 384.23027344 60.50302734 376.82944336 60.48144531 369.2043457 C60.41727341 345.5364861 60.37276408 321.86863158 60.34066056 298.20070861 C60.33565761 294.52565122 60.33048033 290.8505941 60.32519531 287.17553711 C60.32414607 286.44388573 60.32309683 285.71223435 60.32201579 284.95841172 C60.30460077 273.1046966 60.27305707 261.2510589 60.23631069 249.39738974 C60.19893173 237.23844183 60.17669249 225.07953452 60.1685679 212.92053151 C60.16307377 205.4150544 60.14570848 197.90979613 60.11325601 190.40438637 C60.08965353 184.65351951 60.08709433 178.90279353 60.09249115 173.15188789 C60.09138752 170.78954531 60.08338883 168.42719472 60.06809998 166.06490135 C60.04829137 162.84738154 60.05294981 159.63080933 60.06390381 156.41326904 C60.05225244 155.47163808 60.04060108 154.53000711 60.02859664 153.55984187 C60.08680167 147.26446635 60.08680167 147.26446635 62.39139175 144.07831192 C65.21407991 142.18141808 67.1436648 141.70051693 70.54492188 141.63110352 C72.87223744 142.76890224 74.71332902 143.79951066 76.54492188 145.63110352 C76.63935523 147.93164187 76.66234316 150.23512525 76.65844727 152.53759766 C76.65859329 153.2595079 76.65873932 153.98141815 76.65888977 154.72520447 C76.65819056 157.12225299 76.65039783 159.51922474 76.64257812 161.91625977 C76.64071397 163.5739284 76.63929006 165.23159759 76.63829041 166.88926697 C76.634465 171.26064566 76.62463453 175.63199133 76.61358643 180.00335693 C76.60337279 184.46064812 76.59879289 188.91794463 76.59375 193.37524414 C76.58301228 202.12721245 76.56593559 210.87915388 76.54492188 219.63110352 C77.54859299 219.62000046 78.5522641 219.6088974 79.58634949 219.59745789 C89.04717197 219.49607881 98.50788419 219.42113673 107.9691267 219.37204266 C112.83324518 219.34595411 117.696925 219.31056968 122.56079102 219.25390625 C127.25516886 219.19955989 131.94912494 219.16967739 136.64379311 219.1567173 C138.4343969 219.14748211 140.22497772 219.12944759 142.01540184 219.10245323 C144.52469036 219.06612681 147.03223868 219.06115948 149.54174805 219.06347656 C150.65089821 219.03651199 150.65089821 219.03651199 151.78245544 219.00900269 C155.4718481 219.04583832 157.30352937 219.44247284 160.23711395 221.73485565 C163.0860562 225.31021512 163.16320564 227.04396498 163.14619446 231.57234192 C163.15046658 232.25856729 163.15473871 232.94479266 163.15914029 233.65181273 C163.16735806 235.94481474 163.13990927 238.23597598 163.11254883 240.52880859 C163.11113808 242.17484494 163.11193087 243.82088443 163.11476135 245.46691895 C163.11619587 249.93163245 163.08680057 254.39567424 163.05189157 258.86023164 C163.02063391 263.52736648 163.01769779 268.19451675 163.01176453 272.86174011 C162.99622434 281.69800595 162.95519351 290.53396246 162.90501708 299.37009209 C162.84912906 309.4304324 162.82163848 319.49078748 162.7965399 329.55124438 C162.74427782 350.2447034 162.6563321 370.93788397 162.54492188 391.63110352 C163.34712158 391.61015625 164.14932129 391.58920898 164.97583008 391.56762695 C168.60290036 391.48459035 172.22977093 391.43248148 175.85742188 391.38110352 C177.12005859 391.34758789 178.38269531 391.31407227 179.68359375 391.27954102 C180.89208984 391.26665039 182.10058594 391.25375977 183.34570312 391.24047852 C184.46114502 391.21953125 185.57658691 391.19858398 186.72583008 391.17700195 C189.54492188 391.63110352 189.54492188 391.63110352 191.40893555 393.43676758 C193.07130178 396.64788894 192.92619421 399.07256169 192.54492188 402.63110352 C191.53793144 404.81839323 191.53793144 404.81839323 189.54492188 406.63110352 C186.66507735 407.03068629 184.16439871 407.16808307 181.2817688 407.13446808 C180.42488897 407.14028184 179.56800914 407.1460956 178.68516326 407.15208554 C175.78803893 407.16678775 172.89174832 407.15275291 169.99462891 407.13903809 C167.9070244 407.14364296 165.81942312 407.14999308 163.73182869 407.15794706 C157.97511479 407.17472026 152.21866448 407.16635782 146.46194935 407.15400219 C140.26145917 407.14498659 134.0610157 407.15890402 127.86053467 407.16992188 C116.40912687 407.18671762 104.95783722 407.18520993 93.50642997 407.174276 C82.92861433 407.16422542 72.35082969 407.16158152 61.77301025 407.16636658 C61.07216038 407.16667212 60.3713105 407.16697766 59.64922275 407.16729246 C56.80445506 407.16853775 53.95968738 407.16981134 51.11491973 407.17113151 C24.41277352 407.18337562 -2.28931882 407.17226084 -28.99145672 407.15074392 C-52.73001042 407.13176059 -76.4684783 407.13345907 -100.20703125 407.15258789 C-126.85941701 407.17399278 -153.51175517 407.18250737 -180.16414833 407.17013884 C-183.00382104 407.16885591 -185.84349377 407.16760455 -188.6831665 407.16636658 C-189.38239888 407.16605027 -190.08163125 407.16573396 -190.80205248 407.16540806 C-201.37486362 407.16085252 -211.9476404 407.16618976 -222.52044678 407.17628479 C-234.53868298 407.18770251 -246.55679562 407.18451744 -258.57502794 407.16316181 C-264.71203653 407.15261774 -270.84887052 407.14858657 -276.98587799 407.16175842 C-282.5965203 407.1736188 -288.20682507 407.16722531 -293.81743646 407.14584821 C-295.85439539 407.14135505 -297.89138245 407.14370859 -299.92832351 407.15335137 C-302.68327101 407.16539948 -305.43704061 407.15315943 -308.19192505 407.13446808 C-309.39651536 407.14851508 -309.39651536 407.14851508 -310.62544084 407.16284585 C-315.950622 407.08992359 -315.950622 407.08992359 -318.44808769 404.81839323 C-319.92999761 401.59952816 -319.82958937 399.12654181 -319.45507812 395.63110352 C-318.4284668 393.43676758 -318.4284668 393.43676758 -316.45507812 391.63110352 C-313.66935459 391.27511274 -311.28471222 391.16399547 -308.50585938 391.24047852 C-307.73324265 391.24613831 -306.96062592 391.2517981 -306.16459656 391.25762939 C-303.69829183 391.28001025 -301.23344321 391.33020649 -298.76757812 391.38110352 C-297.09507308 391.40116646 -295.42254524 391.41941759 -293.75 391.43579102 C-289.65113216 391.4798802 -285.55335195 391.54891677 -281.45507812 391.63110352 C-281.47078857 390.74849854 -281.48649902 389.86589355 -281.50268555 388.95654297 C-281.55395811 385.66709466 -281.5914973 382.37807391 -281.61987305 379.08837891 C-281.63491572 377.6674121 -281.65535517 376.24649139 -281.68139648 374.82568359 C-281.7179816 372.77763466 -281.7348491 370.73020201 -281.74804688 368.68188477 C-281.76375732 367.45123291 -281.77946777 366.22058105 -281.7956543 364.95263672 C-281.42683291 361.35563672 -280.62109229 359.49353739 -278.45507812 356.63110352 C-276.58789062 355.78344727 -276.58789062 355.78344727 -274.58007812 355.56860352 C-273.59394531 355.42745117 -273.59394531 355.42745117 -272.58789062 355.28344727 C-270.45507812 355.63110352 -270.45507812 355.63110352 -265.45507812 359.63110352 C-265.45507812 370.19110352 -265.45507812 380.75110352 -265.45507812 391.63110352 C-242.35507813 391.63110352 -219.25507813 391.63110352 -195.45507812 391.63110352 C-195.45507812 318.70110352 -195.45507812 245.77110352 -195.45507812 170.63110352 C-218.55507812 170.63110352 -241.65507812 170.63110352 -265.45507812 170.63110352 C-265.39707031 181.91813477 -265.3390625 193.20516602 -265.27929688 204.83422852 C-265.25375902 211.97095295 -265.22948341 219.10764441 -265.2109375 226.24438477 C-265.18124335 237.58027425 -265.14629354 248.91597822 -265.07788086 260.25170898 C-265.02808476 268.5066659 -264.99579637 276.76147264 -264.98463565 285.01657557 C-264.97811041 289.38871392 -264.96274821 293.76042261 -264.92642784 298.1324234 C-264.89252803 302.2463246 -264.8820128 306.35961856 -264.88953972 310.47364616 C-264.88816245 311.98457831 -264.87819358 313.49553043 -264.85905075 315.00634193 C-264.83420367 317.0682294 -264.84013855 319.12781869 -264.85380554 321.1897583 C-264.84919658 322.34384312 -264.84458761 323.49792793 -264.83983898 324.68698502 C-265.45507812 327.63110352 -265.45507812 327.63110352 -267.85935688 330.01195908 C-270.53307931 331.67975866 -271.5255783 332.13081624 -274.58007812 331.69360352 C-275.24265625 331.62270508 -275.90523438 331.55180664 -276.58789062 331.47875977 C-279.42952173 330.18873058 -280.09798154 328.40295202 -281.45507812 325.63110352 C-281.83260155 322.45296478 -281.83260155 322.45296478 -281.83602905 318.79943848 C-281.84304901 317.78764282 -281.84304901 317.78764282 -281.85021079 316.75540686 C-281.8621472 314.50218201 -281.85270931 312.24956691 -281.84326172 309.99633789 C-281.84732804 308.37811428 -281.85267026 306.75989344 -281.85919189 305.14167786 C-281.87286417 300.75121308 -281.86756723 296.36095987 -281.85805464 291.97049141 C-281.85045759 287.37505652 -281.85750378 282.7796397 -281.86221313 278.1842041 C-281.86767055 270.46708932 -281.86047943 262.75006068 -281.84619141 255.03295898 C-281.82986491 246.11185919 -281.83515343 237.19096509 -281.85167062 228.26987028 C-281.86528588 220.60943959 -281.86720496 212.9490708 -281.85935462 205.28863192 C-281.85467832 200.71380524 -281.85405206 196.13907523 -281.86396408 191.56425476 C-281.87263204 187.26320966 -281.86661501 182.96242967 -281.84928131 178.66141319 C-281.84531555 177.08320748 -281.84645206 175.50497944 -281.85306931 173.92678261 C-281.86127165 171.77181036 -281.85098013 169.61768678 -281.83602905 167.46276855 C-281.83489798 166.25710487 -281.8337669 165.05144119 -281.83260155 163.80924225 C-281.41771803 160.31659175 -280.55199821 158.42778296 -278.45507812 155.63110352 C-276.04962174 154.42837533 -274.5051086 154.53038879 -271.83007812 154.56860352 C-270.60417969 154.58213867 -270.60417969 154.58213867 -269.35351562 154.59594727 C-268.41378906 154.61334961 -268.41378906 154.61334961 -267.45507812 154.63110352 C-267.48988281 153.73649414 -267.5246875 152.84188477 -267.56054688 151.92016602 C-267.827698 139.98741574 -266.19880522 130.97060951 -258.45507812 121.63110352 C-253.67927963 116.65522603 -249.08366825 112.7106612 -242.45507812 110.63110352 C-241.13507813 110.63110352 -239.81507813 110.63110352 -238.45507812 110.63110352 C-238.46396057 110.00327469 -238.47284302 109.37544586 -238.48199463 108.72859192 C-238.57052268 102.19122425 -238.63083525 95.654027 -238.67480469 89.11621094 C-238.69491377 86.67668745 -238.72220496 84.23721212 -238.75683594 81.79785156 C-238.80538302 78.29032503 -238.82805444 74.78343608 -238.84570312 71.27563477 C-238.86634827 70.18587845 -238.88699341 69.09612213 -238.90826416 67.9733429 C-238.91050719 60.39561554 -238.91050719 60.39561554 -236.55566406 56.44262695 C-234.29040524 54.48909133 -233.40436877 53.97067785 -230.45507812 54.06860352 C-229.79507813 54.06731445 -229.13507813 54.06602539 -228.45507812 54.06469727 C-225.56945137 54.88191578 -224.3626081 56.34742198 -222.45507812 58.63110352 C-221.93609619 61.04827881 -221.93609619 61.04827881 -221.90917969 63.7668457 C-221.88946106 64.78760193 -221.86974243 65.80835815 -221.84942627 66.86004639 C-221.84819763 67.95496399 -221.84696899 69.04988159 -221.84570312 70.17797852 C-221.82916687 71.30431702 -221.81263062 72.43065552 -221.79559326 73.59112549 C-221.74701682 77.18783977 -221.72572003 80.78413093 -221.70507812 84.38110352 C-221.67692665 86.819927 -221.6470004 89.25873069 -221.61523438 91.69750977 C-221.54125519 97.67529729 -221.48966919 103.65296534 -221.45507812 109.63110352 C-220.78178467 109.88939941 -220.10849121 110.14769531 -219.41479492 110.41381836 C-218.52445557 110.76138184 -217.63411621 111.10894531 -216.71679688 111.46704102 C-215.83725342 111.80783691 -214.95770996 112.14863281 -214.05151367 112.49975586 C-205.18607068 116.36270488 -199.42739142 123.31757279 -195.35351562 131.97094727 C-192.7357689 139.32265653 -193.17819744 146.93997325 -193.45507812 154.63110352 C-192.441875 154.5440918 -192.441875 154.5440918 -191.40820312 154.45532227 C-190.51617187 154.41020508 -189.62414062 154.36508789 -188.70507812 154.31860352 C-187.3825 154.2315918 -187.3825 154.2315918 -186.03320312 154.14282227 C-183.45507812 154.63110352 -183.45507812 154.63110352 -179.45507812 159.63110352 C-179.45507812 169.20110352 -179.45507812 178.77110352 -179.45507812 188.63110352 C-156.68507812 188.63110352 -133.91507813 188.63110352 -110.45507812 188.63110352 C-110.50148437 182.04786133 -110.54789063 175.46461914 -110.59570312 168.68188477 C-110.61614063 164.51194713 -110.63539634 160.34207122 -110.65039062 156.17211914 C-110.67430459 149.55292948 -110.7025987 142.9339611 -110.75683594 136.31494141 C-110.80028855 130.97868105 -110.82421427 125.64265797 -110.8345871 120.30623436 C-110.84197947 118.27004447 -110.85641501 116.23386761 -110.87799835 114.1977787 C-110.90702429 111.34624771 -110.91103443 108.49569786 -110.90917969 105.64404297 C-110.92356079 104.8017514 -110.93794189 103.95945984 -110.95275879 103.09164429 C-110.92503285 99.15372356 -110.72618647 97.08856686 -108.67669678 93.6302948 C-104.51983529 89.88961624 -100.21027129 90.49057772 -94.84082031 90.51757812 C-94.0794577 90.5174321 -93.31809509 90.51728607 -92.53366089 90.51713562 C-90.02306241 90.51783096 -87.5125386 90.52560565 -85.00195312 90.53344727 C-83.2588912 90.53531279 -81.51582875 90.53673606 -79.77276611 90.53773499 C-75.18935697 90.54154958 -70.60597961 90.55137085 -66.02258301 90.56243896 C-61.34383575 90.57267581 -56.66508335 90.57723748 -51.98632812 90.58227539 C-42.80923084 90.59299406 -33.63215713 90.6100578 -24.45507812 90.63110352 C-24.46507088 89.72361359 -24.46507088 89.72361359 -24.4752655 88.79779053 C-24.54161052 82.50383821 -24.58687528 76.20998516 -24.61987305 69.91577148 C-24.63496403 67.56644659 -24.65543904 65.21714988 -24.68139648 62.86791992 C-24.71776533 59.49203537 -24.73480151 56.11652315 -24.74804688 52.74047852 C-24.76353073 51.68930847 -24.77901459 50.63813843 -24.79496765 49.55511475 C-24.79519424 48.57440002 -24.79542084 47.5936853 -24.7956543 46.58325195 C-24.80564705 45.29085602 -24.80564705 45.29085602 -24.81584167 43.97235107 C-24.37069819 41.08350295 -23.45663741 39.73690438 -21.45507812 37.63110352 C-17.98182632 36.47335291 -15.09440365 36.562437 -11.45507812 36.63110352 C-11.48126221 35.71820557 -11.50744629 34.80530762 -11.53442383 33.86474609 C-11.61986355 30.46338007 -11.68242812 27.06316094 -11.72973633 23.66113281 C-11.75481456 22.19154826 -11.78888668 20.72208764 -11.83227539 19.25292969 C-11.89323311 17.1351867 -11.92135128 15.01909775 -11.94335938 12.90063477 C-11.96954346 11.62808838 -11.99572754 10.35554199 -12.02270508 9.04443359 C-10.88241813 2.18750809 -6.54675675 0.00557929 0 0 Z M4.54492188 16.63110352 C4.54492188 23.23110352 4.54492188 29.83110352 4.54492188 36.63110352 C18.73492187 36.63110352 32.92492187 36.63110352 47.54492188 36.63110352 C47.54492188 30.03110352 47.54492188 23.43110352 47.54492188 16.63110352 C33.35492188 16.63110352 19.16492188 16.63110352 4.54492188 16.63110352 Z M-94.45507812 106.63110352 C-94.45507812 200.68110352 -94.45507812 294.73110352 -94.45507812 391.63110352 C-71.35507813 391.63110352 -48.25507813 391.63110352 -24.45507812 391.63110352 C-24.45507812 297.58110352 -24.45507812 203.53110352 -24.45507812 106.63110352 C-47.55507813 106.63110352 -70.65507812 106.63110352 -94.45507812 106.63110352 Z M-247.33007812 133.56860352 C-252.43374351 140.92388598 -251.45507812 144.8374057 -251.45507812 154.63110352 C-237.59507812 154.63110352 -223.73507813 154.63110352 -209.45507812 154.63110352 C-208.97857029 141.41216474 -208.97857029 141.41216474 -215.39648438 131.62719727 C-221.26812412 126.2745975 -225.45055213 125.21076993 -233.37695312 125.28735352 C-239.3875244 125.95858483 -243.35463954 129.20138258 -247.33007812 133.56860352 Z M-179.45507812 204.63110352 C-179.45507812 266.34110352 -179.45507812 328.05110352 -179.45507812 391.63110352 C-156.68507812 391.63110352 -133.91507813 391.63110352 -110.45507812 391.63110352 C-110.45507812 387.01110352 -110.45507812 382.39110352 -110.45507812 377.63110352 C-111.52991455 377.616521 -112.60475098 377.60193848 -113.7121582 377.58691406 C-117.69882529 377.52895461 -121.68492613 377.45172223 -125.67114258 377.36865234 C-127.39663505 377.33539179 -129.12223662 377.30736333 -130.84790039 377.28466797 C-133.32810978 377.25114199 -135.80731843 377.19882945 -138.28710938 377.14282227 C-139.44506767 377.13323738 -139.44506767 377.13323738 -140.62641907 377.12345886 C-145.97691064 376.97647001 -145.97691064 376.97647001 -148.40307617 375.22412109 C-150.54107734 371.98660482 -150.58260162 369.85730231 -150.58879089 365.98867798 C-150.59305588 364.78848526 -150.59732086 363.58829254 -150.60171509 362.35173035 C-150.60136555 361.01467892 -150.600904 359.67762752 -150.6003418 358.34057617 C-150.60333269 356.93792125 -150.60673506 355.53526715 -150.61051941 354.13261414 C-150.61937127 350.31646561 -150.62169804 346.50033949 -150.6223352 342.68418169 C-150.62328353 339.50075046 -150.626961 336.31732449 -150.63050729 333.13389528 C-150.63865655 325.62384741 -150.64109112 318.11381154 -150.64038086 310.60375977 C-150.63978011 302.85233249 -150.6503303 295.10097481 -150.66612452 287.34956515 C-150.67919368 280.69898323 -150.68456501 274.04842408 -150.68392545 267.39782941 C-150.68367025 263.42383148 -150.68653321 259.44989535 -150.6971035 255.47591019 C-150.70677387 251.73801915 -150.706871 248.00024916 -150.69958687 244.2623539 C-150.69804001 242.23540793 -150.70639541 240.208462 -150.71502686 238.18153381 C-150.71083237 236.97570145 -150.70663788 235.76986908 -150.70231628 234.52749634 C-150.70286105 233.47924997 -150.70340582 232.43100361 -150.70396709 231.3509922 C-150.45035053 228.57943975 -149.97195657 226.94696162 -148.45507812 224.63110352 C-145.29046197 223.04879544 -141.86428446 223.38952539 -138.38476562 223.31469727 C-137.5885379 223.29391617 -136.79231018 223.27313507 -135.97195435 223.25172424 C-133.42475127 223.18626203 -130.87744387 223.12735936 -128.33007812 223.06860352 C-126.60480686 223.02541512 -124.87954619 222.98180073 -123.15429688 222.93774414 C-118.9213294 222.82978106 -114.68828442 222.73068344 -110.45507812 222.63110352 C-110.45507812 216.69110352 -110.45507812 210.75110352 -110.45507812 204.63110352 C-133.22507812 204.63110352 -155.99507812 204.63110352 -179.45507812 204.63110352 Z M76.54492188 235.63110352 C76.54492188 287.11110352 76.54492188 338.59110352 76.54492188 391.63110352 C99.64492188 391.63110352 122.74492187 391.63110352 146.54492188 391.63110352 C146.54492188 340.15110352 146.54492188 288.67110352 146.54492188 235.63110352 C123.44492187 235.63110352 100.34492188 235.63110352 76.54492188 235.63110352 Z M-135.45507812 238.63110352 C-135.45507812 279.22110352 -135.45507812 319.81110352 -135.45507812 361.63110352 C-127.20507812 361.63110352 -118.95507812 361.63110352 -110.45507812 361.63110352 C-110.45507812 321.04110352 -110.45507812 280.45110352 -110.45507812 238.63110352 C-118.70507812 238.63110352 -126.95507812 238.63110352 -135.45507812 238.63110352 Z " fill="currentColor" transform="translate(319.455078125,105.368896484375)"/>
<path d="M0 0 C0.66 -0.01289063 1.32 -0.02578125 2 -0.0390625 C5.23747491 1.03588034 6.2062855 2.74946923 8 5.625 C8.58685037 8.81539957 8.53985086 11.96019041 8.50793457 15.1967926 C8.51729451 16.65067026 8.51729451 16.65067026 8.52684355 18.13391918 C8.54280942 21.38452952 8.53015492 24.63439375 8.51757812 27.88500977 C8.52299759 30.21420734 8.53011926 32.54340148 8.53881836 34.87258911 C8.55707432 41.20095746 8.54997489 47.52906535 8.53730202 53.85743833 C8.52821219 59.80361087 8.53514443 65.74975101 8.5410108 71.69592439 C8.55241571 84.18927927 8.53930386 96.68251673 8.51780933 109.17585235 C8.4999342 119.89748573 8.50304596 130.61894591 8.52148438 141.34057617 C8.54288551 153.7908089 8.55132149 166.24093877 8.53903532 178.69118732 C8.53279145 185.28199133 8.53198949 191.87267598 8.54518127 198.46347237 C8.5567137 204.65806744 8.54876145 210.85233453 8.52560425 217.04689407 C8.52030347 219.32375607 8.52185417 221.60064556 8.53065491 223.87749672 C8.5415395 226.97877077 8.52793206 230.07898504 8.50793457 233.18019104 C8.5213189 234.54083021 8.5213189 234.54083021 8.53497362 235.92895705 C8.45863881 242.00622315 8.45863881 242.00622315 6.12059784 245.16061306 C3.61386431 246.89164747 2.04610622 247.47640945 -1 247.625 C-4.81263347 246.56100927 -5.75011007 245.9998349 -8 242.625 C-8.25299966 240.73850691 -8.25299966 240.73850691 -8.25726891 238.56850624 C-8.2637178 237.74005184 -8.27016669 236.91159744 -8.276811 236.05803835 C-8.2737138 235.14803273 -8.2706166 234.23802711 -8.26742554 233.30044556 C-8.27195665 232.3336082 -8.27648776 231.36677085 -8.28115618 230.37063539 C-8.29386194 227.11634568 -8.29217584 223.862222 -8.29052734 220.60791016 C-8.29650873 218.28063236 -8.30331337 215.95335655 -8.31088257 213.62608337 C-8.32858925 207.29347207 -8.33323991 200.96091478 -8.33451414 194.62828112 C-8.3364103 189.34727351 -8.34376454 184.06627856 -8.35085833 178.78527582 C-8.36651007 167.04087951 -8.37219466 155.29650666 -8.37084763 143.55210085 C-8.37076772 142.84719273 -8.3706878 142.1422846 -8.37060547 141.41601562 C-8.37052371 140.71024798 -8.37044195 140.00448034 -8.37035771 139.27732579 C-8.36954474 127.8383192 -8.38868418 116.39944427 -8.4168822 104.96047576 C-8.44559931 93.21838838 -8.45942314 81.47636524 -8.45769465 69.73424184 C-8.45718392 63.14056408 -8.46292843 56.54703525 -8.48405075 49.95338821 C-8.50336983 43.7530983 -8.50360089 37.55310039 -8.48901749 31.35280037 C-8.48692043 29.07473768 -8.49168328 26.79665702 -8.5037384 24.51862526 C-8.51910974 21.41324413 -8.50993602 18.30888001 -8.49447632 15.20352173 C-8.50476344 14.29797755 -8.51505057 13.39243337 -8.52564943 12.45944846 C-8.47983011 8.3063846 -8.33845604 6.16789812 -6.09409523 2.5678463 C-3.8470526 0.48309944 -3.01618151 -0.0589098 0 0 Z " fill="currentColor" transform="translate(275,230.375)"/>
<path d="M0 0 C0.66 -0.01289063 1.32 -0.02578125 2 -0.0390625 C5.23747491 1.03588034 6.2062855 2.74946923 8 5.625 C8.58685037 8.81539957 8.53985086 11.96019041 8.50793457 15.1967926 C8.51729451 16.65067026 8.51729451 16.65067026 8.52684355 18.13391918 C8.54280942 21.38452952 8.53015492 24.63439375 8.51757812 27.88500977 C8.52299759 30.21420734 8.53011926 32.54340148 8.53881836 34.87258911 C8.55707432 41.20095746 8.54997489 47.52906535 8.53730202 53.85743833 C8.52821219 59.80361087 8.53514443 65.74975101 8.5410108 71.69592439 C8.55241571 84.18927927 8.53930386 96.68251673 8.51780933 109.17585235 C8.4999342 119.89748573 8.50304596 130.61894591 8.52148438 141.34057617 C8.54288551 153.7908089 8.55132149 166.24093877 8.53903532 178.69118732 C8.53279145 185.28199133 8.53198949 191.87267598 8.54518127 198.46347237 C8.5567137 204.65806744 8.54876145 210.85233453 8.52560425 217.04689407 C8.52030347 219.32375607 8.52185417 221.60064556 8.53065491 223.87749672 C8.5415395 226.97877077 8.52793206 230.07898504 8.50793457 233.18019104 C8.5213189 234.54083021 8.5213189 234.54083021 8.53497362 235.92895705 C8.45863881 242.00622315 8.45863881 242.00622315 6.12059784 245.16061306 C3.61386431 246.89164747 2.04610622 247.47640945 -1 247.625 C-4.81263347 246.56100927 -5.75011007 245.9998349 -8 242.625 C-8.25299966 240.73850691 -8.25299966 240.73850691 -8.25726891 238.56850624 C-8.2637178 237.74005184 -8.27016669 236.91159744 -8.276811 236.05803835 C-8.2737138 235.14803273 -8.2706166 234.23802711 -8.26742554 233.30044556 C-8.27195665 232.3336082 -8.27648776 231.36677085 -8.28115618 230.37063539 C-8.29386194 227.11634568 -8.29217584 223.862222 -8.29052734 220.60791016 C-8.29650873 218.28063236 -8.30331337 215.95335655 -8.31088257 213.62608337 C-8.32858925 207.29347207 -8.33323991 200.96091478 -8.33451414 194.62828112 C-8.3364103 189.34727351 -8.34376454 184.06627856 -8.35085833 178.78527582 C-8.36651007 167.04087951 -8.37219466 155.29650666 -8.37084763 143.55210085 C-8.37076772 142.84719273 -8.3706878 142.1422846 -8.37060547 141.41601562 C-8.37052371 140.71024798 -8.37044195 140.00448034 -8.37035771 139.27732579 C-8.36954474 127.8383192 -8.38868418 116.39944427 -8.4168822 104.96047576 C-8.44559931 93.21838838 -8.45942314 81.47636524 -8.45769465 69.73424184 C-8.45718392 63.14056408 -8.46292843 56.54703525 -8.48405075 49.95338821 C-8.50336983 43.7530983 -8.50360089 37.55310039 -8.48901749 31.35280037 C-8.48692043 29.07473768 -8.49168328 26.79665702 -8.5037384 24.51862526 C-8.51910974 21.41324413 -8.50993602 18.30888001 -8.49447632 15.20352173 C-8.50476344 14.29797755 -8.51505057 13.39243337 -8.52564943 12.45944846 C-8.47983011 8.3063846 -8.33845604 6.16789812 -6.09409523 2.5678463 C-3.8470526 0.48309944 -3.01618151 -0.0589098 0 0 Z " fill="currentColor" transform="translate(247,230.375)"/>
<path d="M0 0 C6.11964979 4.63570038 9.54300115 10.63497945 10.61328125 18.22265625 C10.96853317 27.05594735 9.45991927 33.97539131 3.48828125 40.65625 C-3.50936385 47.11682979 -9.97172916 48.45592064 -19.35546875 48.2265625 C-26.29298781 47.41628497 -31.58211604 44.55656311 -36.3046875 39.44140625 C-42.18256382 31.63198983 -42.99908951 24.50764347 -41.8671875 14.81640625 C-39.53040348 7.05828329 -35.03902784 1.76054913 -28.0625 -2.2109375 C-18.98245017 -6.29884375 -8.29204691 -5.25625568 0 0 Z M-23.8671875 14.81640625 C-26.32383947 18.50138421 -26.56805241 21.53612411 -25.8671875 25.81640625 C-24.07354839 28.62644085 -22.84837815 30.32581093 -19.8671875 31.81640625 C-14.05372803 32.35006138 -14.05372803 32.35006138 -8.9296875 29.94140625 C-5.79625434 26.71302057 -5.47500057 24.36710916 -5.5078125 19.85546875 C-6.1104177 16.43633927 -8.23504817 14.88451573 -10.8671875 12.81640625 C-15.66748889 10.41625556 -19.77350314 11.74614298 -23.8671875 14.81640625 Z " fill="currentColor" transform="translate(446.8671875,101.18359375)"/>
<path d="M0 0 C5.47193383 3.8836588 10.59979777 9.69010187 11.96484375 16.39453125 C12.94726588 25.43502254 12.42204302 32.91155346 6.96484375 40.39453125 C2.08812696 45.96961282 -3.56165612 48.89951279 -10.89453125 49.7109375 C-19.3306978 50.04281715 -25.6158244 48.15188965 -32.34765625 43.08203125 C-38.14437579 37.28531171 -40.15685297 31.35575135 -40.41015625 23.26953125 C-40.33415415 15.7453235 -38.4228649 10.19262741 -33.390625 4.55078125 C-24.35000229 -3.77557104 -11.11276342 -5.85644701 0 0 Z M-23.03515625 17.39453125 C-24.56730513 20.45882901 -24.26454173 23.01109545 -24.03515625 26.39453125 C-22.76517306 29.25199342 -21.75135595 30.87590388 -19.22265625 32.70703125 C-15.15263865 33.98617964 -12.14650739 33.92494884 -8.28515625 32.08203125 C-5.8144318 30.4239997 -5.8144318 30.4239997 -4.03515625 27.39453125 C-3.45445098 21.57504788 -3.45445098 21.57504788 -5.91015625 16.45703125 C-9.16535085 13.29757767 -11.45928863 13.06031882 -15.99609375 13.1015625 C-19.16650192 13.55708092 -20.85439645 15.14768782 -23.03515625 17.39453125 Z " fill="currentColor" transform="translate(274.03515625,2.60546875)"/>
<path d="M0 0 C6.11964979 4.63570038 9.54300115 10.63497945 10.61328125 18.22265625 C10.97736425 27.27553085 9.38071655 34.13237242 3.23046875 40.9140625 C-3.60968713 47.30783585 -10.10536291 48.34693283 -19.3203125 48.19140625 C-26.25172302 47.4585699 -31.55637381 44.5656783 -36.3046875 39.50390625 C-41.78841707 32.26476183 -42.94141163 24.78794844 -41.8671875 15.81640625 C-39.49952886 7.75422504 -35.16260331 2.04774742 -27.8671875 -2.18359375 C-18.99771578 -6.40715171 -8.13967695 -5.1596697 0 0 Z M-23.8671875 14.81640625 C-26.43289339 18.23734744 -26.30426804 21.66414109 -25.8671875 25.81640625 C-24.07156345 28.56969646 -22.81463828 30.34268086 -19.8671875 31.81640625 C-14.05372803 32.35006138 -14.05372803 32.35006138 -8.9296875 29.94140625 C-5.79625434 26.71302057 -5.47500057 24.36710916 -5.5078125 19.85546875 C-6.1104177 16.43633927 -8.23504817 14.88451573 -10.8671875 12.81640625 C-15.63083031 10.43458485 -19.83819873 11.68274832 -23.8671875 14.81640625 Z " fill="currentColor" transform="translate(188.8671875,38.18359375)"/>
<path d="M0 0 C2.56336796 2.24551034 4.36458038 4.01395681 5.26171875 7.3515625 C5.46638291 10.70061234 4.90975183 12.94283457 3.140625 15.7734375 C0.63888299 17.31297104 -1.2162274 18.08218598 -4.18359375 17.9296875 C-8.17872469 16.68905534 -11.24639532 13.85410603 -14.51171875 11.31640625 C-23.72275649 4.55992275 -33.10297861 3.46466383 -44.296875 4.2734375 C-53.49564686 6.03681623 -61.65508795 10.63165045 -68.296875 17.2734375 C-72.6513331 17.77587497 -74.63101029 17.75512686 -78.234375 15.1484375 C-80.296875 12.2734375 -80.296875 12.2734375 -80.921875 9.2734375 C-80.07494457 5.20817143 -78.4446258 3.95237435 -75.296875 1.2734375 C-74.82378906 0.80035156 -74.35070312 0.32726562 -73.86328125 -0.16015625 C-53.60984899 -19.60547151 -20.83161311 -15.65913774 0 0 Z " fill="currentColor" transform="translate(126.296875,107.7265625)"/>
<path d="M0 0 C7.1246962 6.21156266 7.1246962 6.21156266 7.59375 11.27734375 C7.28125 14.90234375 7.28125 14.90234375 5.71875 17.33984375 C3.21460249 18.94506651 1.39869642 19.71298339 -1.60546875 19.55859375 C-5.60121017 18.31777202 -8.66993533 15.48126585 -11.9375 12.9453125 C-21.08108147 6.2288896 -30.61916802 5.20213648 -41.71875 5.90234375 C-50.26951689 7.35204273 -57.93972302 11.56273851 -64.40625 17.27734375 C-67.69884926 19.59106215 -69.79462993 19.54447249 -73.71875 18.90234375 C-76.61451216 16.37783315 -77.56022642 14.73018909 -78.28125 10.96484375 C-77.30925738 5.67288395 -74.43308537 3.1493801 -70.25390625 0.109375 C-48.748019 -14.03685378 -21.36512219 -16.48429686 0 0 Z " fill="currentColor" transform="translate(380.71875,48.09765625)"/>
<path d="M0 0 C0.8245166 -0.00478363 1.6490332 -0.00956726 2.49853516 -0.01449585 C4.23667313 -0.01788872 5.97487544 -0.00872903 7.71289062 0.01220703 C10.36733825 0.03898521 13.01755825 0.01244254 15.671875 -0.01953125 C17.36459263 -0.01622704 19.05730763 -0.00982056 20.75 0 C21.93456787 -0.01518173 21.93456787 -0.01518173 23.14306641 -0.03067017 C27.35331444 0.05848655 28.94435394 0.32614833 32.375 3.01806641 C34.375 5.6640625 34.375 5.6640625 35 8.6640625 C34.14222298 12.78139217 32.67489076 14.08146929 29.375 16.6640625 C26.47860929 17.36180111 23.68245385 17.31917948 20.71484375 17.2578125 C19.88795547 17.25785278 19.0610672 17.25789307 18.2091217 17.25793457 C16.46672943 17.25258858 14.72433702 17.23504504 12.98217773 17.20605469 C10.31744666 17.16414031 7.65524008 17.16499313 4.99023438 17.171875 C3.2942533 17.16138367 1.59828522 17.14844587 -0.09765625 17.1328125 C-0.89252945 17.13261108 -1.68740265 17.13240967 -2.50636292 17.13220215 C-5.81345559 17.0615067 -8.20374543 16.90363189 -11.10888672 15.25146484 C-12.87925378 13.39785347 -13.33862655 12.31470974 -13.6875 9.7890625 C-13.80222656 9.13164062 -13.91695313 8.47421875 -14.03515625 7.796875 C-12.61157153 0.39423448 -6.15730265 -0.0789136 0 0 Z " fill="currentColor" transform="translate(419.625,455.3359375)"/>
<path d="M0 0 C0.8245166 -0.00478363 1.6490332 -0.00956726 2.49853516 -0.01449585 C4.23667313 -0.01788872 5.97487544 -0.00872903 7.71289062 0.01220703 C10.36733825 0.03898521 13.01755825 0.01244254 15.671875 -0.01953125 C17.36459263 -0.01622704 19.05730763 -0.00982056 20.75 0 C21.93456787 -0.01518173 21.93456787 -0.01518173 23.14306641 -0.03067017 C27.35331444 0.05848655 28.94435394 0.32614833 32.375 3.01806641 C34.375 5.6640625 34.375 5.6640625 35 8.6640625 C34.14400558 12.77283571 32.65955604 14.07981076 29.375 16.6640625 C26.37412261 17.13931457 23.95803435 17.32164119 20.96875 17.2578125 C19.76526917 17.25787292 19.76526917 17.25787292 18.53747559 17.25793457 C16.84635557 17.25258891 15.1552354 17.23504672 13.46435547 17.20605469 C10.88301276 17.16419244 8.30428133 17.16498935 5.72265625 17.171875 C4.07550279 17.16138154 2.42836272 17.14844258 0.78125 17.1328125 C0.01341187 17.13261108 -0.75442627 17.13240967 -1.54553223 17.13220215 C-6.05652948 17.0330952 -9.04047186 16.46735839 -12.625 13.6640625 C-13.5078125 11.796875 -13.5078125 11.796875 -13.75 9.7890625 C-13.90855469 8.80292969 -13.90855469 8.80292969 -14.0703125 7.796875 C-12.52843196 0.41207875 -6.20864067 -0.07957157 0 0 Z " fill="currentColor" transform="translate(78.625,455.3359375)"/>
<path d="M0 0 C0.8245166 -0.00478363 1.6490332 -0.00956726 2.49853516 -0.01449585 C4.23667313 -0.01788872 5.97487544 -0.00872903 7.71289062 0.01220703 C10.36733825 0.03898521 13.01755825 0.01244254 15.671875 -0.01953125 C17.36459263 -0.01622704 19.05730763 -0.00982056 20.75 0 C21.93456787 -0.01518173 21.93456787 -0.01518173 23.14306641 -0.03067017 C27.35331444 0.05848655 28.94435394 0.32614833 32.375 3.01806641 C34.375 5.6640625 34.375 5.6640625 35 8.6640625 C34.14400558 12.77283571 32.65955604 14.07981076 29.375 16.6640625 C26.37412261 17.13931457 23.95803435 17.32164119 20.96875 17.2578125 C19.76526917 17.25787292 19.76526917 17.25787292 18.53747559 17.25793457 C16.84635557 17.25258891 15.1552354 17.23504672 13.46435547 17.20605469 C10.88301276 17.16419244 8.30428133 17.16498935 5.72265625 17.171875 C4.07550279 17.16138154 2.42836272 17.14844258 0.78125 17.1328125 C0.01341187 17.13261108 -0.75442627 17.13240967 -1.54553223 17.13220215 C-6.05652948 17.0330952 -9.04047186 16.46735839 -12.625 13.6640625 C-13.5078125 11.796875 -13.5078125 11.796875 -13.75 9.7890625 C-13.90855469 8.80292969 -13.90855469 8.80292969 -14.0703125 7.796875 C-12.52843196 0.41207875 -6.20864067 -0.07957157 0 0 Z " fill="currentColor" transform="translate(419.625,423.3359375)"/>
<path d="M0 0 C0.8245166 -0.00478363 1.6490332 -0.00956726 2.49853516 -0.01449585 C4.23667313 -0.01788872 5.97487544 -0.00872903 7.71289062 0.01220703 C10.36733825 0.03898521 13.01755825 0.01244254 15.671875 -0.01953125 C17.36459263 -0.01622704 19.05730763 -0.00982056 20.75 0 C21.93456787 -0.01518173 21.93456787 -0.01518173 23.14306641 -0.03067017 C27.35331444 0.05848655 28.94435394 0.32614833 32.375 3.01806641 C34.375 5.6640625 34.375 5.6640625 35 8.6640625 C34.14400558 12.77283571 32.65955604 14.07981076 29.375 16.6640625 C26.37412261 17.13931457 23.95803435 17.32164119 20.96875 17.2578125 C19.76526917 17.25787292 19.76526917 17.25787292 18.53747559 17.25793457 C16.84635557 17.25258891 15.1552354 17.23504672 13.46435547 17.20605469 C10.88301276 17.16419244 8.30428133 17.16498935 5.72265625 17.171875 C4.07550279 17.16138154 2.42836272 17.14844258 0.78125 17.1328125 C0.01341187 17.13261108 -0.75442627 17.13240967 -1.54553223 17.13220215 C-6.05652948 17.0330952 -9.04047186 16.46735839 -12.625 13.6640625 C-13.5078125 11.796875 -13.5078125 11.796875 -13.75 9.7890625 C-13.90855469 8.80292969 -13.90855469 8.80292969 -14.0703125 7.796875 C-12.52843196 0.41207875 -6.20864067 -0.07957157 0 0 Z " fill="currentColor" transform="translate(78.625,423.3359375)"/>
<path d="M0 0 C0.84908432 -0.00478363 1.69816864 -0.00956726 2.57298279 -0.01449585 C4.36239482 -0.01788892 6.15186933 -0.0087279 7.94116211 0.01220703 C10.67897581 0.03901728 13.41270278 0.01242524 16.15039062 -0.01953125 C17.89193612 -0.01622769 19.63347907 -0.00982257 21.375 0 C22.60012047 -0.01518173 22.60012047 -0.01518173 23.84999084 -0.03067017 C27.96023995 0.05408059 29.53549617 0.11779229 32.64038086 3.01416016 C34.44171273 6.23784625 34.66336195 8.0231189 34.12109375 11.6640625 C32.3412497 14.7999782 31.59801168 15.50508986 28.12109375 16.6640625 C25.44835071 16.7848355 22.80246618 16.8521637 20.12890625 16.8671875 C18.95447464 16.87573761 18.95447464 16.87573761 17.75631714 16.88446045 C16.10041654 16.89390095 14.44449724 16.90044066 12.78857422 16.90429688 C10.26236009 16.91400002 7.73696067 16.94503032 5.2109375 16.9765625 C3.60026524 16.98309325 1.98958717 16.98834344 0.37890625 16.9921875 C-0.74945145 17.0107077 -0.74945145 17.0107077 -1.90060425 17.02960205 C-6.40450478 17.0105829 -9.30377524 16.46269834 -12.87890625 13.6640625 C-13.76171875 11.796875 -13.76171875 11.796875 -14.00390625 9.7890625 C-14.16246094 8.80292969 -14.16246094 8.80292969 -14.32421875 7.796875 C-12.75741037 0.29268752 -6.27890907 -0.07800176 0 0 Z " fill="currentColor" transform="translate(419.87890625,391.3359375)"/>
<path d="M0 0 C0.84908432 -0.00478363 1.69816864 -0.00956726 2.57298279 -0.01449585 C4.36239482 -0.01788892 6.15186933 -0.0087279 7.94116211 0.01220703 C10.67897581 0.03901728 13.41270278 0.01242524 16.15039062 -0.01953125 C17.89193612 -0.01622769 19.63347907 -0.00982257 21.375 0 C22.60012047 -0.01518173 22.60012047 -0.01518173 23.84999084 -0.03067017 C27.96023995 0.05408059 29.53549617 0.11779229 32.64038086 3.01416016 C34.44171273 6.23784625 34.66336195 8.0231189 34.12109375 11.6640625 C32.3412497 14.7999782 31.59801168 15.50508986 28.12109375 16.6640625 C25.44835071 16.7848355 22.80246618 16.8521637 20.12890625 16.8671875 C18.95447464 16.87573761 18.95447464 16.87573761 17.75631714 16.88446045 C16.10041654 16.89390095 14.44449724 16.90044066 12.78857422 16.90429688 C10.26236009 16.91400002 7.73696067 16.94503032 5.2109375 16.9765625 C3.60026524 16.98309325 1.98958717 16.98834344 0.37890625 16.9921875 C-0.74945145 17.0107077 -0.74945145 17.0107077 -1.90060425 17.02960205 C-6.40450478 17.0105829 -9.30377524 16.46269834 -12.87890625 13.6640625 C-13.76171875 11.796875 -13.76171875 11.796875 -14.00390625 9.7890625 C-14.16246094 8.80292969 -14.16246094 8.80292969 -14.32421875 7.796875 C-12.75741037 0.29268752 -6.27890907 -0.07800176 0 0 Z " fill="currentColor" transform="translate(78.87890625,391.3359375)"/>
<path d="M0 0 C1.2757489 -0.01142029 1.2757489 -0.01142029 2.57727051 -0.02307129 C4.37261015 -0.03386029 6.1680125 -0.03673026 7.96337891 -0.03222656 C10.70972146 -0.0312532 13.4532788 -0.07290608 16.19921875 -0.1171875 C17.94530668 -0.12239396 19.69140431 -0.1250827 21.4375 -0.125 C22.25738403 -0.14139526 23.07726807 -0.15779053 23.92199707 -0.17468262 C28.04590684 -0.12468927 29.62063255 -0.08767065 32.74023438 2.81445312 C34.53725661 6.04054721 34.76104594 7.8276201 34.21875 11.46875 C32.43890595 14.6046657 31.69566793 15.30977736 28.21875 16.46875 C25.5341728 16.57762625 22.87633549 16.63278438 20.19140625 16.63671875 C19.40608017 16.64004715 18.62075409 16.64337555 17.81163025 16.64680481 C16.15152573 16.65186463 14.49141105 16.65421343 12.83129883 16.65405273 C10.29426287 16.65623879 7.75766213 16.67440296 5.22070312 16.69335938 C3.60677232 16.69629359 1.99283945 16.6982782 0.37890625 16.69921875 C-0.3784935 16.70640427 -1.13589325 16.71358978 -1.91624451 16.72099304 C-5.67720614 16.70471321 -8.63260647 16.65407193 -11.78125 14.46875 C-13.8628402 11.79241974 -13.77712591 10.35121332 -13.65625 6.90625 C-12.78125 3.46875 -12.78125 3.46875 -11.27539062 1.78320312 C-7.62060304 -0.14293003 -4.03668321 0.00099167 0 0 Z " fill="currentColor" transform="translate(419.78125,359.53125)"/>
<path d="M0 0 C1.2757489 -0.01142029 1.2757489 -0.01142029 2.57727051 -0.02307129 C4.37261015 -0.03386029 6.1680125 -0.03673026 7.96337891 -0.03222656 C10.70972146 -0.0312532 13.4532788 -0.07290608 16.19921875 -0.1171875 C17.94530668 -0.12239396 19.69140431 -0.1250827 21.4375 -0.125 C22.25738403 -0.14139526 23.07726807 -0.15779053 23.92199707 -0.17468262 C28.04590684 -0.12468927 29.62063255 -0.08767065 32.74023438 2.81445312 C34.53725661 6.04054721 34.76104594 7.8276201 34.21875 11.46875 C32.43890595 14.6046657 31.69566793 15.30977736 28.21875 16.46875 C25.5341728 16.57762625 22.87633549 16.63278438 20.19140625 16.63671875 C19.40608017 16.64004715 18.62075409 16.64337555 17.81163025 16.64680481 C16.15152573 16.65186463 14.49141105 16.65421343 12.83129883 16.65405273 C10.29426287 16.65623879 7.75766213 16.67440296 5.22070312 16.69335938 C3.60677232 16.69629359 1.99283945 16.6982782 0.37890625 16.69921875 C-0.3784935 16.70640427 -1.13589325 16.71358978 -1.91624451 16.72099304 C-5.67720614 16.70471321 -8.63260647 16.65407193 -11.78125 14.46875 C-13.8628402 11.79241974 -13.77712591 10.35121332 -13.65625 6.90625 C-12.78125 3.46875 -12.78125 3.46875 -11.27539062 1.78320312 C-7.62060304 -0.14293003 -4.03668321 0.00099167 0 0 Z " fill="currentColor" transform="translate(78.78125,359.53125)"/>
<path d="M0 0 C1.2757489 -0.01142029 1.2757489 -0.01142029 2.57727051 -0.02307129 C4.37261015 -0.03386029 6.1680125 -0.03673026 7.96337891 -0.03222656 C10.70972146 -0.0312532 13.4532788 -0.07290608 16.19921875 -0.1171875 C17.94530668 -0.12239396 19.69140431 -0.1250827 21.4375 -0.125 C22.25738403 -0.14139526 23.07726807 -0.15779053 23.92199707 -0.17468262 C28.04590684 -0.12468927 29.62063255 -0.08767065 32.74023438 2.81445312 C34.53725661 6.04054721 34.76104594 7.8276201 34.21875 11.46875 C32.43890595 14.6046657 31.69566793 15.30977736 28.21875 16.46875 C25.5341728 16.57762625 22.87633549 16.63278438 20.19140625 16.63671875 C19.40608017 16.64004715 18.62075409 16.64337555 17.81163025 16.64680481 C16.15152573 16.65186463 14.49141105 16.65421343 12.83129883 16.65405273 C10.29426287 16.65623879 7.75766213 16.67440296 5.22070312 16.69335938 C3.60677232 16.69629359 1.99283945 16.6982782 0.37890625 16.69921875 C-0.3784935 16.70640427 -1.13589325 16.71358978 -1.91624451 16.72099304 C-5.67720614 16.70471321 -8.63260647 16.65407193 -11.78125 14.46875 C-13.8628402 11.79241974 -13.77712591 10.35121332 -13.65625 6.90625 C-12.78125 3.46875 -12.78125 3.46875 -11.27539062 1.78320312 C-7.62060304 -0.14293003 -4.03668321 0.00099167 0 0 Z " fill="currentColor" transform="translate(78.78125,327.53125)"/>
<path d="M0 0 C0.87411026 -0.00761353 1.74822052 -0.01522705 2.64881897 -0.02307129 C4.49721419 -0.03387489 6.34567047 -0.03672433 8.1940918 -0.03222656 C11.02170699 -0.03125462 13.84660519 -0.07286208 16.67382812 -0.1171875 C18.47004642 -0.12239483 20.26627416 -0.12508269 22.0625 -0.125 C22.90739487 -0.14139526 23.75228973 -0.15779053 24.62278748 -0.17468262 C30.47712289 -0.105798 30.47712289 -0.105798 33.63110352 2.81445312 C35.42378994 6.0590156 35.71930776 7.81654739 35.09765625 11.46875 C33.23055715 13.77150556 31.74117884 15.14698871 29.09765625 16.46875 C26.44560688 16.57982767 23.82062543 16.63285791 21.16796875 16.63671875 C19.98785721 16.64171135 19.98785721 16.64171135 18.78390503 16.64680481 C17.11782415 16.65187155 15.45173311 16.65421321 13.78564453 16.65405273 C11.23973789 16.65623536 8.69426722 16.67438272 6.1484375 16.69335938 C4.5299494 16.69629414 2.91145924 16.69827838 1.29296875 16.69921875 C0.15216354 16.70999702 0.15216354 16.70999702 -1.01168823 16.72099304 C-4.77975283 16.7047562 -7.74828764 16.66089257 -10.90234375 14.46875 C-12.99913778 11.77287197 -12.89745196 10.375806 -12.71484375 6.90625 C-10.99297095 -0.37859645 -6.70022975 0.00159346 0 0 Z " fill="currentColor" transform="translate(77.90234375,295.53125)"/>
<path d="M0 0 C4.64516129 3.29032258 4.64516129 3.29032258 6 6 C6.53507099 10.0130324 6.33051628 11.53928033 3.9375 14.875 C0.2249847 17.56064937 -1.50239531 17.71014811 -6 17 C-8 15.66666667 -10 14.33333333 -12 13 C-16.40409588 12.37084345 -18.27267965 12.51511976 -22 15 C-25.69098461 17.46065641 -27.64429944 17.64528897 -32 17 C-34.4375 15.5 -34.4375 15.5 -36 13 C-36.87497481 8.06832382 -36.87497481 8.06832382 -36 5 C-27.45003616 -6.24068775 -11.43743151 -7.0054268 0 0 Z " fill="currentColor" transform="translate(104,130)"/>
<path d="M0 0 C3.9931883 2.55397669 6.41001124 4.68025548 7.8125 9.26171875 C7.87836904 12.35756374 7.65804011 13.70296259 5.875 16.19921875 C2.12043433 18.70226253 0.32754066 18.65201949 -4.125 18.19921875 C-6.125 16.86588542 -8.125 15.53255208 -10.125 14.19921875 C-14.52909588 13.5700622 -16.39767965 13.71433851 -20.125 16.19921875 C-23.81598461 18.65987516 -25.76929944 18.84450772 -30.125 18.19921875 C-33.04217074 16.20325982 -33.94241336 14.65568535 -35.25 11.38671875 C-35.08906793 7.28295087 -33.84968494 5.70913387 -31.04296875 2.8125 C-22.33745566 -4.51005989 -10.00392681 -5.24102783 0 0 Z " fill="currentColor" transform="translate(359.125,70.80078125)"/>
<path d="M0 0 C2.48896378 2.89040956 3.02797399 4.3006502 2.875 8.125 C1.53492334 12.52810903 1.53492334 12.52810903 -1 14 C-7.75 14.75 -7.75 14.75 -11.5 12.5 C-13.75389302 8.74351164 -13.48380069 6.35420619 -13 2 C-11.57764767 -0.20464611 -10.54400604 -0.75613522 -8.1875 -1.8125 C-4.97059138 -2.08823502 -2.91262779 -1.36335769 0 0 Z " fill="currentColor" transform="translate(265,133)"/>
<path d="M0 0 C1.9375 1.6875 1.9375 1.6875 3 4 C2.88081199 7.39685818 2.58128695 9.94000615 0.9375 12.9375 C-2.26492585 14.69366901 -5.49690726 14.62026592 -9 14 C-11.5 12.4375 -11.5 12.4375 -13 10 C-13.5 6.5 -13.5 6.5 -13 3 C-9.06555639 -2.15547783 -5.80211266 -2.53842429 0 0 Z " fill="currentColor" transform="translate(265,103)"/>
<path d="M0 0 C2.48038907 3.7205836 2.46337203 5.59796571 2 10 C0.5 12.4375 0.5 12.4375 -2 14 C-5.51870564 14.62303037 -8.75771003 14.72132966 -11.9375 12.875 C-13.46849826 10.17323836 -13.8757742 8.10564495 -14 5 C-12.77628305 2.16612916 -11.62756088 0.51549644 -9.25 -1.4375 C-5.74287509 -2.31428123 -3.30465927 -1.28514527 0 0 Z " fill="currentColor" transform="translate(265,163)"/>
<path d="M0 0 C2.48038907 3.7205836 2.46337203 5.59796571 2 10 C0.5 12.4375 0.5 12.4375 -2 14 C-4.8089715 14.61014545 -7.19636021 14.65360928 -10 14 C-12.5625 11.9375 -12.5625 11.9375 -14 9 C-13.93822484 5.41704089 -13.76840164 3.04782042 -11.625 0.125 C-7.41991855 -2.78621024 -4.54355607 -1.65220221 0 0 Z " fill="currentColor" transform="translate(266,73)"/>
<path d="M0 0 C2.5 1.5625 2.5 1.5625 4 4 C4.55802097 7.90614682 4.58392818 10.05111671 2.5 13.4375 C-0.53037069 15.33148168 -2.55830934 15.64334247 -6.08984375 15.4453125 C-8 15 -8 15 -10.5625 12.9375 C-12.43625505 9.10852228 -12.12962701 7.06665724 -11 3 C-8.71707037 -1.16298932 -4.22696498 -0.74843646 0 0 Z " fill="currentColor" transform="translate(177,257)"/>
<path d="M0 0 C2.5 1.5625 2.5 1.5625 4 4 C4.55802097 7.90614682 4.58392818 10.05111671 2.5 13.4375 C-0.53037069 15.33148168 -2.55830934 15.64334247 -6.08984375 15.4453125 C-8 15 -8 15 -10.5625 12.9375 C-12.43625505 9.10852228 -12.12962701 7.06665724 -11 3 C-8.71707037 -1.16298932 -4.22696498 -0.74843646 0 0 Z " fill="currentColor" transform="translate(177,227)"/>
<path d="M0 0 C2.5 1.5625 2.5 1.5625 4 4 C4.55802097 7.90614682 4.58392818 10.05111671 2.5 13.4375 C-0.53037069 15.33148168 -2.55830934 15.64334247 -6.08984375 15.4453125 C-8 15 -8 15 -10.5625 12.9375 C-12.43625505 9.10852228 -12.12962701 7.06665724 -11 3 C-8.71707037 -1.16298932 -4.22696498 -0.74843646 0 0 Z " fill="currentColor" transform="translate(177,197)"/>
<path d="M0 0 C2.5 1.5625 2.5 1.5625 4 4 C4.55802097 7.90614682 4.58392818 10.05111671 2.5 13.4375 C-0.53037069 15.33148168 -2.55830934 15.64334247 -6.08984375 15.4453125 C-8 15 -8 15 -10.5625 12.9375 C-12.43625505 9.10852228 -12.12962701 7.06665724 -11 3 C-8.71707037 -1.16298932 -4.22696498 -0.74843646 0 0 Z " fill="currentColor" transform="translate(177,167)"/>
<path d="M0 0 C2.5 1.5625 2.5 1.5625 4 4 C4.55802097 7.90614682 4.58392818 10.05111671 2.5 13.4375 C-0.53037069 15.33148168 -2.55830934 15.64334247 -6.08984375 15.4453125 C-8 15 -8 15 -10.5625 12.9375 C-12.43625505 9.10852228 -12.12962701 7.06665724 -11 3 C-8.71707037 -1.16298932 -4.22696498 -0.74843646 0 0 Z " fill="currentColor" transform="translate(177,137)"/>
<path d="M0 0 C2.5 1.5625 2.5 1.5625 4 4 C4.55802097 7.90614682 4.58392818 10.05111671 2.5 13.4375 C-0.53037069 15.33148168 -2.55830934 15.64334247 -6.08984375 15.4453125 C-8 15 -8 15 -10.5625 12.9375 C-12.43625505 9.10852228 -12.12962701 7.06665724 -11 3 C-8.71707037 -1.16298932 -4.22696498 -0.74843646 0 0 Z " fill="currentColor" transform="translate(177,107)"/>
<path d="M0 0 C2.5 1.5625 2.5 1.5625 4 4 C4.55802097 7.90614682 4.58392818 10.05111671 2.5 13.4375 C-0.53037069 15.33148168 -2.55830934 15.64334247 -6.08984375 15.4453125 C-8 15 -8 15 -10.5625 12.9375 C-12.43625505 9.10852228 -12.12962701 7.06665724 -11 3 C-8.71707037 -1.16298932 -4.22696498 -0.74843646 0 0 Z " fill="currentColor" transform="translate(435,285)"/>
<path d="M0 0 C2.5 1.5625 2.5 1.5625 4 4 C4.55802097 7.90614682 4.58392818 10.05111671 2.5 13.4375 C-0.53037069 15.33148168 -2.55830934 15.64334247 -6.08984375 15.4453125 C-8 15 -8 15 -10.5625 12.9375 C-12.43625505 9.10852228 -12.12962701 7.06665724 -11 3 C-8.71707037 -1.16298932 -4.22696498 -0.74843646 0 0 Z " fill="currentColor" transform="translate(435,255)"/>
<path d="M0 0 C2.5 1.5625 2.5 1.5625 4 4 C4.55802097 7.90614682 4.58392818 10.05111671 2.5 13.4375 C-0.53037069 15.33148168 -2.55830934 15.64334247 -6.08984375 15.4453125 C-8 15 -8 15 -10.5625 12.9375 C-12.43625505 9.10852228 -12.12962701 7.06665724 -11 3 C-8.71707037 -1.16298932 -4.22696498 -0.74843646 0 0 Z " fill="currentColor" transform="translate(435,225)"/>
<path d="M0 0 C2.5 1.5625 2.5 1.5625 4 4 C4.55802097 7.90614682 4.58392818 10.05111671 2.5 13.4375 C-0.53037069 15.33148168 -2.55830934 15.64334247 -6.08984375 15.4453125 C-8 15 -8 15 -10.5625 12.9375 C-12.43625505 9.10852228 -12.12962701 7.06665724 -11 3 C-8.71707037 -1.16298932 -4.22696498 -0.74843646 0 0 Z " fill="currentColor" transform="translate(435,195)"/>
<path d="M0 0 C2.5 1.5625 2.5 1.5625 4 4 C4.55802097 7.90614682 4.58392818 10.05111671 2.5 13.4375 C-0.53037069 15.33148168 -2.55830934 15.64334247 -6.08984375 15.4453125 C-8 15 -8 15 -10.5625 12.9375 C-12.43625505 9.10852228 -12.12962701 7.06665724 -11 3 C-8.71707037 -1.16298932 -4.22696498 -0.74843646 0 0 Z " fill="currentColor" transform="translate(435,165)"/>
<path d="M0 0 C2.5625 2.0625 2.5625 2.0625 4 5 C3.94021398 8.46758942 3.60965977 10.88826749 1.9375 13.9375 C-1.25502367 15.68823879 -4.45322589 15.52572226 -8 15 C-9.9375 13.9375 -9.9375 13.9375 -11 12 C-11.82343428 8.51623959 -12.35892433 6.04916342 -11.1875 2.625 C-8.52426625 -1.01942513 -4.11335398 -0.70584181 0 0 Z " fill="currentColor" transform="translate(336,459)"/>
<path d="M0 0 C2.5625 2.0625 2.5625 2.0625 4 5 C3.94021398 8.46758942 3.60965977 10.88826749 1.9375 13.9375 C-1.25502367 15.68823879 -4.45322589 15.52572226 -8 15 C-9.9375 13.9375 -9.9375 13.9375 -11 12 C-11.82343428 8.51623959 -12.35892433 6.04916342 -11.1875 2.625 C-8.52426625 -1.01942513 -4.11335398 -0.70584181 0 0 Z " fill="currentColor" transform="translate(336,428)"/>
<path d="M0 0 C2.5625 2.0625 2.5625 2.0625 4 5 C3.94021398 8.46758942 3.60965977 10.88826749 1.9375 13.9375 C-1.25502367 15.68823879 -4.45322589 15.52572226 -8 15 C-9.9375 13.9375 -9.9375 13.9375 -11 12 C-11.82343428 8.51623959 -12.35892433 6.04916342 -11.1875 2.625 C-8.52426625 -1.01942513 -4.11335398 -0.70584181 0 0 Z " fill="currentColor" transform="translate(336,397)"/>
<path d="M0 0 C2.5625 2.0625 2.5625 2.0625 4 5 C3.94021398 8.46758942 3.60965977 10.88826749 1.9375 13.9375 C-1.25502367 15.68823879 -4.45322589 15.52572226 -8 15 C-9.9375 13.9375 -9.9375 13.9375 -11 12 C-11.82343428 8.51623959 -12.35892433 6.04916342 -11.1875 2.625 C-8.52426625 -1.01942513 -4.11335398 -0.70584181 0 0 Z " fill="currentColor" transform="translate(336,366)"/>
<path d="M0 0 C2.5625 2.0625 2.5625 2.0625 4 5 C3.94021398 8.46758942 3.60965977 10.88826749 1.9375 13.9375 C-1.25502367 15.68823879 -4.45322589 15.52572226 -8 15 C-9.9375 13.9375 -9.9375 13.9375 -11 12 C-11.82343428 8.51623959 -12.35892433 6.04916342 -11.1875 2.625 C-8.52426625 -1.01942513 -4.11335398 -0.70584181 0 0 Z " fill="currentColor" transform="translate(336,335)"/>
<path d="M0 0 C2.5625 2.0625 2.5625 2.0625 4 5 C3.94021398 8.46758942 3.60965977 10.88826749 1.9375 13.9375 C-1.25502367 15.68823879 -4.45322589 15.52572226 -8 15 C-9.9375 13.9375 -9.9375 13.9375 -11 12 C-11.82343428 8.51623959 -12.35892433 6.04916342 -11.1875 2.625 C-8.52426625 -1.01942513 -4.11335398 -0.70584181 0 0 Z " fill="currentColor" transform="translate(336,304)"/>
<path d="M0 0 C2.5625 2.0625 2.5625 2.0625 4 5 C3.94021398 8.46758942 3.60965977 10.88826749 1.9375 13.9375 C-1.25502367 15.68823879 -4.45322589 15.52572226 -8 15 C-9.9375 13.9375 -9.9375 13.9375 -11 12 C-11.82343428 8.51623959 -12.35892433 6.04916342 -11.1875 2.625 C-8.52426625 -1.01942513 -4.11335398 -0.70584181 0 0 Z " fill="currentColor" transform="translate(336,273)"/>
<path d="M0 0 C2.5625 2.0625 2.5625 2.0625 4 5 C3.94021398 8.46758942 3.60965977 10.88826749 1.9375 13.9375 C-1.25502367 15.68823879 -4.45322589 15.52572226 -8 15 C-9.9375 13.9375 -9.9375 13.9375 -11 12 C-11.82343428 8.51623959 -12.35892433 6.04916342 -11.1875 2.625 C-8.52426625 -1.01942513 -4.11335398 -0.70584181 0 0 Z " fill="currentColor" transform="translate(336,242)"/>
<path d="M0 0 C2.5625 2.0625 2.5625 2.0625 4 5 C3.94021398 8.46758942 3.60965977 10.88826749 1.9375 13.9375 C-1.25502367 15.68823879 -4.45322589 15.52572226 -8 15 C-9.9375 13.9375 -9.9375 13.9375 -11 12 C-11.82343428 8.51623959 -12.35892433 6.04916342 -11.1875 2.625 C-8.52426625 -1.01942513 -4.11335398 -0.70584181 0 0 Z " fill="currentColor" transform="translate(336,211)"/>
<path d="M0 0 C2.5625 2.0625 2.5625 2.0625 4 5 C3.94021398 8.46758942 3.60965977 10.88826749 1.9375 13.9375 C-1.25502367 15.68823879 -4.45322589 15.52572226 -8 15 C-9.9375 13.9375 -9.9375 13.9375 -11 12 C-11.82343428 8.51623959 -12.35892433 6.04916342 -11.1875 2.625 C-8.52426625 -1.01942513 -4.11335398 -0.70584181 0 0 Z " fill="currentColor" transform="translate(336,180)"/>
<path d="M0 0 C2.51605026 0.04951083 3.83817977 0.09271148 6.0625 1.3125 C7.68769287 4.27608699 7.94857605 6.89794489 8.125 10.25 C7.16857118 13.04571502 6.77201022 13.92649489 4.125 15.25 C-3.08644674 15.70786963 -3.08644674 15.70786963 -5.8125 14.125 C-7.34349826 11.42323836 -7.7507742 9.35564495 -7.875 6.25 C-4.97640637 0.32105848 -4.97640637 0.32105848 0 0 Z " fill="currentColor" transform="translate(358.875,458.75)"/>
<path d="M0 0 C2.51605026 0.04951083 3.83817977 0.09271148 6.0625 1.3125 C7.68769287 4.27608699 7.94857605 6.89794489 8.125 10.25 C7.16857118 13.04571502 6.77201022 13.92649489 4.125 15.25 C-3.08644674 15.70786963 -3.08644674 15.70786963 -5.8125 14.125 C-7.34349826 11.42323836 -7.7507742 9.35564495 -7.875 6.25 C-4.97640637 0.32105848 -4.97640637 0.32105848 0 0 Z " fill="currentColor" transform="translate(358.875,427.75)"/>
<path d="M0 0 C2.51605026 0.04951083 3.83817977 0.09271148 6.0625 1.3125 C7.68769287 4.27608699 7.94857605 6.89794489 8.125 10.25 C7.16857118 13.04571502 6.77201022 13.92649489 4.125 15.25 C-3.08644674 15.70786963 -3.08644674 15.70786963 -5.8125 14.125 C-7.34349826 11.42323836 -7.7507742 9.35564495 -7.875 6.25 C-4.97640637 0.32105848 -4.97640637 0.32105848 0 0 Z " fill="currentColor" transform="translate(358.875,396.75)"/>
<path d="M0 0 C2.51605026 0.04951083 3.83817977 0.09271148 6.0625 1.3125 C7.68769287 4.27608699 7.94857605 6.89794489 8.125 10.25 C7.16857118 13.04571502 6.77201022 13.92649489 4.125 15.25 C-3.08644674 15.70786963 -3.08644674 15.70786963 -5.8125 14.125 C-7.34349826 11.42323836 -7.7507742 9.35564495 -7.875 6.25 C-4.97640637 0.32105848 -4.97640637 0.32105848 0 0 Z " fill="currentColor" transform="translate(358.875,365.75)"/>
<path d="M0 0 C2.51605026 0.04951083 3.83817977 0.09271148 6.0625 1.3125 C7.68769287 4.27608699 7.94857605 6.89794489 8.125 10.25 C7.16857118 13.04571502 6.77201022 13.92649489 4.125 15.25 C-3.08644674 15.70786963 -3.08644674 15.70786963 -5.8125 14.125 C-7.34349826 11.42323836 -7.7507742 9.35564495 -7.875 6.25 C-4.97640637 0.32105848 -4.97640637 0.32105848 0 0 Z " fill="currentColor" transform="translate(358.875,334.75)"/>
<path d="M0 0 C2.51605026 0.04951083 3.83817977 0.09271148 6.0625 1.3125 C7.68769287 4.27608699 7.94857605 6.89794489 8.125 10.25 C7.16857118 13.04571502 6.77201022 13.92649489 4.125 15.25 C-3.08644674 15.70786963 -3.08644674 15.70786963 -5.8125 14.125 C-7.34349826 11.42323836 -7.7507742 9.35564495 -7.875 6.25 C-4.97640637 0.32105848 -4.97640637 0.32105848 0 0 Z " fill="currentColor" transform="translate(358.875,303.75)"/>
<path d="M0 0 C2.51605026 0.04951083 3.83817977 0.09271148 6.0625 1.3125 C7.68769287 4.27608699 7.94857605 6.89794489 8.125 10.25 C7.16857118 13.04571502 6.77201022 13.92649489 4.125 15.25 C-3.08644674 15.70786963 -3.08644674 15.70786963 -5.8125 14.125 C-7.34349826 11.42323836 -7.7507742 9.35564495 -7.875 6.25 C-4.97640637 0.32105848 -4.97640637 0.32105848 0 0 Z " fill="currentColor" transform="translate(358.875,272.75)"/>
<path d="M0 0 C2.51605026 0.04951083 3.83817977 0.09271148 6.0625 1.3125 C7.68769287 4.27608699 7.94857605 6.89794489 8.125 10.25 C7.16857118 13.04571502 6.77201022 13.92649489 4.125 15.25 C-3.08644674 15.70786963 -3.08644674 15.70786963 -5.8125 14.125 C-7.34349826 11.42323836 -7.7507742 9.35564495 -7.875 6.25 C-4.97640637 0.32105848 -4.97640637 0.32105848 0 0 Z " fill="currentColor" transform="translate(358.875,241.75)"/>
<path d="M0 0 C2.51605026 0.04951083 3.83817977 0.09271148 6.0625 1.3125 C7.68769287 4.27608699 7.94857605 6.89794489 8.125 10.25 C7.16857118 13.04571502 6.77201022 13.92649489 4.125 15.25 C-3.08644674 15.70786963 -3.08644674 15.70786963 -5.8125 14.125 C-7.34349826 11.42323836 -7.7507742 9.35564495 -7.875 6.25 C-4.97640637 0.32105848 -4.97640637 0.32105848 0 0 Z " fill="currentColor" transform="translate(358.875,210.75)"/>
<path d="M0 0 C2.51605026 0.04951083 3.83817977 0.09271148 6.0625 1.3125 C7.68769287 4.27608699 7.94857605 6.89794489 8.125 10.25 C7.16857118 13.04571502 6.77201022 13.92649489 4.125 15.25 C-3.08644674 15.70786963 -3.08644674 15.70786963 -5.8125 14.125 C-7.34349826 11.42323836 -7.7507742 9.35564495 -7.875 6.25 C-4.97640637 0.32105848 -4.97640637 0.32105848 0 0 Z " fill="currentColor" transform="translate(358.875,179.75)"/>
</svg>
