<?xml version="1.0" encoding="UTF-8"?>
<svg version="1.1" xmlns="http://www.w3.org/2000/svg" width="512" height="512">
<path d="M0 0 C0.84653641 -0.00979385 1.69307281 -0.01958771 2.56526184 -0.02967834 C22.01168898 -0.20815114 40.78826093 0.1136321 59.8828125 4.23828125 C60.87716309 4.45258789 61.87151367 4.66689453 62.89599609 4.88769531 C101.54620599 13.53537295 137.6246048 31.91535403 166.54296875 59.05078125 C168.60605834 60.97954615 170.71796492 62.80125591 172.8828125 64.61328125 C213.44987947 100.16089369 237.19613525 156.3551073 241.8828125 209.23828125 C242.03806596 212.27752952 242.09177661 215.31262243 242.12109375 218.35546875 C242.1308876 219.20200516 242.14068146 220.04854156 242.15077209 220.92073059 C242.32924489 240.36715773 242.00746165 259.14372968 237.8828125 278.23828125 C237.56135254 279.72980713 237.56135254 279.72980713 237.23339844 281.25146484 C228.15201373 321.84009912 208.35073233 358.07211816 179.8828125 388.23828125 C177.94590961 390.4151544 176.03174165 392.60925547 174.125 394.8125 C173.40169262 395.64271131 172.6614088 396.45968495 171.8828125 397.23828125 C171.43138014 400.88388205 171.06512164 404.52872078 170.72070312 408.18554688 C170.19488346 413.37106931 169.25963022 418.2091521 167.8828125 423.23828125 C168.52347656 423.79515625 169.16414063 424.35203125 169.82421875 424.92578125 C185.34426925 438.61858289 194.22513839 453.45548362 196.8828125 474.23828125 C197.10650034 478.71851737 197.15244551 483.19644544 197.17797852 487.68139648 C197.18954998 489.09621134 197.21008282 490.51098082 197.23950195 491.92553711 C197.28230145 493.98971635 197.29835441 496.05261911 197.30859375 498.1171875 C197.33046753 499.95132202 197.33046753 499.95132202 197.3527832 501.82250977 C196.79201413 505.89820849 195.43659243 508.05281591 192.8828125 511.23828125 C190.18197215 512.58870142 188.08535807 512.36879057 185.05966473 512.37529564 C183.81171051 512.38037018 182.56375629 512.38544472 181.27798527 512.39067304 C179.8802851 512.39127477 178.48258488 512.39177383 177.08488464 512.3921814 C175.61004228 512.3961945 174.13520103 512.40063247 172.66036111 512.40546095 C168.59277025 512.41744909 164.52519125 512.42308007 160.45758617 512.42764211 C156.07642705 512.43358964 151.6952822 512.44520152 147.31413269 512.45593262 C136.7267961 512.48047481 126.13945478 512.49508576 115.55209848 512.50799268 C112.56340653 512.51170308 109.57471505 512.51567642 106.58602357 512.51974535 C88.0391535 512.54497861 69.49228273 512.56703855 50.94539928 512.5794735 C46.64776291 512.58240334 42.35012655 512.58536498 38.05249023 512.58837891 C36.45019393 512.58949798 36.45019393 512.58949798 34.81552801 512.59063967 C17.50162497 512.60330011 0.18782447 512.63653147 -17.1260306 512.67818074 C-34.88878369 512.72056077 -52.65148422 512.74416392 -70.41428775 512.74939406 C-80.39277093 512.75281248 -90.37109383 512.76461842 -100.34952736 512.7974968 C-108.8455659 512.82544441 -117.34141132 512.83651994 -125.83749226 512.82530133 C-130.17437559 512.82010121 -134.51085415 512.8230887 -138.84767914 512.84776688 C-142.81601328 512.8701603 -146.78364961 512.86959764 -150.75199517 512.850563 C-152.18944023 512.84774898 -153.62693162 512.85343902 -155.06430183 512.86837594 C-157.01495125 512.88741133 -158.96584313 512.87273573 -160.9165163 512.85631371 C-162.00105258 512.85767023 -163.08558886 512.85902676 -164.20298988 512.8604244 C-168.08988161 512.03062376 -169.59861077 510.23327179 -172.1171875 507.23828125 C-174.24015296 502.99235034 -173.34432937 497.37841175 -173.35742188 492.66674805 C-173.3669439 490.60356368 -173.39786962 488.54145794 -173.4296875 486.47851562 C-173.59253062 466.18137078 -168.343276 446.55377628 -153.84814453 431.65454102 C-150.74408517 428.55508708 -147.77257701 425.67520759 -144.1171875 423.23828125 C-144.32214844 422.53445313 -144.52710938 421.830625 -144.73828125 421.10546875 C-146.33164421 415.26567913 -147.24370717 409.98931519 -147.3671875 403.92578125 C-147.62112848 399.29897668 -147.87732169 396.64589479 -151.2421875 393.36328125 C-152.5269248 392.31308017 -153.81865786 391.27137998 -155.1171875 390.23828125 C-156.2505134 389.03594722 -157.35418648 387.80510667 -158.4296875 386.55078125 C-159.00847656 385.87660156 -159.58726562 385.20242188 -160.18359375 384.5078125 C-160.82167969 383.75886719 -161.45976562 383.00992187 -162.1171875 382.23828125 C-162.86871094 381.37589844 -163.62023437 380.51351563 -164.39453125 379.625 C-189.02926233 350.86502169 -205.80104571 316.22459712 -213.9921875 279.30078125 C-214.18337158 278.43912354 -214.37455566 277.57746582 -214.5715332 276.68969727 C-217.7380536 261.36017388 -218.4937957 246.15787944 -218.4296875 230.55078125 C-218.42786469 229.62729889 -218.42604187 228.70381653 -218.42416382 227.75234985 C-218.37866474 214.05030913 -217.94046828 200.69086988 -215.1171875 187.23828125 C-214.94558105 186.38685547 -214.77397461 185.53542969 -214.59716797 184.65820312 C-207.34528333 149.42920857 -192.66558995 116.37168542 -170.1171875 88.23828125 C-169.36824219 87.27535156 -168.61929688 86.31242187 -167.84765625 85.3203125 C-156.33168128 70.7831107 -156.33168128 70.7831107 -149.4296875 69.61328125 C-145.20470058 70.41044859 -142.42476176 71.49484891 -139.8046875 74.98828125 C-138.43575035 79.46843919 -138.43658321 82.9337897 -140.6171875 87.11328125 C-143.15945363 90.50595331 -146.09832632 93.57887777 -148.9453125 96.71484375 C-152.63424157 101.00090163 -155.86785144 105.61489084 -159.1171875 110.23828125 C-156.77545437 112.58001438 -156.02447716 112.57081447 -152.828125 112.9140625 C-151.96832031 113.02041016 -151.10851562 113.12675781 -150.22265625 113.23632812 C-148.42678433 113.44314885 -146.62989099 113.64131605 -144.83203125 113.83007812 C-137.65145347 114.74232092 -132.38041028 116.95474796 -127.234375 122.1328125 C-124.90288976 125.73268437 -123.11620613 128.9569929 -122.08203125 133.1328125 C-120.2435358 140.82651937 -120.2435358 140.82651937 -115.18798828 146.56298828 C-110.4544712 148.8420891 -105.45900116 150.24791926 -100.39648438 151.60302734 C-83.56101007 156.29517646 -65.54652992 166.13697397 -56.1171875 181.23828125 C-51.38912157 189.67439889 -49.74248882 197.6153905 -51.1171875 207.23828125 C-52.97805887 213.57207279 -56.16942773 218.35749791 -61.71875 221.98828125 C-72.77363624 227.74978548 -85.71271102 229.22162755 -97.9140625 226.6484375 C-105.5311929 223.71773307 -111.58899698 217.09016688 -116.9296875 211.11328125 C-118.99475797 208.90060423 -118.99475797 208.90060423 -121.9296875 209.42578125 C-123.0125 209.82796875 -123.0125 209.82796875 -124.1171875 210.23828125 C-125.32165727 214.41181112 -124.9286763 216.51242943 -123.0625 220.3984375 C-122.61261719 221.35685547 -122.16273437 222.31527344 -121.69921875 223.30273438 C-120.97798828 224.78676758 -120.97798828 224.78676758 -120.2421875 226.30078125 C-119.30446424 228.26948908 -118.36945566 230.23949283 -117.4375 232.2109375 C-117.01742676 233.07984619 -116.59735352 233.94875488 -116.16455078 234.84399414 C-113.45106216 241.04706708 -113.39904494 247.56753481 -114.1171875 254.23828125 C-115.34877219 257.332022 -117.01483994 259.67757303 -119.1171875 262.23828125 C-119.6946875 263.12515625 -120.2721875 264.01203125 -120.8671875 264.92578125 C-126.05960143 270.2624289 -132.21991763 272.99606697 -139.64453125 273.36328125 C-151.88568716 272.74445504 -160.05627928 263.64643041 -167.95629883 255.23852539 C-169.84866123 253.26587903 -171.59976112 251.50751124 -174.0390625 250.23828125 C-177.3353736 250.23828125 -179.99785665 251.43230711 -183.0546875 252.61328125 C-187.07441475 254.15238537 -190.86212421 255.5439066 -195.1171875 256.23828125 C-191.63307998 298.16771318 -171.63135757 336.36486404 -145.1171875 368.23828125 C-142.76905548 365.33823786 -140.51746157 362.41161095 -138.3671875 359.36328125 C-130.69744476 349.20708824 -120.63376836 343.32870064 -108 341.45703125 C-94.407134 340.42559426 -83.31970001 343.82288701 -72.5625 352.09765625 C-64.65039942 359.02390405 -58.58371656 369.58163724 -57.8425293 380.15722656 C-57.82274443 381.62684575 -57.814613 383.09665499 -57.81640625 384.56640625 C-57.81212112 385.35545349 -57.807836 386.14450073 -57.80342102 386.9574585 C-57.79770019 388.62153163 -57.79716082 390.28562976 -57.80151367 391.94970703 C-57.80466079 394.46691727 -57.78123201 396.98293582 -57.75585938 399.5 C-57.72456886 407.82885288 -57.81832836 415.42486536 -61.1171875 423.23828125 C-59.1371875 424.88828125 -57.1571875 426.53828125 -55.1171875 428.23828125 C-51.63196994 426.78418386 -49.81069551 424.95091889 -47.4296875 422.05078125 C-43.44098922 417.40856743 -39.03886188 413.837219 -34.1171875 410.23828125 C-34.40013672 409.5326001 -34.68308594 408.82691895 -34.97460938 408.09985352 C-38.37398417 398.59400074 -38.73508511 389.83626652 -38.63867188 379.8269043 C-38.61718922 377.17599343 -38.63859024 374.5277831 -38.6640625 371.87695312 C-38.6905551 355.87401799 -35.16588907 342.78540586 -24.2421875 330.61328125 C-14.31414021 321.18749605 -1.21091008 316.29517935 12.34765625 316.21875 C26.92265265 316.80428189 40.01281956 322.3444178 50.0703125 333.05078125 C60.43475705 345.55959364 62.55536922 358.79759465 62.40429688 374.51928711 C62.38287471 377.16808909 62.40417423 379.81417137 62.4296875 382.46289062 C62.44370195 392.44643496 61.63898361 400.87031349 57.8828125 410.23828125 C58.75164062 410.95113281 59.62046875 411.66398437 60.515625 412.3984375 C66.47668889 417.33622425 72.10697288 422.09791603 76.8828125 428.23828125 C80.21041173 426.68633371 82.36861735 424.93206176 84.8828125 422.23828125 C84.67785156 421.69300781 84.47289062 421.14773438 84.26171875 420.5859375 C78.79844407 405.29399642 78.39789629 383.37428344 84.7578125 368.30078125 C86.51688238 364.73703597 88.5427036 361.45593099 90.8828125 358.23828125 C91.4190625 357.43390625 91.9553125 356.62953125 92.5078125 355.80078125 C101.28444331 346.33125853 112.73530387 341.74965473 125.48828125 341.14453125 C137.90574428 341.48747614 149.08387902 345.46245976 158.1953125 353.98828125 C162.21068067 358.26030182 165.10348069 363.10072851 167.8828125 368.23828125 C199.20778402 338.87112045 217.86748817 289.15153382 220.00292969 246.859375 C220.11313862 242.64614164 220.05749662 238.45010952 219.8828125 234.23828125 C219.34914063 234.45484375 218.81546875 234.67140625 218.265625 234.89453125 C211.29710841 237.49868278 204.56747208 238.73943886 197.5078125 235.86328125 C193.08544897 235.10080478 191.98853208 235.99213989 188.1328125 238.11328125 C182.15224452 241.35710553 177.61668836 242.52563987 170.8828125 241.23828125 C157.93454393 237.14319631 150.8909133 226.26997869 143.95556641 215.35864258 C143.47007324 214.5983374 142.98458008 213.83803223 142.484375 213.0546875 C141.83976318 212.02516968 141.83976318 212.02516968 141.18212891 210.97485352 C139.82357484 208.95763758 139.82357484 208.95763758 136.8828125 207.23828125 C136.58213867 208.06066284 136.58213867 208.06066284 136.27539062 208.8996582 C125.86034932 237.03621111 125.86034932 237.03621111 111.8828125 244.23828125 C105.49466495 247.02816668 99.54857994 248.02525895 92.83203125 246.01953125 C86.82083372 243.61023364 83.48499403 240.31030657 80.72167969 234.51660156 C79.02286797 229.90271597 79.01278711 225.08222299 78.75 220.21679688 C78.26050297 213.6245488 76.71500794 209.19542648 72.0234375 204.296875 C71.39953125 203.76191406 70.775625 203.22695312 70.1328125 202.67578125 C64.66895041 197.4686796 61.19681868 190.95443207 57.8828125 184.23828125 C57.8828125 183.57828125 57.8828125 182.91828125 57.8828125 182.23828125 C56.32433594 182.32529297 56.32433594 182.32529297 54.734375 182.4140625 C44.59448359 182.81468989 37.25624949 182.17113096 29.453125 175.0078125 C27.93169541 173.47890047 26.43959171 171.91984338 24.98828125 170.32421875 C21.69685207 167.06332231 19.35603693 165.32368556 14.6484375 165.05078125 C13.48828125 165.11265625 12.328125 165.17453125 11.1328125 165.23828125 C4.06946262 165.35637278 -1.72375176 165.25965787 -7.18359375 160.3984375 C-13.21746899 153.85259709 -13.48726539 148.83622939 -13.38671875 140.04296875 C-12.71539287 130.56657148 -9.99396683 122.77408101 -3.2421875 115.97265625 C-0.03195318 113.35253853 2.88317223 112.18862313 6.8828125 111.23828125 C7.89472656 110.98691406 8.90664062 110.73554687 9.94921875 110.4765625 C12.04352207 109.95991728 14.14235568 109.46115046 16.24609375 108.984375 C19.08103126 108.32800147 19.08103126 108.32800147 21.8828125 106.23828125 C22.5571527 104.09415479 22.5571527 104.09415479 22.796875 101.58984375 C22.91804687 100.666875 23.03921875 99.74390625 23.1640625 98.79296875 C23.33421875 97.34277344 23.33421875 97.34277344 23.5078125 95.86328125 C23.74835327 93.95942664 23.99048171 92.05577179 24.234375 90.15234375 C24.33572754 89.30623535 24.43708008 88.46012695 24.54150391 87.58837891 C24.85684114 85.41710836 25.30856053 83.35404277 25.8828125 81.23828125 C24.96169678 80.88431274 24.96169678 80.88431274 24.02197266 80.52319336 C-6.22285529 68.80296755 -6.22285529 68.80296755 -15.0546875 53.98828125 C-16.69876027 48.18567148 -17.80508076 41.54018692 -14.95703125 35.96875 C-13.5546875 33.98828125 -13.5546875 33.98828125 -12.11328125 32.34765625 C-10.49248379 28.91537927 -11.47895146 25.92247014 -12.1171875 22.23828125 C-32.07312136 25.74634419 -51.28420821 29.87811942 -69.85546875 38.13671875 C-74.52342929 39.71320363 -78.39216958 40.00495588 -82.9296875 37.98828125 C-86.44121235 35.17906137 -86.97890057 33.30506614 -87.5546875 28.86328125 C-87.01959868 24.42968817 -85.38366426 22.12111951 -82.1171875 19.23828125 C-79.23720494 17.56090894 -76.2379185 16.39399549 -73.1171875 15.23828125 C-72.23780518 14.9021582 -71.35842285 14.56603516 -70.45239258 14.21972656 C-48.02648125 5.84356814 -24.02251239 0.2314515 0 0 Z M9.8828125 20.23828125 C9.94082031 21.12128906 9.99882812 22.00429688 10.05859375 22.9140625 C10.38603094 31.62389185 9.21153561 37.6630158 4.8828125 45.23828125 C9.94964465 53.12002016 18.67847403 55.57310255 27.04296875 58.890625 C41.40881969 64.69968531 41.40881969 64.69968531 45.8828125 72.23828125 C46.88406023 75.24202443 47.04837123 77.34629207 47.0703125 80.48828125 C47.08449219 81.4009375 47.09867187 82.31359375 47.11328125 83.25390625 C46.8828125 86.23828125 46.8828125 86.23828125 45.92578125 89.57421875 C44.77305382 93.62387542 44.37816214 97.43898546 44.0078125 101.61328125 C43.13497886 109.80768003 41.93642458 116.68529166 35.6953125 122.55078125 C29.82837934 127.05042067 23.683641 129.11579231 16.5078125 130.61328125 C11.85232316 131.64419819 11.85232316 131.64419819 8.6328125 135.11328125 C7.941836 137.99235001 7.82312864 140.30382481 7.8828125 143.23828125 C8.70523438 143.2640625 9.52765625 143.28984375 10.375 143.31640625 C21.81786693 143.89779903 30.21282812 146.67434426 38.8828125 154.23828125 C39.44742188 154.86734375 40.01203125 155.49640625 40.59375 156.14453125 C44.40029773 160.20041616 47.08766184 161.57474481 52.74682617 161.87060547 C54.16876962 161.90733643 55.59081759 161.94022537 57.01293945 161.96923828 C64.37239801 162.14745016 68.37315402 163.78698692 73.5703125 168.86328125 C75.50826691 171.40884513 76.79288084 174.09039516 78.1328125 176.98828125 C80.5537581 182.08219518 83.83031582 185.71409593 87.66796875 189.80078125 C97.29930996 200.40035253 99.33680617 211.43335412 100.8828125 225.23828125 C108.23501693 221.88928982 111.13512765 215.44106006 113.8828125 208.23828125 C114.16511719 207.34496094 114.44742188 206.45164063 114.73828125 205.53125 C117.00832441 198.44356066 120.14243047 193.10210588 125.8828125 188.23828125 C131.35807096 185.46498258 136.88387314 185.40052413 142.8828125 186.23828125 C153.88608194 190.4775012 159.61828333 199.68124093 165.60644531 209.21118164 C168.33793978 213.51334414 170.83154555 217.12916941 174.8828125 220.23828125 C178.39400615 219.89012492 181.00269263 218.08463097 183.9453125 216.23828125 C189.13810568 212.98985725 192.66973512 211.81705566 198.8828125 212.23828125 C202.1328125 213.67578125 202.1328125 213.67578125 204.8828125 215.23828125 C207.89601007 216.60743914 207.89601007 216.60743914 210.80078125 215.0234375 C212.41919922 214.17072266 212.41919922 214.17072266 214.0703125 213.30078125 C215.15699219 212.73488281 216.24367188 212.16898438 217.36328125 211.5859375 C218.61044922 210.91884766 218.61044922 210.91884766 219.8828125 210.23828125 C221.45477556 167.49102782 195.86026329 120.69192726 167.54296875 90.02734375 C157.26028885 79.24638421 146.99687351 68.96218766 134.8828125 60.23828125 C134.32368164 59.8294873 133.76455078 59.42069336 133.18847656 58.99951172 C97.78767062 33.36689378 53.54152806 19.45084951 9.8828125 20.23828125 Z M-172.1171875 129.23828125 C-189.33229104 163.05745188 -198.59123417 197.15653204 -198.1171875 235.23828125 C-196.07524415 234.6141858 -194.03364535 233.98896296 -191.9921875 233.36328125 C-190.85523438 233.01523438 -189.71828125 232.6671875 -188.546875 232.30859375 C-186.33826733 231.61934717 -184.1400796 230.89526686 -181.95703125 230.12890625 C-175.24458461 228.0237648 -169.55022718 228.87593456 -163.30859375 231.98046875 C-157.02339938 235.58801347 -152.37088911 239.88063117 -147.7109375 245.3984375 C-145.69728847 247.72301763 -143.73452125 249.61129 -141.1171875 251.23828125 C-138.06527372 251.06388618 -137.30460235 250.4256961 -135.1171875 248.23828125 C-135.336378 242.40233426 -138.1675205 237.35951932 -140.6171875 232.17578125 C-141.44500063 230.41635799 -142.26808424 228.65470007 -143.0859375 226.890625 C-143.45138672 226.11710693 -143.81683594 225.34358887 -144.19335938 224.54663086 C-146.8236818 217.97430039 -147.31138599 210.30438148 -145.31640625 203.51171875 C-142.02612772 196.02661776 -137.13760863 192.47999731 -129.81640625 189.2109375 C-124.27412883 187.13377999 -118.6995915 185.84330492 -112.98046875 188.0703125 C-110.97798171 189.05860093 -109.05203663 190.12452356 -107.1171875 191.23828125 C-106.42109375 191.52960938 -105.725 191.8209375 -105.0078125 192.12109375 C-102.63951432 193.52054268 -102.2698199 194.77543 -101.1171875 197.23828125 C-99.83342638 198.679838 -98.4959976 200.0748515 -97.1171875 201.42578125 C-96.4159375 202.12058594 -95.7146875 202.81539063 -94.9921875 203.53125 C-91.09423287 207.08001286 -87.24992003 206.4970429 -82.18359375 206.47265625 C-78.19892276 206.16809541 -75.60026695 205.13814277 -72.1171875 203.23828125 C-72.14474336 197.28621577 -73.08111075 192.89598489 -76.9453125 188.27734375 C-86.39048542 179.40975334 -98.17758188 174.76908748 -110.19140625 170.50146484 C-131.37190023 162.96986128 -131.37190023 162.96986128 -137.1171875 153.23828125 C-138.31237556 150.53234839 -139.32140146 147.77723801 -140.3046875 144.98828125 C-142.02212347 140.03426383 -142.02212347 140.03426383 -144.1171875 135.23828125 C-147.22086676 134.75726823 -150.29524345 134.45439233 -153.42382812 134.203125 C-159.98478881 133.54266742 -165.93390343 131.46533083 -172.1171875 129.23828125 Z M-9.1171875 346.23828125 C-19.59832661 357.90728279 -18.66615068 372.42262184 -18.1171875 387.23828125 C-17.48473678 395.66750145 -14.35583734 403.15438942 -8.19140625 409.09375 C-6.23197477 410.63466214 -4.25575054 411.96020511 -2.1171875 413.23828125 C-1.0859375 413.85703125 -0.0546875 414.47578125 1.0078125 415.11328125 C7.71197028 417.6330672 15.53486479 417.33482162 22.24609375 415.13671875 C30.89763814 411.10723232 36.26303144 405.90954201 40.04492188 397.17504883 C41.68549191 391.42492734 41.47058091 385.46231422 41.40429688 379.52734375 C41.38285125 377.24241013 41.40416955 374.96061933 41.4296875 372.67578125 C41.45168186 361.54481706 39.71359234 353.33688912 31.921875 345.03125 C19.54113142 334.14473409 2.6154157 335.03440051 -9.1171875 346.23828125 Z M-122.1171875 372.23828125 C-126.59055067 379.4472399 -126.72678591 386.4362018 -126.6171875 394.73828125 C-126.63265625 395.91003906 -126.648125 397.08179688 -126.6640625 398.2890625 C-126.62604661 406.75710128 -125.49585099 413.21460019 -119.96875 419.796875 C-113.42951582 425.31507086 -108.43975206 427.82210811 -99.7734375 427.61328125 C-92.47948374 426.5835466 -86.65466927 422.70839827 -82.23046875 416.92578125 C-76.11216927 407.6517273 -76.81286914 391.72232885 -78.8671875 381.05078125 C-80.781354 374.18618414 -85.26112968 369.1232198 -91.1171875 365.23828125 C-102.47424699 360.03702073 -114.13247851 362.15053327 -122.1171875 372.23828125 Z M106.8828125 372.23828125 C100.03769649 382.4861717 100.68754147 396.97821284 102.5078125 408.80078125 C104.18629025 415.65456541 108.21229251 420.3998936 114.0703125 424.17578125 C120.18916775 427.73606192 126.37603406 428.335326 133.2578125 426.66015625 C139.63087174 424.22600168 144.0939529 419.85342569 147.8828125 414.23828125 C150.38668812 407.81480313 150.28716585 401.80175976 150.3203125 394.98828125 C150.35318359 393.81136719 150.38605469 392.63445312 150.41992188 391.421875 C150.47271324 382.79288713 149.02817084 375.9371169 143.20239258 369.33349609 C138.50358887 364.7450547 132.78084442 362.82298604 126.3828125 361.86328125 C118.29470954 363.07649669 112.33126791 366.05021651 106.8828125 372.23828125 Z M-30.1171875 434.23828125 C-46.41056358 451.13178168 -48.1171875 469.58297954 -48.1171875 492.23828125 C-8.8471875 492.23828125 30.4228125 492.23828125 70.8828125 492.23828125 C70.8828125 467.16339154 70.33874889 451.43277383 53.1328125 434.17578125 C50.447973 431.56218749 48.0009833 429.31706178 44.8828125 427.23828125 C40.27792986 427.7204164 36.16261718 430.62718111 32.1484375 432.765625 C19.91101179 438.28417702 5.17226583 437.8672364 -7.3359375 433.4609375 C-10.64623746 432.00570732 -13.60533288 430.31237674 -16.53125 428.19140625 C-21.73390533 425.06468728 -26.4820524 430.95779348 -30.1171875 434.23828125 Z M-130.1171875 439.23828125 C-142.70185846 449.96436202 -149.35018269 459.6362524 -152.1171875 476.23828125 C-152.1171875 481.51828125 -152.1171875 486.79828125 -152.1171875 492.23828125 C-124.3971875 492.23828125 -96.6771875 492.23828125 -68.1171875 492.23828125 C-67.7871875 482.99828125 -67.4571875 473.75828125 -67.1171875 464.23828125 C-65.0546875 455.48828125 -65.0546875 455.48828125 -64.234375 452.1171875 C-63.86355595 449.16288136 -63.86355595 449.16288136 -65.5625 446.640625 C-68.71215881 443.34568672 -71.99669047 441.15370504 -76.1171875 439.23828125 C-76.8390625 439.81578125 -77.5609375 440.39328125 -78.3046875 440.98828125 C-88.45979199 447.63180755 -101.20825832 448.84238207 -112.9375 446.73046875 C-119.02672335 445.06977147 -124.57792988 442.22005184 -130.1171875 439.23828125 Z M98.8828125 439.23828125 C97.22769002 440.64408401 95.58399044 442.06334391 93.9453125 443.48828125 C93.02878906 444.2771875 92.11226563 445.06609375 91.16796875 445.87890625 C88.53749771 448.20080753 88.53749771 448.20080753 87.8828125 452.23828125 C88.8728125 456.19828125 89.8628125 460.15828125 90.8828125 464.23828125 C91.2128125 473.47828125 91.5428125 482.71828125 91.8828125 492.23828125 C119.6028125 492.23828125 147.3228125 492.23828125 175.8828125 492.23828125 C175.8828125 471.70235582 173.75477828 459.29377308 160.12890625 444.33203125 C157.75807606 442.1220052 155.8913016 440.4757179 152.8828125 439.23828125 C150.15618653 440.11928629 150.15618653 440.11928629 147.5703125 441.92578125 C137.43953213 447.91276301 126.85575484 448.91044429 115.26953125 446.48046875 C109.3389061 444.74300763 104.06161759 442.61052643 98.8828125 439.23828125 Z " fill="#000000" transform="translate(244.1171875,-0.23828125)"/>
<path d="M0 0 C2.875 1.5 2.875 1.5 5 4 C6.30813622 8.32007948 6.52657854 11.76254044 4.75 15.9375 C2.7297043 18.31856279 1.06245731 19.82889264 -2.0859375 20.3359375 C-6.21467052 20.40639369 -8.41215089 20.3674057 -12 18.125 C-15.03852976 14.89656213 -15.39599524 12.55527784 -15.35546875 8.10546875 C-14.72046773 4.34430885 -12.72377681 2.59708952 -10 0 C-6.18323682 -1.27225439 -3.91280349 -0.87700768 0 0 Z " fill="#000000" transform="translate(133,41)"/>
</svg>
