<?xml version="1.0" encoding="UTF-8"?>
<svg version="1.1" xmlns="http://www.w3.org/2000/svg" width="512" height="512">
<path d="M0 0 C3.02508145 1.73602105 5.41790069 3.83580137 7 7 C7.28494485 13.82271274 6.51615585 20.15848742 5.36352539 26.87231445 C5.18956741 27.92058914 5.01560944 28.96886383 4.83638 30.04890442 C4.26380756 33.4882423 3.68087583 36.92573423 3.09765625 40.36328125 C2.69589568 42.76212326 2.29473589 45.16106596 1.89414978 47.56010437 C1.05532845 52.57475488 0.21183031 57.58858665 -0.63549805 62.60180664 C-1.72219598 69.03132562 -2.80115898 75.46210996 -3.87714291 81.89342976 C-4.90396484 88.0296188 -5.93408678 94.16525215 -6.96484375 100.30078125 C-7.25981404 102.05814322 -7.25981404 102.05814322 -7.56074333 103.85100746 C-8.11674559 107.15919656 -8.67503147 110.4669913 -9.23413086 113.7746582 C-9.39884888 114.75601746 -9.56356689 115.73737671 -9.73327637 116.74847412 C-9.96252052 118.1003054 -9.96252052 118.1003054 -10.19639587 119.47944641 C-10.32821227 120.26049901 -10.46002867 121.04155161 -10.5958395 121.84627247 C-10.98563708 123.92346153 -11.46470013 125.9559568 -12 128 C-11.06118988 127.98889694 -10.12237976 127.97779388 -9.15512085 127.96635437 C-0.29797923 127.86489678 8.55904415 127.7899957 17.41663551 127.74093914 C21.97022386 127.71487033 26.52334226 127.67952248 31.07666016 127.62280273 C35.47278827 127.56838519 39.86846503 127.53855902 44.26490402 127.52561378 C45.94025145 127.5163913 47.6155748 127.49838144 49.29072952 127.47134972 C51.64178651 127.4349277 53.99099041 127.43005982 56.34228516 127.43237305 C57.03136963 127.41439667 57.7204541 127.39642029 58.43041992 127.37789917 C63.97807409 127.43676812 66.23546932 129.22726613 70 133 C71.61818606 136.23637213 71.48828861 139.49484138 71 143 C69.87349935 145.75844621 68.30848969 148.11264561 66.625 150.5625 C66.03525391 151.46452148 66.03525391 151.46452148 65.43359375 152.38476562 C63.97541192 154.60344536 62.4870686 156.80056701 61 159 C59.4527242 161.31268628 57.90692839 163.62630127 56.36328125 165.94140625 C55.93543839 166.58289108 55.50759552 167.22437592 55.06678772 167.88529968 C50.38463353 174.91236761 45.74456451 181.96697457 41.10748291 189.02383423 C38.37344084 193.18451852 35.63772769 197.34410409 32.90234375 201.50390625 C32.33443115 202.36765366 31.76651855 203.23140106 31.18139648 204.12132263 C25.00053739 213.52141555 18.81307044 222.91715337 12.625 232.3125 C11.49356769 234.03043404 10.36213866 235.74837025 9.23071289 237.46630859 C6.95625224 240.91978203 4.68175067 244.37322852 2.40722656 247.82666016 C-1.54440629 253.82651785 -5.49582395 259.82651727 -9.44683838 265.82678223 C-12.23924358 270.06744155 -15.03214539 274.30777196 -17.82617188 278.54736328 C-23.10203583 286.55400128 -28.37250712 294.56405693 -33.62652588 302.58505249 C-36.1092593 306.37465799 -38.59468485 310.16249413 -41.08032227 313.95019531 C-42.26477659 315.7567661 -43.44791034 317.56420348 -44.62963867 319.37255859 C-46.2679869 321.87948251 -47.91085764 324.38338703 -49.5546875 326.88671875 C-50.033685 327.62230515 -50.5126825 328.35789154 -51.00619507 329.11576843 C-58.2573233 340.12866165 -58.2573233 340.12866165 -62 342 C-66.50728651 342.54016597 -69.94994123 342.60322525 -73.9375 340.3125 C-77.14709125 336.71386739 -78.03743101 334.21645695 -77.88772583 329.35124207 C-77.72413285 327.88516012 -77.5457149 326.42068913 -77.35595703 324.95776367 C-77.21098376 323.72619805 -77.21098376 323.72619805 -77.06308174 322.46975231 C-76.7244236 319.644333 -76.36385499 316.82228122 -76 314 C-75.8045673 312.45549856 -75.8045673 312.45549856 -75.60518646 310.87979507 C-74.53918141 302.47387785 -73.42418417 294.07471268 -72.3046875 285.67578125 C-71.94831634 282.99015381 -71.59271399 280.30442472 -71.23709106 277.61869812 C-70.40337432 271.32564239 -69.56709666 265.03292991 -68.7298404 258.74034423 C-67.77493577 251.56255896 -66.82297495 244.38438417 -65.87123084 237.20617926 C-63.91737172 222.47035813 -61.95991499 207.735017 -60 193 C-60.92850266 193.00666183 -61.85700531 193.01332367 -62.81364441 193.02018738 C-71.56816514 193.08032336 -80.32261639 193.12598711 -89.07729626 193.15543652 C-93.57806911 193.17108579 -98.07867115 193.19231054 -102.5793457 193.22631836 C-106.92356862 193.25893821 -111.26762733 193.27685857 -115.61196327 193.28463173 C-117.26855364 193.29017053 -118.92513512 193.30098652 -120.5816555 193.31719017 C-122.90383632 193.3389997 -125.2253405 193.34196551 -127.54760742 193.34057617 C-128.23093643 193.351362 -128.91426544 193.36214783 -129.61830139 193.3732605 C-134.90562555 193.33908007 -137.99353036 191.86809242 -141.8125 188.3125 C-143.63930489 184.75503784 -143.85797956 181.8284088 -143 178 C-139.29952873 169.99571975 -133.02632591 163.05868842 -127.60449219 156.17163086 C-123.33790792 150.75132737 -119.19465547 145.25693006 -115.125 139.6875 C-110.15967365 132.89821905 -105.11334364 126.17851518 -100 119.5 C-94.9333719 112.88061726 -89.92564541 106.22496793 -85 99.5 C-79.4133758 91.87259983 -73.70723662 84.34355435 -67.9609375 76.8359375 C-63.57935674 71.10097273 -59.26457042 65.32240437 -55 59.5 C-49.41963011 51.88113883 -43.72307368 44.35798165 -37.97851562 36.86230469 C-33.40487365 30.88190111 -28.93426342 24.83419396 -24.5 18.75 C-9.59729827 -1.63812883 -9.59729827 -1.63812883 0 0 Z M-24 56 C-31.74771117 66.10722759 -39.47518138 76.22526583 -47 86.5 C-52.58658087 94.12743219 -58.29276387 101.65644628 -64.0390625 109.1640625 C-68.42064421 114.89902853 -72.73537864 120.67763175 -77 126.5 C-82.03182327 133.36880371 -87.14439368 140.17063131 -92.3125 146.9375 C-93.32376953 148.26261597 -93.32376953 148.26261597 -94.35546875 149.61450195 C-96.76046319 152.76422478 -99.16569706 155.91372984 -101.57958984 159.05664062 C-102.89042347 160.76389751 -104.19590857 162.47509193 -105.5 164.1875 C-106.1909375 165.08855469 -106.881875 165.98960937 -107.59375 166.91796875 C-109.18657105 168.85748753 -109.18657105 168.85748753 -109 171 C-107.75758293 171.00213753 -107.75758293 171.00213753 -106.49006653 171.00431824 C-98.67707038 171.02216171 -90.86463982 171.06381464 -83.05191517 171.13209057 C-79.03542962 171.16635437 -75.01932416 171.1914695 -71.00268555 171.19555664 C-67.12494227 171.19984107 -63.24805631 171.22831405 -59.37058067 171.27343178 C-57.89269699 171.28640246 -56.41471068 171.29071592 -54.93677711 171.28615379 C-52.86292053 171.28124394 -50.79156611 171.30734807 -48.71801758 171.34057617 C-47.53887283 171.34723801 -46.35972809 171.35389984 -45.14485168 171.36076355 C-41.00743216 172.20175372 -39.51839388 173.65559391 -37 177 C-34.84568029 186.59050545 -37.92045154 198.54907402 -39.25291634 208.16618919 C-39.66796179 211.16180569 -40.07244619 214.1586923 -40.47447205 217.15608215 C-41.18289637 222.42510391 -41.90041545 227.69283843 -42.62103271 232.96020508 C-43.77938535 241.42820645 -44.93004278 249.89721031 -46.06869316 258.36788368 C-46.46833426 261.32350462 -46.87577424 264.27798128 -47.28370667 267.23246765 C-47.52679293 269.03017742 -47.76956268 270.82793002 -48.01196289 272.62573242 C-48.12776703 273.44903549 -48.24357117 274.27233856 -48.36288452 275.12059021 C-49.06364422 279.16817381 -49.06364422 279.16817381 -48 283 C-40.47164251 271.74054276 -33.00689496 260.44010369 -25.5625 249.125 C-24.3805785 247.32923494 -23.19861135 245.53349992 -22.01660156 243.73779297 C-20.18288437 240.95197293 -18.34921266 238.16612302 -16.51571655 235.38015747 C-11.78944287 228.1986706 -7.06088301 221.01869223 -2.33139038 213.83932495 C2.13178169 207.06408917 6.59304078 200.28759562 11.05380249 193.51077271 C14.40733807 188.41680171 17.76409036 183.32496642 21.12307739 178.23458862 C23.2973603 174.93881649 25.46984832 171.64186381 27.64196777 168.34466553 C28.66613366 166.79094416 29.69110773 165.2377552 30.71691895 163.68511963 C32.119344 161.56227233 33.51899049 159.43761974 34.91796875 157.3125 C35.33525742 156.68238007 35.75254608 156.05226013 36.18247986 155.40304565 C38.1450033 152.89820488 38.1450033 152.89820488 39 150 C37.73879082 149.99120064 37.73879082 149.99120064 36.45210266 149.98222351 C28.52147158 149.92427754 20.59112157 149.85218994 12.66076374 149.76428509 C8.58383988 149.71959101 4.50701573 149.68033293 0.42993164 149.65356445 C-3.50599859 149.62752161 -7.44154495 149.58711271 -11.37723732 149.53681374 C-12.8774519 149.52015157 -14.37773286 149.50863322 -15.87802696 149.50238609 C-17.98248746 149.49273751 -20.08596738 149.46467174 -22.19018555 149.43237305 C-23.38709518 149.42126999 -24.58400482 149.41016693 -25.81718445 149.39872742 C-29.30089025 148.96230595 -31.20537915 148.08983432 -34 146 C-37.95892024 138.08215953 -34.23727299 125.93610434 -32.74708366 117.51939392 C-32.33059523 115.1665018 -31.92663805 112.81173632 -31.52552795 110.45617676 C-30.67391943 105.46884304 -29.806304 100.48436204 -28.9375 95.5 C-27.92675595 89.69124767 -26.92267434 83.88144345 -25.93130684 78.0693512 C-25.53316499 75.75262295 -25.12501881 73.43780574 -24.71629333 71.1229248 C-24.47308466 69.70637715 -24.2303089 68.28975507 -23.98803711 66.87304688 C-23.66493813 65.02205383 -23.66493813 65.02205383 -23.33531189 63.13366699 C-23.0351346 60.32835145 -23.06251262 58.62083936 -24 56 Z " fill="#000000" transform="translate(292,85)"/>
<path d="M0 0 C3.98568689 2.1461391 6.33067941 3.79175926 8 8 C8.47417768 11.24969772 7.99607959 13.8827704 7 17 C5.32397461 19.24389648 5.32397461 19.24389648 3.15234375 21.55859375 C2.33967041 22.42871094 1.52699707 23.29882812 0.68969727 24.1953125 C-0.19790283 25.12085938 -1.08550293 26.04640625 -2 27 C-2.45496857 27.47703369 -2.90993713 27.95406738 -3.37869263 28.44555664 C-6.26340972 31.46538796 -9.17984792 34.45149549 -12.12109375 37.41625977 C-13.13174323 38.43855796 -14.13787618 39.4653392 -15.13964844 40.49633789 C-16.61717201 42.01665705 -18.10763206 43.52316371 -19.6015625 45.02734375 C-20.47119629 45.91156006 -21.34083008 46.79577637 -22.23681641 47.70678711 C-26.3894932 51.15316395 -30.10961489 53 -35.625 53 C-39.7789098 51.76921191 -41.42930457 50.47799969 -44 47 C-45.39291535 42.2989107 -45.09411041 39.31667531 -43.07730103 34.87365723 C-41.06034096 31.36573166 -38.22538272 28.67744755 -35.35546875 25.859375 C-34.38435905 24.88608246 -34.38435905 24.88608246 -33.39363098 23.89312744 C-32.02920427 22.53035324 -30.65985485 21.17249178 -29.28588867 19.81933594 C-27.1921308 17.75456669 -25.11770552 15.67173899 -23.04492188 13.5859375 C-21.71204753 12.25930048 -20.37809841 10.93374224 -19.04296875 9.609375 C-18.42713425 8.99060486 -17.81129974 8.37183472 -17.17680359 7.73431396 C-12.19267955 2.85725336 -7.34792352 -1.07157218 0 0 Z " fill="#000000" transform="translate(116,388)"/>
<path d="M0 0 C3.47799969 2.57069543 4.76921191 4.2210902 6 8.375 C6 15.30954498 2.91798844 19.53662032 -1.75996399 24.2901001 C-2.38187119 24.90077332 -3.00377838 25.51144653 -3.64453125 26.140625 C-4.29193771 26.78948669 -4.93934418 27.43834839 -5.60636902 28.10687256 C-6.97079573 29.46964676 -8.34014515 30.82750822 -9.71411133 32.18066406 C-11.8078692 34.24543331 -13.88229448 36.32826101 -15.95507812 38.4140625 C-17.28795247 39.74069952 -18.62190159 41.06625776 -19.95703125 42.390625 C-20.57286575 43.00939514 -21.18870026 43.62816528 -21.82319641 44.26568604 C-26.05171971 48.40337688 -29.9616114 51.55690166 -36 52.4375 C-39.88576111 51.8708265 -41.97792261 50.47260877 -45 48 C-47.21659872 44.40269165 -47.47682363 41.71202842 -46.82763672 37.59008789 C-45.81969929 34.43574919 -44.41448693 32.85257876 -42.15234375 30.44140625 C-41.33967041 29.57128906 -40.52699707 28.70117188 -39.68969727 27.8046875 C-38.80209717 26.87914063 -37.91449707 25.95359375 -37 25 C-36.54503143 24.52296631 -36.09006287 24.04593262 -35.62130737 23.55444336 C-32.73659028 20.53461204 -29.82015208 17.54850451 -26.87890625 14.58374023 C-25.86825677 13.56144204 -24.86212382 12.5346608 -23.86035156 11.50366211 C-22.38282799 9.98334295 -20.89236794 8.47683629 -19.3984375 6.97265625 C-18.52880371 6.08843994 -17.65916992 5.20422363 -16.76318359 4.29321289 C-11.57267522 -0.01447797 -6.73545161 -1.99568937 0 0 Z " fill="#000000" transform="translate(435,72)"/>
<path d="M0 0 C6.19793829 5.72914878 12.29053507 11.55204889 18.27001953 17.50830078 C19.80722882 19.03564193 21.35481082 20.55198158 22.90258789 22.06860352 C23.89607968 23.0555766 24.88894189 24.04318392 25.88110352 25.03149414 C26.76531982 25.90636475 27.64953613 26.78123535 28.56054688 27.68261719 C31.67139773 31.27700283 33.60253134 34.60956622 34.29125977 39.33227539 C33.72458627 43.2180365 32.32636854 45.310198 29.85375977 48.33227539 C26.25645141 50.54887411 23.56578818 50.80909902 19.44384766 50.15991211 C16.28950896 49.15197468 14.70633853 47.74676232 12.29516602 45.48461914 C11.42504883 44.6719458 10.55493164 43.85927246 9.65844727 43.02197266 C8.73290039 42.13437256 7.80735352 41.24677246 6.85375977 40.33227539 C6.37672607 39.87730682 5.89969238 39.42233826 5.40820312 38.95358276 C2.3883718 36.06886567 -0.59773572 33.15242747 -3.5625 30.21118164 C-4.5847982 29.20053217 -5.61157943 28.19439921 -6.64257812 27.19262695 C-8.16289728 25.71510338 -9.66940394 24.22464333 -11.17358398 22.73071289 C-12.05780029 21.8610791 -12.9420166 20.99144531 -13.85302734 20.09545898 C-17.29940419 15.94278219 -19.14624023 12.2226605 -19.14624023 6.70727539 C-17.93997189 2.63611974 -16.45577334 0.94911552 -13.14624023 -1.66772461 C-8.57645734 -3.80028996 -3.88212244 -3.01658268 0 0 Z " fill="#000000" transform="translate(90.146240234375,73.667724609375)"/>
<path d="M0 0 C2.5625 1.4375 2.5625 1.4375 4 3 C4 3.66 4 4.32 4 5 C4.66 5 5.32 5 6 5 C6 5.66 6 6.32 6 7 C6.66 7 7.32 7 8 7 C8 7.66 8 8.32 8 9 C8.66 9 9.32 9 10 9 C10 9.66 10 10.32 10 11 C10.66 11 11.32 11 12 11 C12 11.66 12 12.32 12 13 C12.66 13 13.32 13 14 13 C14 13.66 14 14.32 14 15 C14.66 15 15.32 15 16 15 C17.3046875 16.328125 17.3046875 16.328125 18.875 18.25 C21.15941542 20.97484296 23.50571659 23.52368309 26.09375 25.95703125 C26.63402832 26.47040039 27.17430664 26.98376953 27.73095703 27.51269531 C28.80866437 28.52862733 29.89793274 29.5324636 30.99951172 30.52246094 C34.7979404 34.13711432 35.83337495 36.79142446 36 42 C34.97772071 45.99618266 33.29214018 48.50865067 30 51 C25.30606077 52.32847337 22.29833338 52.09494309 17.87145996 50.07949829 C14.366857 48.05796805 11.67722725 45.22515836 8.859375 42.35546875 C8.21051331 41.70806229 7.56165161 41.06065582 6.89312744 40.39363098 C5.53035324 39.02920427 4.17249178 37.65985485 2.81933594 36.28588867 C0.75456669 34.1921308 -1.32826101 32.11770552 -3.4140625 30.04492188 C-4.74069952 28.71204753 -6.06625776 27.37809841 -7.390625 26.04296875 C-8.00939514 25.42713425 -8.62816528 24.81129974 -9.26568604 24.17680359 C-13.40337688 19.94828029 -16.55690166 16.0383886 -17.4375 10 C-16.8708265 6.11423889 -15.47260877 4.02207739 -13 1 C-8.6824938 -1.74832853 -4.82016795 -1.09669876 0 0 Z " fill="#000000" transform="translate(405,389)"/>
<path d="M0 0 C2.82424288 2.19022918 4.41508603 3.83017207 6 7 C6.11019544 8.57113906 6.15909332 10.14678278 6.17700195 11.72167969 C6.18983719 12.70320007 6.20267242 13.68472046 6.21589661 14.69598389 C6.22328354 15.76052795 6.23067047 16.82507202 6.23828125 17.921875 C6.246353 19.01461731 6.25442474 20.10735962 6.26274109 21.23321533 C6.27659019 23.54999196 6.28730864 25.86678906 6.29516602 28.18359375 C6.31236269 31.7217496 6.35624077 35.25896736 6.40039062 38.796875 C6.41051878 41.04686812 6.4190345 43.2968692 6.42578125 45.546875 C6.44328934 46.60332214 6.46079742 47.65976929 6.47883606 48.74822998 C6.46101942 54.80245378 6.09836929 58.41669278 2 63 C-1.71453232 64.85726616 -5.95579425 64.58501089 -10 64 C-12.82424288 61.80977082 -14.41508603 60.16982793 -16 57 C-16.11019544 55.42886094 -16.15909332 53.85321722 -16.17700195 52.27832031 C-16.18983719 51.29679993 -16.20267242 50.31527954 -16.21589661 49.30401611 C-16.22328354 48.23947205 -16.23067047 47.17492798 -16.23828125 46.078125 C-16.246353 44.98538269 -16.25442474 43.89264038 -16.26274109 42.76678467 C-16.27659019 40.45000804 -16.28730864 38.13321094 -16.29516602 35.81640625 C-16.31236269 32.2782504 -16.35624077 28.74103264 -16.40039062 25.203125 C-16.41051878 22.95313188 -16.4190345 20.7031308 -16.42578125 18.453125 C-16.44328934 17.39667786 -16.46079742 16.34023071 -16.47883606 15.25177002 C-16.46101942 9.19754622 -16.09836929 5.58330722 -12 1 C-8.28546768 -0.85726616 -4.04420575 -0.58501089 0 0 Z " fill="#000000" transform="translate(261,448)"/>
<path d="M0 0 C0.98152039 -0.01283524 1.96304077 -0.02567047 2.9743042 -0.03889465 C4.03884827 -0.04628159 5.10339233 -0.05366852 6.20019531 -0.0612793 C7.83930878 -0.07338692 7.83930878 -0.07338692 9.51153564 -0.08573914 C11.82831227 -0.09958824 14.14510937 -0.11030668 16.46191406 -0.11816406 C20.00006991 -0.13536074 23.53728767 -0.17923882 27.07519531 -0.22338867 C29.32518844 -0.23351683 31.57518951 -0.24203254 33.82519531 -0.2487793 C34.88164246 -0.26628738 35.9380896 -0.28379547 37.02655029 -0.30183411 C43.08077409 -0.28401746 46.69501309 0.07863267 51.27832031 4.17700195 C53.13558647 7.89153427 52.86333121 12.13279621 52.27832031 16.17700195 C50.08809114 19.00124484 48.44814825 20.59208799 45.27832031 22.17700195 C43.70718125 22.28719739 42.13153753 22.33609528 40.55664062 22.35400391 C39.57512024 22.36683914 38.59359985 22.37967438 37.58233643 22.39289856 C35.98552032 22.40397896 35.98552032 22.40397896 34.35644531 22.4152832 C33.263703 22.42335495 32.17096069 22.4314267 31.04510498 22.43974304 C28.72832836 22.45359215 26.41153126 22.46431059 24.09472656 22.47216797 C20.55657071 22.48936465 17.01935296 22.53324273 13.48144531 22.57739258 C11.23145219 22.58752073 8.98145112 22.59603645 6.73144531 22.6027832 C5.1467746 22.62904533 5.1467746 22.62904533 3.53009033 22.65583801 C-2.52413347 22.63802137 -6.13837246 22.27537124 -10.72167969 18.17700195 C-12.57894585 14.46246964 -12.30669058 10.2212077 -11.72167969 6.17700195 C-8.15759736 1.58121158 -5.6646456 0.0644144 0 0 Z " fill="#000000" transform="translate(459.7216796875,244.822998046875)"/>
<path d="M0 0 C0.98152039 -0.01283524 1.96304077 -0.02567047 2.9743042 -0.03889465 C4.03884827 -0.04628159 5.10339233 -0.05366852 6.20019531 -0.0612793 C7.83930878 -0.07338692 7.83930878 -0.07338692 9.51153564 -0.08573914 C11.82831227 -0.09958824 14.14510937 -0.11030668 16.46191406 -0.11816406 C20.00006991 -0.13536074 23.53728767 -0.17923882 27.07519531 -0.22338867 C29.32518844 -0.23351683 31.57518951 -0.24203254 33.82519531 -0.2487793 C34.88164246 -0.26628738 35.9380896 -0.28379547 37.02655029 -0.30183411 C43.08077409 -0.28401746 46.69501309 0.07863267 51.27832031 4.17700195 C53.13558647 7.89153427 52.86333121 12.13279621 52.27832031 16.17700195 C50.08809114 19.00124484 48.44814825 20.59208799 45.27832031 22.17700195 C43.70718125 22.28719739 42.13153753 22.33609528 40.55664062 22.35400391 C39.57512024 22.36683914 38.59359985 22.37967438 37.58233643 22.39289856 C35.98552032 22.40397896 35.98552032 22.40397896 34.35644531 22.4152832 C33.263703 22.42335495 32.17096069 22.4314267 31.04510498 22.43974304 C28.72832836 22.45359215 26.41153126 22.46431059 24.09472656 22.47216797 C20.55657071 22.48936465 17.01935296 22.53324273 13.48144531 22.57739258 C11.23145219 22.58752073 8.98145112 22.59603645 6.73144531 22.6027832 C5.1467746 22.62904533 5.1467746 22.62904533 3.53009033 22.65583801 C-2.52413347 22.63802137 -6.13837246 22.27537124 -10.72167969 18.17700195 C-12.57894585 14.46246964 -12.30669058 10.2212077 -11.72167969 6.17700195 C-8.15759736 1.58121158 -5.6646456 0.0644144 0 0 Z " fill="#000000" transform="translate(11.7216796875,244.822998046875)"/>
<path d="M0 0 C2.82424288 2.19022918 4.41508603 3.83017207 6 7 C6.11019544 8.57113906 6.15909332 10.14678278 6.17700195 11.72167969 C6.18983719 12.70320007 6.20267242 13.68472046 6.21589661 14.69598389 C6.22328354 15.76052795 6.23067047 16.82507202 6.23828125 17.921875 C6.246353 19.01461731 6.25442474 20.10735962 6.26274109 21.23321533 C6.27659019 23.54999196 6.28730864 25.86678906 6.29516602 28.18359375 C6.31236269 31.7217496 6.35624077 35.25896736 6.40039062 38.796875 C6.41051878 41.04686812 6.4190345 43.2968692 6.42578125 45.546875 C6.44328934 46.60332214 6.46079742 47.65976929 6.47883606 48.74822998 C6.46101942 54.80245378 6.09836929 58.41669278 2 63 C-1.71453232 64.85726616 -5.95579425 64.58501089 -10 64 C-12.82424288 61.80977082 -14.41508603 60.16982793 -16 57 C-16.11019544 55.42886094 -16.15909332 53.85321722 -16.17700195 52.27832031 C-16.18983719 51.29679993 -16.20267242 50.31527954 -16.21589661 49.30401611 C-16.22328354 48.23947205 -16.23067047 47.17492798 -16.23828125 46.078125 C-16.246353 44.98538269 -16.25442474 43.89264038 -16.26274109 42.76678467 C-16.27659019 40.45000804 -16.28730864 38.13321094 -16.29516602 35.81640625 C-16.31236269 32.2782504 -16.35624077 28.74103264 -16.40039062 25.203125 C-16.41051878 22.95313188 -16.4190345 20.7031308 -16.42578125 18.453125 C-16.44328934 17.39667786 -16.46079742 16.34023071 -16.47883606 15.25177002 C-16.46101942 9.19754622 -16.09836929 5.58330722 -12 1 C-8.28546768 -0.85726616 -4.04420575 -0.58501089 0 0 Z " fill="#000000" transform="translate(261,0)"/>
</svg>
