<?xml version="1.0" encoding="UTF-8"?>
<svg version="1.1" xmlns="http://www.w3.org/2000/svg" width="512" height="513">
<path d="M0 0 C6.95038573 5.62923803 14.20731354 13.24789053 15.21289062 22.49462891 C15.30436647 26.04889086 15.36115068 29.60091002 15.390625 33.15625 C15.4525 34.98736328 15.4525 34.98736328 15.515625 36.85546875 C15.60925586 47.79857575 12.24914124 55.6724311 4.578125 63.53125 C1.42043036 66.87872261 -1.58958634 70.26539765 -4.484375 73.84375 C-7.80955562 77.9509853 -11.18600133 82.00608827 -14.609375 86.03125 C-17.98234437 90.00016888 -21.32114478 93.99142431 -24.609375 98.03125 C-28.35790146 102.6365825 -32.18021746 107.17329444 -36.02563477 111.69750977 C-38.9048282 115.09079109 -41.74141737 118.51392786 -44.546875 121.96875 C-48.50380918 126.83174424 -52.57373442 131.58825203 -56.66552734 136.33740234 C-60.45489027 140.74445193 -64.14895837 145.22131152 -67.81640625 149.73046875 C-70.47360758 152.97614738 -73.15832831 156.19702721 -75.859375 159.40625 C-76.30740479 159.94193604 -76.75543457 160.47762207 -77.21704102 161.02954102 C-80.03323194 164.36471046 -82.98284415 167.4865923 -86.109375 170.53125 C-86.68558594 171.10488281 -87.26179688 171.67851562 -87.85546875 172.26953125 C-105.08375246 188.30416943 -128.27803042 194.03507713 -151.22363281 193.90014648 C-152.66611007 193.90262306 -154.10858551 193.90647007 -155.55105591 193.91156006 C-158.62346721 193.91981045 -161.69569258 193.9191665 -164.76810455 193.91137505 C-169.63672751 193.89965902 -174.50511792 193.91206249 -179.37371826 193.92799377 C-191.45620379 193.96395566 -203.53868151 193.9704185 -215.62121582 193.96789551 C-225.03675291 193.96618013 -234.45209616 193.97339893 -243.86757922 194.00787407 C-248.69760239 194.02456903 -253.52715 194.02296148 -258.35717058 194.00705135 C-261.3689268 194.00121997 -264.38046134 194.01205434 -267.39217758 194.02729797 C-268.77759322 194.03099653 -270.16304733 194.02799715 -271.54842758 194.01742744 C-283.16655904 193.93475677 -292.6896523 195.42985259 -301.24609375 203.73828125 C-303.11911527 205.54062271 -305.09615843 207.03389198 -307.171875 208.59375 C-308.8958546 209.9882313 -308.8958546 209.9882313 -310.109375 211.53125 C-310.17277685 214.49082066 -310.17277685 214.49082066 -309.109375 217.53125 C-308.49424907 226.758139 -310.76617552 233.98866944 -316.109375 241.53125 C-317.72881363 243.32041434 -319.39790233 245.06549356 -321.10571289 246.77050781 C-321.58915665 247.25584991 -322.0726004 247.74119202 -322.57069397 248.24124146 C-324.15297858 249.82719893 -325.74229064 251.40589428 -327.33203125 252.984375 C-328.44050499 254.09165517 -329.54860772 255.19930688 -330.65635681 256.30731201 C-332.97070274 258.62009927 -335.28835271 260.92950443 -337.60864258 263.23632812 C-340.5818352 266.19248211 -343.54835287 269.15522588 -346.51265812 272.12028885 C-348.79687756 274.40423645 -351.08369318 276.68556928 -353.37139702 278.96602631 C-354.46642135 280.05787112 -355.56084342 281.1503203 -356.65464973 282.24338531 C-358.18141334 283.7679806 -359.7114244 285.28923808 -361.24243164 286.80957031 C-362.11194962 287.67527649 -362.98146759 288.54098267 -363.87733459 289.43292236 C-368.01700247 293.32459901 -370.82479777 294.30490075 -376.3828125 294.13671875 C-383.71639282 292.50820163 -388.89493149 284.77405647 -393.82420063 279.4455986 C-403.12881718 269.41583014 -412.78386965 259.75137259 -422.48702431 250.10900116 C-425.47876182 247.13593694 -428.46581641 244.15819514 -431.45219421 241.17974854 C-439.93033856 232.72548827 -448.41474639 224.2775292 -456.90307617 215.83349609 C-461.622146 211.13897168 -466.33761405 206.440859 -471.04925412 201.73887753 C-474.01594062 198.77871059 -476.98706083 195.82309165 -479.96161616 192.87083292 C-482.23403293 190.61289158 -484.49993219 188.34842532 -486.7668457 186.08496094 C-487.58700668 185.27356155 -488.40716766 184.46216217 -489.25218201 183.62617493 C-489.99894196 182.87811081 -490.7457019 182.13004669 -491.51509094 181.35931396 C-492.48970008 180.38941843 -492.48970008 180.38941843 -493.4839983 179.39992905 C-496.04108541 176.46007203 -497.00775907 174.11836424 -497.671875 170.28125 C-496.27241756 160.95153371 -484.60981237 152.96848931 -478.13671875 146.59765625 C-473.86588503 142.36795415 -469.77352728 138.07673771 -465.85644531 133.51855469 C-462.62491612 129.84266765 -459.18166114 126.37851648 -455.734375 122.90625 C-454.67863281 121.81957031 -454.67863281 121.81957031 -453.6015625 120.7109375 C-447.03251903 114.09394481 -439.29549612 106.87152069 -429.55859375 106.3359375 C-428.31722656 106.35914063 -427.07585937 106.38234375 -425.796875 106.40625 C-424.54261719 106.42429687 -423.28835938 106.44234375 -421.99609375 106.4609375 C-421.04347656 106.48414063 -420.09085937 106.50734375 -419.109375 106.53125 C-418.83996094 105.81066406 -418.57054687 105.09007812 -418.29296875 104.34765625 C-414.01282863 94.1629004 -406.65678496 86.36070069 -399.109375 78.53125 C-398.52542969 77.88414062 -397.94148438 77.23703125 -397.33984375 76.5703125 C-377.39570021 55.06093238 -345.03821906 43.71305485 -316.34008789 42.4050293 C-296.8532308 41.89625516 -275.00294495 42.58446503 -257.109375 51.53125 C-255.54812853 51.62920074 -253.98276627 51.66464619 -252.41845703 51.66928101 C-251.42887497 51.67473434 -250.43929291 51.68018768 -249.41972351 51.68580627 C-248.32988663 51.6868486 -247.24004974 51.68789093 -246.1171875 51.68896484 C-244.97228348 51.69404556 -243.82737946 51.69912628 -242.64778137 51.70436096 C-240.153613 51.71508451 -237.65943489 51.72369686 -235.16525269 51.73048019 C-231.21371406 51.74224903 -227.26228572 51.76169909 -223.31079102 51.78359985 C-212.07263132 51.84548769 -200.83447511 51.89941853 -189.59619141 51.93261719 C-183.39199253 51.9510253 -177.18793545 51.98004427 -170.98384094 52.0206219 C-167.70379895 52.04160077 -164.4239725 52.05544425 -161.14385986 52.05942917 C-157.47460338 52.0643565 -153.80586863 52.08756484 -150.13671875 52.11474609 C-149.06307571 52.11173996 -147.98943268 52.10873383 -146.883255 52.1056366 C-138.13113503 52.20155919 -130.23864948 53.76922927 -122.734375 58.46875 C-121.94289063 58.95214844 -121.15140625 59.43554688 -120.3359375 59.93359375 C-118.00252411 61.6079202 -116.08026886 63.4478622 -114.109375 65.53125 C-109.75034183 63.5636511 -107.07590073 60.47051837 -103.921875 56.96875 C-95.83188527 48.14708596 -87.36554685 39.72613337 -78.85473633 31.31420898 C-73.9548073 26.45981639 -69.14736727 21.58316299 -64.66162109 16.33691406 C-48.19608741 -2.81676432 -23.7421885 -17.42232537 0 0 Z M-48.51074219 30.18164062 C-55.19582041 38.04299123 -62.67258339 45.15334061 -70.00292969 52.40429688 C-71.85304399 54.23615031 -73.70091733 56.07020824 -75.546875 57.90625 C-76.13737137 58.49356903 -76.72786774 59.08088806 -77.33625793 59.68600464 C-80.91209391 63.26613868 -84.28469248 66.95209348 -87.55224609 70.81738281 C-89.25766865 72.69447067 -91.07683892 74.31320308 -93.00390625 75.9609375 C-101.94820422 83.5978577 -101.94820422 83.5978577 -105.55810547 94.3996582 C-105.67062661 96.69330277 -105.74930691 98.98598197 -105.8203125 101.28125 C-106.11186861 109.14975238 -110.20690548 115.81690622 -115.484375 121.46875 C-124.59288284 129.66042773 -134.52610184 132.99438259 -146.70239258 132.95117188 C-147.60290344 132.95964142 -148.50341431 132.96811096 -149.43121338 132.97683716 C-152.3722592 133.00001093 -155.31277654 133.0012347 -158.25390625 133 C-160.3127208 133.00710883 -162.37153338 133.01480887 -164.43034363 133.02307129 C-168.72795133 133.0364675 -173.0253754 133.0381047 -177.32299805 133.03222656 C-182.82893243 133.0263073 -188.33399209 133.05703669 -193.83975697 133.09734344 C-198.08370204 133.12317807 -202.3274345 133.12610223 -206.57144737 133.12245178 C-208.60203962 133.12414417 -210.63264156 133.13379803 -212.66315651 133.15159607 C-215.49714925 133.17372288 -218.32934372 133.16411918 -221.16333008 133.14648438 C-221.99926193 133.15974762 -222.83519379 133.17301086 -223.69645691 133.18667603 C-228.00569988 133.12434659 -229.61826446 132.92294408 -233.10600281 130.14123535 C-235.26917109 127.32306829 -236.109375 126.07004683 -236.109375 122.53125 C-234.09378012 116.27229748 -234.09378012 116.27229748 -231.52716064 114.34017944 C-227.92588382 113.13528402 -224.36737674 113.25664814 -220.61230469 113.27587891 C-219.32860237 113.27044823 -219.32860237 113.27044823 -218.01896667 113.26490784 C-216.16216853 113.25801961 -214.30535017 113.25550733 -212.44853973 113.25685501 C-209.50545091 113.25782097 -206.5627266 113.24486868 -203.61968994 113.22787476 C-195.25251101 113.1816304 -186.88536872 113.15700739 -178.51806641 113.15039062 C-173.39748741 113.14536511 -168.2772878 113.12106004 -163.15683746 113.08506393 C-161.20971203 113.07528788 -159.26253426 113.07292197 -157.31539154 113.07823563 C-154.58452582 113.08533678 -151.85478317 113.06796077 -149.12402344 113.04541016 C-148.3268541 113.05358261 -147.52968475 113.06175507 -146.70835876 113.07017517 C-140.52933695 112.97985512 -135.20383476 111.38535345 -130.5786705 107.11944008 C-126.11083522 102.04873059 -124.62026734 97.50491905 -124.796875 90.87109375 C-125.51574507 85.48855411 -128.00137247 81.23134526 -132.046875 77.65625 C-136.4160813 74.62455583 -139.8624638 73.27922602 -145.18315125 73.29315186 C-146.18212433 73.29065933 -147.18109741 73.28816681 -148.21034241 73.28559875 C-149.29552658 73.29286484 -150.38071075 73.30013092 -151.4987793 73.30761719 C-153.22677765 73.30700539 -153.22677765 73.30700539 -154.98968506 73.30638123 C-157.49197877 73.30618371 -159.99427556 73.31022277 -162.49655724 73.31798553 C-166.47155473 73.32822276 -170.44636049 73.32338281 -174.42134094 73.31256104 C-185.72405724 73.28418536 -197.0266219 73.27144799 -208.3293457 73.30126953 C-214.57509072 73.31758463 -220.82044146 73.31208258 -227.06614619 73.28347325 C-230.36121636 73.26932804 -233.65529262 73.26931561 -236.95035362 73.28969574 C-250.53069377 73.37011147 -262.70250039 73.1765438 -275.40119934 68.0010376 C-299.5592082 58.42567087 -330.68101041 62.51989439 -354.109375 72.53125 C-364.10486015 77.19716414 -372.95025968 83.08784655 -381.109375 90.53125 C-381.88667969 91.22734375 -382.66398437 91.9234375 -383.46484375 92.640625 C-390.91113402 99.66397624 -397.29794516 108.00267541 -401.109375 117.53125 C-375.699375 142.94125 -350.289375 168.35125 -324.109375 194.53125 C-321.799375 192.55125 -319.489375 190.57125 -317.109375 188.53125 C-305.90665845 179.18542208 -294.6302867 173.41727532 -279.83216858 173.39994812 C-278.59188904 173.39593994 -277.3516095 173.39193176 -276.07374573 173.38780212 C-274.71200559 173.38827715 -273.35026548 173.38881325 -271.98852539 173.3894043 C-270.54401544 173.38636964 -269.09950645 173.38284734 -267.65499878 173.37887573 C-264.54975848 173.37100677 -261.44452956 173.36584924 -258.33928108 173.36258507 C-253.41572223 173.35664894 -248.49223469 173.34008175 -243.56871033 173.32124329 C-241.87886528 173.31490619 -240.1890202 173.30858056 -238.49917507 173.30226612 C-237.22985097 173.2975174 -237.22985097 173.2975174 -235.93488395 173.29267275 C-224.48028371 173.25071558 -213.02571687 173.2176584 -201.57104492 173.20532227 C-193.83480489 173.19690535 -186.09874209 173.17427997 -178.36259073 173.1359666 C-174.27703142 173.1163247 -170.19173628 173.10376139 -166.10612679 173.10880089 C-162.25389985 173.11349464 -158.40217159 173.09938862 -154.55004501 173.07178879 C-153.14859467 173.06495506 -151.74709186 173.06466441 -150.345644 173.07198906 C-129.92789872 173.16779127 -112.42161726 166.48337702 -97.609375 152.28125 C-94.01651141 148.57301923 -90.7994129 144.57330385 -87.5625 140.5546875 C-84.95517518 137.34120117 -82.29156967 134.18214153 -79.609375 131.03125 C-76.25458835 127.08502089 -72.93714851 123.11481919 -69.671875 119.09375 C-65.71494082 114.23075576 -61.64501558 109.47424797 -57.55322266 104.72509766 C-53.75774133 100.31093234 -50.05659587 95.82791802 -46.38671875 91.30859375 C-43.36517556 87.62365857 -40.27901549 83.99556679 -37.19287109 80.36474609 C-34.31379657 76.97151525 -31.47726008 73.5484828 -28.671875 70.09375 C-25.16266949 65.77666984 -21.55821244 61.55327567 -17.921875 57.34375 C-7.35835203 46.03795422 -7.35835203 46.03795422 -4.234375 31.53125 C-5.03706659 25.37728115 -7.5305203 22.04145884 -11.984375 17.78125 C-26.83326424 7.09004975 -38.86449126 18.82124754 -48.51074219 30.18164062 Z M-439.078125 136.71875 C-440.45949646 138.11710083 -440.45949646 138.11710083 -441.86877441 139.54370117 C-444.30678888 142.01213663 -446.71981645 144.50363843 -449.1282959 147.00085449 C-451.59422968 149.54889799 -454.08321313 152.07420482 -456.5703125 154.6015625 C-461.43937454 159.55620182 -466.28239818 164.53561009 -471.109375 169.53125 C-469.66358088 172.83796239 -467.86345233 175.03413727 -465.32717896 177.58760071 C-464.53927979 178.38547501 -463.75138062 179.1833493 -462.93960571 180.00540161 C-461.64136368 181.30464066 -461.64136368 181.30464066 -460.31689453 182.63012695 C-459.40619202 183.54915298 -458.4954895 184.46817902 -457.55718994 185.41505432 C-455.06210419 187.9320577 -452.56050097 190.44248263 -450.0569787 192.951092 C-448.49372611 194.51798906 -446.93177942 196.08617604 -445.37026596 197.65480614 C-439.92459409 203.12495549 -434.47324064 208.58937579 -429.01708984 214.04907227 C-423.92692697 219.14287706 -418.85006652 224.24968412 -413.77903664 229.36253005 C-409.42602536 233.75017685 -405.06349982 238.12820949 -400.69348609 242.49892205 C-398.08285272 245.11035004 -395.47638747 247.72563978 -392.87958145 250.35082436 C-389.98701429 253.27429453 -387.07498174 256.17757721 -384.16064453 259.0793457 C-383.2991983 259.95562622 -382.43775208 260.83190674 -381.55020142 261.73474121 C-380.7566626 262.51851639 -379.96312378 263.30229156 -379.14553833 264.1098175 C-378.45863482 264.79873235 -377.7717313 265.48764719 -377.06401253 266.19743824 C-375.20821592 267.76637066 -375.20821592 267.76637066 -372.98166752 267.34457111 C-370.47757378 266.25679648 -368.94568922 264.77149866 -366.99926758 262.85693359 C-366.20196732 262.07877289 -365.40466705 261.30061218 -364.58320618 260.49887085 C-363.30645271 259.22712509 -363.30645271 259.22712509 -362.00390625 257.9296875 C-361.12409592 257.05986237 -360.24428558 256.19003723 -359.33781433 255.29385376 C-357.47881676 253.4500505 -355.62388026 251.60214508 -353.77270508 249.75048828 C-351.87693865 247.85447777 -349.97116206 245.96956234 -348.05493164 244.09423828 C-345.29344189 241.38769763 -342.55269036 238.66168229 -339.81640625 235.9296875 C-338.95916458 235.09400238 -338.10192291 234.25831726 -337.21870422 233.39730835 C-333.76492596 229.90306776 -331.41753217 227.47569523 -329.87768555 222.75634766 C-330.25405362 217.51733575 -333.10249805 214.28775352 -336.72157288 210.67181396 C-337.4464238 209.94276855 -338.17127472 209.21372314 -338.91809082 208.46258545 C-339.70832642 207.67796936 -340.49856201 206.89335327 -341.31274414 206.08496094 C-342.1487767 205.24703003 -342.98480927 204.40909912 -343.84617615 203.54577637 C-346.13164767 201.25724145 -348.42151453 198.97322175 -350.71359563 196.69130993 C-353.1129314 194.30077831 -355.50697292 191.90495528 -357.90171814 189.50982666 C-361.92074113 185.49173888 -365.94361108 181.47753592 -369.96899414 177.46582031 C-374.62517661 172.82538855 -379.27608624 168.17972531 -383.92403322 163.53104568 C-388.39651603 159.05795307 -392.87184668 154.58772177 -397.34878349 150.11908722 C-399.25422771 148.21717639 -401.15881781 146.31441622 -403.06276131 144.41100311 C-405.71779808 141.75812478 -408.37609561 139.10856 -411.03540039 136.45996094 C-411.82766022 135.66724792 -412.61992004 134.87453491 -413.43618774 134.05780029 C-414.15821884 133.34003418 -414.88024994 132.62226807 -415.62416077 131.88275146 C-416.56684106 130.94258493 -416.56684106 130.94258493 -417.52856541 129.98342514 C-420.30330139 127.4344764 -423.01449624 126.86686648 -426.78149414 126.93212891 C-431.98965312 128.27254025 -435.48137537 132.95273962 -439.078125 136.71875 Z " fill="#000000" transform="translate(497.109375,219.46875)"/>
<path d="M0 0 C0.6581369 0.00021149 1.3162738 0.00042297 1.99435425 0.00064087 C32.17656822 0.09717784 58.35729404 12.09453488 80.125 32.625 C101.19220194 54.67116114 111.91041477 83.51152248 111.58984375 113.89453125 C110.18947737 145.8875171 96.37257377 173.35074703 73.03613281 194.96728516 C68.51077087 198.95220222 63.55984046 202.21779707 58.4375 205.375 C57.58961914 205.9006958 57.58961914 205.9006958 56.72460938 206.43701172 C32.74397481 221.0312868 2.70936132 225.15937952 -24.55712891 218.91845703 C-35.66129583 216.21449498 -45.60882872 211.94674239 -55.5625 206.375 C-56.56023437 205.81941406 -57.55796875 205.26382813 -58.5859375 204.69140625 C-66.13091691 200.18387557 -72.27064044 194.44053368 -78.5625 188.375 C-79.22121094 187.77945313 -79.87992188 187.18390625 -80.55859375 186.5703125 C-99.74970194 168.75316356 -109.57833629 139.95111912 -110.69140625 114.41796875 C-111.25448082 83.97440375 -100.59331078 57.05002269 -80.5625 34.375 C-79.66337891 33.35019531 -79.66337891 33.35019531 -78.74609375 32.3046875 C-58.48494541 10.68696119 -29.17272781 -0.03893405 0 0 Z M-66.5625 50.375 C-81.46479429 67.30193459 -90.37338422 90.11718155 -89.74609375 112.7734375 C-88.1716785 135.08323657 -80.70081782 154.77505149 -65.5625 171.375 C-64.87671875 172.15359375 -64.1909375 172.9321875 -63.484375 173.734375 C-48.37034691 189.96796073 -25.50521476 199.38582429 -3.5703125 200.53125 C20.08033637 201.17480507 42.70536785 193.20620006 60.4375 177.375 C61.19675781 176.69824219 61.95601562 176.02148438 62.73828125 175.32421875 C78.98737193 159.97317798 89.45509649 137.79942797 90.4375 115.375 C90.47746094 114.62605469 90.51742187 113.87710938 90.55859375 113.10546875 C91.15760406 91.29444638 83.45903947 69.96426995 69.4375 53.375 C68.76976562 52.56160156 68.10203125 51.74820313 67.4140625 50.91015625 C53.46656375 34.5709384 34.41415121 25.08897454 13.4375 21.375 C-17.65567309 19.33697898 -44.68958691 27.33739506 -66.5625 50.375 Z " fill="#000000" transform="translate(298.5625,-0.375)"/>
<path d="M0 0 C3.08487075 2.20347911 4.62188208 3.60239959 5.6171875 7.28125 C6.04610707 10.32745427 6.0962947 13.23718265 6.0625 16.3125 C6.05347656 17.38113281 6.04445313 18.44976562 6.03515625 19.55078125 C6.02355469 20.35902344 6.01195312 21.16726562 6 22 C7.09441406 22.14501953 7.09441406 22.14501953 8.2109375 22.29296875 C11.38303458 23.0970998 13.08436654 24.27388174 15.625 26.3125 C16.38039063 26.90675781 17.13578125 27.50101563 17.9140625 28.11328125 C22.72037604 32.46056484 22.72037604 32.46056484 23.36328125 36 C23.17721983 43.32795748 23.17721983 43.32795748 21 46 C17.73655133 48.2009305 15.63417373 48.98803446 11.6875 49.0625 C8.17716536 48.05104765 6.45537764 47.03508482 3.5625 44.9375 C-0.9423374 41.71865892 -3.53812783 41.34080853 -9 42 C-10.485 42.495 -10.485 42.495 -12 43 C-13.20901009 46.62703026 -13.78660475 50.24017363 -13 54 C-10.77801772 57.06005004 -9.37281066 57.90613943 -5.6796875 58.8359375 C-4.42414063 59.01382813 -3.16859375 59.19171875 -1.875 59.375 C6.94980898 60.87698142 13.7793762 63.81654419 19.4375 70.9375 C24.51125906 78.51947329 26.8058152 85.93682737 25.59765625 95.02734375 C23.30449561 105.78755905 18.10765392 112.07181986 9 118 C8.01 118.495 8.01 118.495 7 119 C6.55795584 122.30966396 6.25944139 125.59059666 6.05273438 128.921875 C5.67168158 133.02668137 5.28033837 134.66198436 2.55078125 137.953125 C-1.19287847 140.9572256 -3.19276497 141.46223414 -8 141 C-11.4971341 139.25143295 -13.48211237 137.98645262 -15.3125 134.5 C-16 131 -16 131 -16.015625 128.12109375 C-16.06292662 124.90852515 -16.18463689 122.11240756 -17 119 C-19.6676091 116.53499412 -22.68827535 115.40830816 -26 114 C-30.34015153 111.11920073 -33.62811969 107.65253446 -36 103 C-36.81519647 98.77428769 -36.48591139 95.76126118 -34.125 92.0625 C-30.72003914 88.75768505 -28.05801897 88.48948787 -23.44140625 88.51171875 C-19.61173829 89.27765234 -17.57106781 91.57195757 -14.83984375 94.23828125 C-11.45132659 97.48291233 -8.57400852 99.03148017 -3.875 98.9375 C-0.42227198 97.81161043 0.97708097 97.03437855 3 94 C3.61561399 91.19809336 3.86490548 88.75050688 3 86 C-0.74242452 82.11012536 -4.00446093 81.36973703 -9.25 80.625 C-18.47891742 79.05975049 -24.96631429 75.19386616 -30.78515625 67.84375 C-35.45418334 60.75763815 -36.71044332 52.36261002 -35.4375 44.0625 C-33.43485167 35.53466637 -29.04121143 29.09949324 -21.9296875 24.05859375 C-19.95509257 22.97536455 -18.20156279 22.4354202 -16 22 C-16.02320313 21.20335938 -16.04640625 20.40671875 -16.0703125 19.5859375 C-16.1860557 12.79015845 -16.21638887 7.50928238 -12.5 1.625 C-8.52677399 -0.9575969 -4.58910416 -0.86138525 0 0 Z " fill="#000000" transform="translate(302,40)"/>
<path d="M0 0 C3.51038651 2.59463351 4.77811815 4.23728114 6 8.4375 C6 12.53094236 5.22004022 14.59065251 3 18 C-1.01858595 20.6790573 -4.27641721 20.69610694 -9 20 C-11.87029869 18.20606332 -13.49131638 17.01736724 -15 14 C-15.42074378 10.94059163 -15.47999423 8.0540292 -15 5 C-10.58053726 -0.73335706 -6.94670018 -1.6767897 0 0 Z " fill="#000000" transform="translate(234,331)"/>
</svg>
