<?xml version="1.0" encoding="UTF-8"?>
<svg version="1.1" xmlns="http://www.w3.org/2000/svg" width="512" height="512">
<path d="M0 0 C1.10794922 -0.01260864 2.21589844 -0.02521729 3.35742188 -0.03820801 C4.54916016 -0.03011108 5.74089844 -0.02201416 6.96875 -0.01367188 C8.19658203 -0.01749878 9.42441406 -0.02132568 10.68945312 -0.02526855 C13.28516459 -0.02799029 15.88090336 -0.02061099 18.4765625 -0.00390625 C22.45374599 0.01749738 26.42912282 -0.0037015 30.40625 -0.02929688 C32.92708733 -0.02665365 35.44792353 -0.02152878 37.96875 -0.01367188 C39.16048828 -0.0217688 40.35222656 -0.02986572 41.58007812 -0.03820801 C43.24200195 -0.01929504 43.24200195 -0.01929504 44.9375 0 C46.39833008 0.00477356 46.39833008 0.00477356 47.88867188 0.00964355 C51.24976406 0.67133472 52.43273127 1.79695373 54.46875 4.51757812 C54.94976807 6.66900635 54.94976807 6.66900635 54.92285156 9.01074219 C54.92254944 9.89135315 54.92224731 10.77196411 54.92193604 11.67926025 C54.90129089 12.6210614 54.88064575 13.56286255 54.859375 14.53320312 C54.85371521 15.50416931 54.84805542 16.4751355 54.84222412 17.4755249 C54.81985311 20.57337982 54.76965473 23.67007346 54.71875 26.76757812 C54.69868597 28.86912391 54.68043503 30.97068784 54.6640625 33.07226562 C54.6199858 38.22114982 54.55095258 43.36916716 54.46875 48.51757812 C55.78069336 48.49663086 57.09263672 48.47568359 58.44433594 48.45410156 C63.31206344 48.38169842 68.17974335 48.33577699 73.04785156 48.29785156 C75.15470382 48.27773687 77.26150025 48.25044145 79.36816406 48.21582031 C82.39662447 48.16729644 85.42434678 48.14460796 88.453125 48.12695312 C89.39492615 48.10630798 90.33672729 48.08566284 91.30706787 48.06439209 C92.18767883 48.06408997 93.06828979 48.06378784 93.97558594 48.06347656 C95.13474518 48.05015289 95.13474518 48.05015289 96.31732178 48.03656006 C99.41097388 48.7282413 100.57490093 50.01195846 102.46875 52.51757812 C102.97668457 55.09765625 102.97668457 55.09765625 102.98632812 58.04882812 C102.99893677 59.15677734 103.01154541 60.26472656 103.02453613 61.40625 C103.01643921 62.59798828 103.00834229 63.78972656 103 65.01757812 C103.0038269 66.24541016 103.00765381 67.47324219 103.01159668 68.73828125 C103.01431842 71.33399272 103.00693911 73.92973149 102.99023438 76.52539062 C102.96883075 80.50257412 102.99002963 84.47795094 103.015625 88.45507812 C103.01298177 90.97591545 103.00785691 93.49675166 103 96.01757812 C103.00809692 97.20931641 103.01619385 98.40105469 103.02453613 99.62890625 C103.00562317 101.29083008 103.00562317 101.29083008 102.98632812 102.98632812 C102.98314575 103.96021484 102.97996338 104.93410156 102.97668457 105.9375 C102.3149934 109.29859218 101.18937439 110.4815594 98.46875 112.51757812 C96.31732178 112.99859619 96.31732178 112.99859619 93.97558594 112.97167969 C93.09497498 112.97137756 92.21436401 112.97107544 91.30706787 112.97076416 C89.89436615 112.93979645 89.89436615 112.93979645 88.453125 112.90820312 C87.48215881 112.90254333 86.51119263 112.89688354 85.51080322 112.89105225 C82.41294831 112.86868124 79.31625467 112.81848285 76.21875 112.76757812 C74.11720422 112.74751409 72.01564028 112.72926315 69.9140625 112.71289062 C64.7651783 112.66881393 59.61716097 112.59978071 54.46875 112.51757812 C54.5001709 114.48549316 54.5001709 114.48549316 54.53222656 116.49316406 C54.6046297 121.36089156 54.65055113 126.22857147 54.68847656 131.09667969 C54.70859126 133.20353194 54.73588667 135.31032838 54.77050781 137.41699219 C54.81903168 140.44545259 54.84172016 143.47317491 54.859375 146.50195312 C54.88002014 147.44375427 54.90066528 148.38555542 54.92193604 149.355896 C54.92238922 150.67681244 54.92238922 150.67681244 54.92285156 152.02441406 C54.93173401 152.79718689 54.94061646 153.56995972 54.94976807 154.3661499 C54.25808682 157.459802 52.97436967 158.62372906 50.46875 160.51757812 C47.88867187 161.0255127 47.88867187 161.0255127 44.9375 161.03515625 C43.82955078 161.04776489 42.72160156 161.06037354 41.58007812 161.07336426 C39.7924707 161.06121887 39.7924707 161.06121887 37.96875 161.04882812 C36.12700195 161.05456848 36.12700195 161.05456848 34.24804688 161.0604248 C31.65233541 161.06314654 29.05659664 161.05576724 26.4609375 161.0390625 C22.48375401 161.01765887 18.50837718 161.03885775 14.53125 161.06445312 C12.01041267 161.0618099 9.48957647 161.05668503 6.96875 161.04882812 C5.77701172 161.05692505 4.58527344 161.06502197 3.35742188 161.07336426 C1.69549805 161.05445129 1.69549805 161.05445129 0 161.03515625 C-1.46083008 161.03038269 -1.46083008 161.03038269 -2.95117188 161.0255127 C-6.31226406 160.36382153 -7.49523127 159.23820252 -9.53125 156.51757812 C-10.01226807 154.3661499 -10.01226807 154.3661499 -9.98535156 152.02441406 C-9.98504944 151.1438031 -9.98474731 150.26319214 -9.98443604 149.355896 C-9.96379089 148.41409485 -9.94314575 147.4722937 -9.921875 146.50195312 C-9.91621521 145.53098694 -9.91055542 144.56002075 -9.90472412 143.55963135 C-9.88235311 140.46177643 -9.83215473 137.36508279 -9.78125 134.26757812 C-9.76118597 132.16603234 -9.74293503 130.06446841 -9.7265625 127.96289062 C-9.6824858 122.81400643 -9.61345258 117.66598909 -9.53125 112.51757812 C-11.49916504 112.54899902 -11.49916504 112.54899902 -13.50683594 112.58105469 C-18.37456344 112.65345783 -23.24224335 112.69937926 -28.11035156 112.73730469 C-30.21720382 112.75741938 -32.32400025 112.7847148 -34.43066406 112.81933594 C-37.45912447 112.86785981 -40.48684678 112.89054829 -43.515625 112.90820312 C-44.92832672 112.93917084 -44.92832672 112.93917084 -46.36956787 112.97076416 C-47.25017883 112.97106628 -48.13078979 112.97136841 -49.03808594 112.97167969 C-49.81085876 112.98056213 -50.58363159 112.98944458 -51.37982178 112.99859619 C-54.47347388 112.30691495 -55.63740093 111.02319779 -57.53125 108.51757812 C-58.03918457 105.9375 -58.03918457 105.9375 -58.04882812 102.98632812 C-58.06143677 101.87837891 -58.07404541 100.77042969 -58.08703613 99.62890625 C-58.07893921 98.43716797 -58.07084229 97.24542969 -58.0625 96.01757812 C-58.0663269 94.78974609 -58.07015381 93.56191406 -58.07409668 92.296875 C-58.07681842 89.70116353 -58.06943911 87.10542476 -58.05273438 84.50976562 C-58.03133075 80.53258213 -58.05252963 76.55720531 -58.078125 72.58007812 C-58.07548177 70.0592408 -58.07035691 67.53840459 -58.0625 65.01757812 C-58.07059692 63.82583984 -58.07869385 62.63410156 -58.08703613 61.40625 C-58.07442749 60.29830078 -58.06181885 59.19035156 -58.04882812 58.04882812 C-58.04564575 57.07494141 -58.04246338 56.10105469 -58.03918457 55.09765625 C-57.3774934 51.73656407 -56.25187439 50.55359685 -53.53125 48.51757812 C-51.37982178 48.03656006 -51.37982178 48.03656006 -49.03808594 48.06347656 C-47.71716949 48.06392975 -47.71716949 48.06392975 -46.36956787 48.06439209 C-44.95686615 48.0953598 -44.95686615 48.0953598 -43.515625 48.12695312 C-42.54465881 48.13261292 -41.57369263 48.13827271 -40.57330322 48.144104 C-37.47544831 48.16647501 -34.37875467 48.2166734 -31.28125 48.26757812 C-29.17970422 48.28764216 -27.07814028 48.3058931 -24.9765625 48.32226562 C-19.8276783 48.36634232 -14.67966097 48.43537554 -9.53125 48.51757812 C-9.55219727 47.20563477 -9.57314453 45.89369141 -9.59472656 44.54199219 C-9.6671297 39.67426469 -9.71305113 34.80658478 -9.75097656 29.93847656 C-9.77109126 27.83162431 -9.79838667 25.72482787 -9.83300781 23.61816406 C-9.88153168 20.58970366 -9.90422016 17.56198134 -9.921875 14.53320312 C-9.94252014 13.59140198 -9.96316528 12.64960083 -9.98443604 11.67926025 C-9.98473816 10.79864929 -9.98504028 9.91803833 -9.98535156 9.01074219 C-9.99423401 8.23796936 -10.00311646 7.46519653 -10.01226807 6.66900635 C-8.80063008 1.24976675 -5.07314974 0.01657755 0 0 Z M6.46875 16.51757812 C6.43136719 19.65902344 6.39398438 22.80046875 6.35546875 26.03710938 C6.3092744 29.07534807 6.25803311 32.11346252 6.20629883 35.15161133 C6.17301872 37.26514149 6.14499647 39.37876118 6.12231445 41.49243164 C6.08882528 44.52854618 6.03651236 47.56383787 5.98046875 50.59960938 C5.97088387 52.02005302 5.97088387 52.02005302 5.96110535 53.4691925 C5.94131119 54.349879 5.92151703 55.23056549 5.90112305 56.13793945 C5.89001999 56.91293289 5.87891693 57.68792633 5.86747742 58.48640442 C5.35533135 61.09534871 4.61931799 61.97450163 2.46875 63.51757812 C0.43757629 63.91630554 0.43757629 63.91630554 -1.91088867 63.94995117 C-3.23191841 63.97964241 -3.23191841 63.97964241 -4.57963562 64.00993347 C-5.52659805 64.01632339 -6.47356049 64.02271332 -7.44921875 64.02929688 C-8.42159988 64.04724808 -9.39398102 64.06519928 -10.39582825 64.08369446 C-13.50342464 64.1379028 -16.61086652 64.1717271 -19.71875 64.20507812 C-21.82489134 64.23824188 -23.93101227 64.27273065 -26.03710938 64.30859375 C-31.20184646 64.39613167 -36.36587317 64.45611078 -41.53125 64.51757812 C-41.53125 75.07757813 -41.53125 85.63757813 -41.53125 96.51757812 C-36.81908203 96.57365234 -36.81908203 96.57365234 -32.01171875 96.63085938 C-28.97348006 96.67705373 -25.9353656 96.72829502 -22.8972168 96.7800293 C-20.78368664 96.8133094 -18.67006694 96.84133165 -16.55639648 96.86401367 C-13.52028194 96.89750285 -10.48499025 96.94981577 -7.44921875 97.00585938 C-6.50225632 97.0122493 -5.55529388 97.01863922 -4.57963562 97.02522278 C-3.69894913 97.04501694 -2.81826263 97.0648111 -1.91088867 97.08520508 C-0.74839851 97.10185966 -0.74839851 97.10185966 0.43757629 97.11885071 C3.04652059 97.63099677 3.92567351 98.36701014 5.46875 100.51757812 C5.86747742 102.54875183 5.86747742 102.54875183 5.90112305 104.8972168 C5.93081429 106.21824654 5.93081429 106.21824654 5.96110535 107.56596375 C5.96749527 108.51292618 5.97388519 109.45988861 5.98046875 110.43554688 C5.99841995 111.40792801 6.01637115 112.38030914 6.03486633 113.38215637 C6.08907467 116.48975276 6.12289898 119.59719465 6.15625 122.70507812 C6.18941376 124.81121947 6.22390253 126.91734039 6.25976562 129.0234375 C6.34730354 134.18817458 6.40728265 139.3522013 6.46875 144.51757812 C17.02875 144.51757812 27.58875 144.51757812 38.46875 144.51757812 C38.50613281 141.37613281 38.54351562 138.2346875 38.58203125 134.99804688 C38.6282256 131.95980818 38.67946689 128.92169373 38.73120117 125.88354492 C38.76448128 123.77001476 38.79250353 121.65639507 38.81518555 119.54272461 C38.84867472 116.50661007 38.90098764 113.47131838 38.95703125 110.43554688 C38.96342117 109.48858444 38.9698111 108.54162201 38.97639465 107.56596375 C38.99618881 106.68527725 39.01598297 105.80459076 39.03637695 104.8972168 C39.04748001 104.12222336 39.05858307 103.34722992 39.07002258 102.54875183 C39.58216865 99.93980754 40.31818201 99.06065462 42.46875 97.51757812 C44.49992371 97.11885071 44.49992371 97.11885071 46.84838867 97.08520508 C47.72907516 97.06541092 48.60976166 97.04561676 49.51713562 97.02522278 C50.46409805 97.01883286 51.41106049 97.01244293 52.38671875 97.00585938 C53.35909988 96.98790817 54.33148102 96.96995697 55.33332825 96.95146179 C58.44092464 96.89725345 61.54836652 96.86342915 64.65625 96.83007812 C66.76239134 96.79691437 68.86851227 96.7624256 70.97460938 96.7265625 C76.13934646 96.63902458 81.30337317 96.57904547 86.46875 96.51757812 C86.46875 85.95757812 86.46875 75.39757812 86.46875 64.51757812 C81.75658203 64.46150391 81.75658203 64.46150391 76.94921875 64.40429688 C73.91098006 64.35810252 70.8728656 64.30686123 67.8347168 64.25512695 C65.72118664 64.22184685 63.60756694 64.1938246 61.49389648 64.17114258 C58.45778194 64.1376534 55.42249025 64.08534048 52.38671875 64.02929688 C51.43975632 64.02290695 50.49279388 64.01651703 49.51713562 64.00993347 C48.63644913 63.99013931 47.75576263 63.97034515 46.84838867 63.94995117 C46.07339523 63.93884811 45.29840179 63.92774506 44.49992371 63.91630554 C41.89097941 63.40415948 41.01182649 62.66814611 39.46875 60.51757812 C39.07002258 58.48640442 39.07002258 58.48640442 39.03637695 56.13793945 C39.01658279 55.25725296 38.99678864 54.37656647 38.97639465 53.4691925 C38.97000473 52.52223007 38.96361481 51.57526764 38.95703125 50.59960938 C38.93908005 49.62722824 38.92112885 48.65484711 38.90263367 47.65299988 C38.84842533 44.54540349 38.81460102 41.4379616 38.78125 38.33007812 C38.74808624 36.22393678 38.71359747 34.11781586 38.67773438 32.01171875 C38.59019646 26.84698167 38.53021735 21.68295495 38.46875 16.51757812 C27.90875 16.51757812 17.34875 16.51757812 6.46875 16.51757812 Z " fill="#000000" transform="translate(233.53125,175.482421875)"/>
<path d="M0 0 C4.71036976 0.05979095 9.42018872 0.06723218 14.13088799 0.07315254 C18.72287867 0.08207865 23.3145117 0.11280055 27.90634537 0.15090561 C30.07406875 0.16843452 32.24182848 0.1820056 34.40960312 0.19122696 C50.76234409 0.29031046 66.68433085 1.54558172 81.77935791 8.4197998 C82.5453833 8.75455322 83.31140869 9.08930664 84.10064697 9.4342041 C92.71457385 13.26690414 101.10938734 17.56664612 109.51763916 21.8260498 C138.55191926 36.51620519 163.58893306 47.67843268 196.53326416 48.09558105 C197.40065216 48.10762573 198.26804016 48.11967041 199.16171265 48.13208008 C202.7667869 48.18057865 206.37149 48.228187 209.97686768 48.24572754 C212.64205096 48.26115243 215.30592591 48.30124405 217.97076416 48.34558105 C218.78428848 48.34367264 219.59781281 48.34176422 220.43598938 48.33979797 C224.08492782 48.4191243 226.21724309 48.58695637 229.16387939 50.83068848 C230.77948721 53.09518579 231.19734324 54.16873838 231.15435791 56.9197998 C231.16982666 57.9097998 231.16982666 57.9097998 231.18560791 58.9197998 C230.41248761 61.83037035 228.95109895 63.01270533 226.65435791 64.9197998 C224.18626404 65.42100525 224.18626404 65.42100525 221.38946533 65.42150879 C220.33704147 65.43088974 219.28461761 65.44027069 218.20030212 65.44993591 C216.49726677 65.43308495 216.49726677 65.43308495 214.75982666 65.41589355 C213.58027908 65.41734879 212.40073151 65.41880402 211.18544006 65.42030334 C208.68294819 65.41864223 206.18044632 65.40705746 203.67803955 65.38635254 C199.89429866 65.35769696 196.11198604 65.36568118 192.32818604 65.37878418 C168.40247619 65.3639246 168.40247619 65.3639246 156.65435791 61.9197998 C155.96720703 61.72175751 155.28005615 61.52371521 154.57208252 61.31967163 C143.89212436 58.18335132 133.92894393 53.9900399 123.99435425 49.00048828 C121.76757337 47.8825043 119.53367617 46.7799459 117.29766846 45.68054199 C112.74395406 43.43886343 108.19846394 41.18087794 103.65435791 38.9197998 C78.0936946 25.63921951 78.0936946 25.63921951 50.34259033 18.85778809 C49.56187007 18.77343065 48.78114981 18.68907322 47.97677135 18.6021595 C39.43980261 17.72797141 30.90603703 17.37336226 22.33013916 17.1619873 C21.07898127 17.13042101 21.07898127 17.13042101 19.80254745 17.09821701 C13.52439364 16.94851762 7.24646753 16.85554728 0.96685791 16.7947998 C-0.41284998 16.78107582 -0.41284998 16.78107582 -1.82043076 16.76707458 C-29.22507659 16.54009996 -52.25766789 17.75439056 -76.47454834 31.78112793 C-82.43757412 35.18017475 -88.83207786 37.61198608 -95.20046997 40.13696289 C-97.09353545 40.8939648 -98.9753251 41.67338169 -100.85467529 42.46374512 C-109.0958036 45.9197998 -109.0958036 45.9197998 -111.34564209 45.9197998 C-110.73482269 49.26631034 -110.05490994 52.59287435 -109.34564209 55.9197998 C-109.16001709 56.8891748 -108.97439209 57.8585498 -108.78314209 58.8572998 C-106.24918177 62.492982 -102.54909229 63.10762875 -98.34564209 63.9197998 C-85.21476168 65.76950587 -70.75766482 60.92478009 -58.47064209 56.6072998 C-54.25920704 55.14557839 -50.84088113 54.09414365 -46.34564209 54.9197998 C-42.65377667 57.51196063 -41.51680448 58.96129044 -40.72064209 63.4197998 C-41.34672657 66.92587288 -42.02195828 68.30163512 -44.57952881 70.70202637 C-48.35770478 73.3071607 -52.84756118 74.31701403 -57.22064209 75.5447998 C-58.25205322 75.84329834 -59.28346436 76.14179687 -60.34613037 76.44934082 C-63.3392571 77.30041038 -66.33858437 78.11948392 -69.34564209 78.9197998 C-70.09329834 79.11912109 -70.84095459 79.31844238 -71.61126709 79.52380371 C-84.83818913 82.91840993 -101.22110003 84.77561602 -113.51361084 77.66589355 C-121.18113939 72.38637577 -126.60781187 65.14478189 -128.34564209 55.9197998 C-129.01333093 48.89979348 -129.04054103 42.10284669 -125.34564209 35.9197998 C-120.59695952 30.68730992 -114.90963638 28.08212962 -108.44329834 25.5291748 C-107.48910507 25.13965637 -106.5349118 24.75013794 -105.55180359 24.34881592 C-102.50887918 23.10979417 -99.45892079 21.88933605 -96.40814209 20.6697998 C-93.43730501 19.46726603 -90.46805507 18.2609777 -87.50024414 17.05099487 C-85.4772963 16.23401852 -83.44887948 15.43047452 -81.41564941 14.63943481 C-76.52284082 12.71980872 -71.874156 10.73280266 -67.31341553 8.1126709 C-46.74995866 -3.10041023 -22.69316063 -0.35045224 0 0 Z " fill="#000000" transform="translate(265.34564208984375,31.0802001953125)"/>
<path d="M0 0 C7.40188715 6.07104279 12.03145835 13.41649607 13.03125 23.01171875 C13.22978972 28.9430928 12.93635261 35.15673995 9.75 40.3125 C4.82477993 45.44722724 -0.60984136 48.12009998 -7.15234375 50.703125 C-8.10653702 51.09264343 -9.06073029 51.48216187 -10.0438385 51.88348389 C-13.08676291 53.12250564 -16.1367213 54.34296375 -19.1875 55.5625 C-22.15833708 56.76503377 -25.12758702 57.97132211 -28.09539795 59.18130493 C-30.11834579 59.99828129 -32.14676261 60.80182528 -34.17999268 61.59286499 C-39.07280127 63.51249109 -43.72148609 65.49949714 -48.28222656 68.11962891 C-68.84568343 79.33271004 -92.90248146 76.58275204 -115.59564209 76.2322998 C-120.30601185 76.17250886 -125.01583081 76.16506763 -129.72653008 76.15914726 C-134.31852076 76.15022115 -138.91015379 76.11949926 -143.50198746 76.0813942 C-145.66971084 76.06386529 -147.83747057 76.05029421 -150.00524521 76.04107285 C-166.93337009 75.93850301 -182.92942933 74.43414927 -198.5 67.25 C-199.36512207 66.86569824 -200.23024414 66.48139648 -201.12158203 66.08544922 C-209.40715621 62.35477964 -217.51617748 58.26454614 -225.6171875 54.15234375 C-235.07495574 49.36042996 -244.64606361 44.80309057 -254.25 40.3125 C-254.95125 39.9834668 -255.6525 39.65443359 -256.375 39.31542969 C-274.43138039 30.92550294 -292.48210306 28.37694093 -312.2265625 28.13671875 C-313.09287292 28.12472443 -313.95918335 28.1127301 -314.85174561 28.10037231 C-318.44366705 28.0517256 -322.03521336 28.00409688 -325.62744141 27.98657227 C-328.28603476 27.97115119 -330.94331534 27.93106964 -333.6015625 27.88671875 C-334.8171434 27.88958138 -334.8171434 27.88958138 -336.05728149 27.89250183 C-339.69844627 27.81300625 -341.81814056 27.64162988 -344.75732422 25.40161133 C-346.3754256 23.1369575 -346.79300723 22.06496288 -346.75 19.3125 C-346.76546875 18.3225 -346.76546875 18.3225 -346.78125 17.3125 C-346.0081297 14.40192945 -344.54674104 13.21959448 -342.25 11.3125 C-339.78190613 10.81129456 -339.78190613 10.81129456 -336.98510742 10.81079102 C-335.93268356 10.80141006 -334.8802597 10.79202911 -333.79594421 10.78236389 C-332.66058731 10.79359787 -331.52523041 10.80483185 -330.35546875 10.81640625 C-329.17592117 10.81495102 -327.9963736 10.81349579 -326.78108215 10.81199646 C-324.27859028 10.81365757 -321.77608841 10.82524234 -319.27368164 10.84594727 C-315.48994075 10.87460285 -311.70762813 10.86661862 -307.92382812 10.85351562 C-283.99811828 10.86837521 -283.99811828 10.86837521 -272.25 14.3125 C-271.56284912 14.5105423 -270.87569824 14.70858459 -270.16772461 14.91262817 C-259.48776645 18.04894849 -249.52458601 22.24225991 -239.58999634 27.23181152 C-237.36321546 28.34979551 -235.12931826 29.4523539 -232.89331055 30.55175781 C-228.33959615 32.79343637 -223.79410603 35.05142187 -219.25 37.3125 C-193.68933669 50.5930803 -193.68933669 50.5930803 -165.93823242 57.37451172 C-165.15751216 57.45886915 -164.3767919 57.54322659 -163.57241344 57.6301403 C-155.0354447 58.50432839 -146.50167912 58.85893754 -137.92578125 59.0703125 C-137.09167599 59.0913567 -136.25757072 59.11240089 -135.39818954 59.13408279 C-129.12003573 59.28378219 -122.84210962 59.37675253 -116.5625 59.4375 C-115.64269474 59.44664932 -114.72288948 59.45579865 -113.77521133 59.46522522 C-86.3705655 59.69219985 -63.3379742 58.47790924 -39.12109375 44.45117188 C-33.15806797 41.05212505 -26.76356423 38.62031372 -20.39517212 36.09533691 C-18.50210664 35.338335 -16.62031699 34.55891811 -14.7409668 33.76855469 C-6.49983849 30.3125 -6.49983849 30.3125 -4.25 30.3125 C-4.8608194 26.96598946 -5.54073215 23.63942545 -6.25 20.3125 C-6.435625 19.343125 -6.62125 18.37375 -6.8125 17.375 C-9.35702007 13.72416686 -13.02334441 13.10803431 -17.25 12.3125 C-30.71440648 10.59162782 -44.47597555 15.21339156 -57.0625 19.625 C-61.29221777 21.07859315 -64.74232427 22.14044044 -69.25 21.3125 C-72.94186542 18.72033917 -74.07883761 17.27100936 -74.875 12.8125 C-74.24891552 9.30642693 -73.57368381 7.93066468 -71.01611328 5.53027344 C-67.23793731 2.92513911 -62.74808091 1.91528577 -58.375 0.6875 C-57.34358887 0.38900146 -56.31217773 0.09050293 -55.24951172 -0.21704102 C-52.25638499 -1.06811057 -49.25705772 -1.88718412 -46.25 -2.6875 C-45.50234375 -2.88682129 -44.7546875 -3.08614258 -43.984375 -3.29150391 C-29.82696518 -6.92491396 -12.61544645 -8.68643311 0 0 Z " fill="#000000" transform="translate(362.25,404.6875)"/>
<path d="M0 0 C0.73863281 0.65613281 1.47726563 1.31226563 2.23828125 1.98828125 C2.86347656 2.53097656 3.48867187 3.07367188 4.1328125 3.6328125 C6.82977147 6.13495728 8.9304438 8.40562662 10.66308594 11.68505859 C16.4589015 22.45494706 24.88889281 25.22560336 35.86328125 29.36328125 C37.5404553 30.02512717 39.21625197 30.69047456 40.890625 31.359375 C44.14606578 32.65524287 47.40699163 33.93519338 50.67407227 35.20141602 C54.82645488 36.81788606 58.95168568 38.48863108 63.0546875 40.2265625 C64.10599854 40.67040283 65.15730957 41.11424316 66.24047852 41.5715332 C79.70237198 47.93356332 91.83375456 58.19315545 97.05078125 72.42578125 C100.10546694 83.83696341 99.36417028 97.30934576 94.23828125 107.98828125 C92.59765625 110.34375 92.59765625 110.34375 90.23828125 111.98828125 C83.5737673 112.59709632 78.90469711 111.05880127 72.8359375 108.4296875 C71.93652939 108.05371933 71.03712128 107.67775116 70.11045837 107.29039001 C67.16817211 106.05699174 64.23465407 104.80404459 61.30078125 103.55078125 C59.25775075 102.69000624 57.2141228 101.830648 55.16992188 100.97265625 C50.95717515 99.20291959 46.74742904 97.42629882 42.53955078 95.64501953 C36.47157359 93.08072498 30.38750352 90.55682189 24.296875 88.046875 C22.88511742 87.46468956 22.88511742 87.46468956 21.44483948 86.8707428 C17.82650908 85.37892457 14.20792837 83.88771461 10.58914185 82.39700317 C8.11709062 81.37758099 5.64628508 80.35519668 3.17578125 79.33203125 C2.45591537 79.03594467 1.7360495 78.73985809 0.99436951 78.43479919 C-11.66453854 73.18264167 -11.66453854 73.18264167 -13.76171875 68.98828125 C-14.25705384 65.0256005 -14.41823356 62.91226506 -12.07421875 59.61328125 C-9.40836311 57.73997729 -8.00314845 57.27393207 -4.76171875 56.98828125 C-2.27897192 57.6881801 -0.05283585 58.44976821 2.3203125 59.41796875 C3.01397415 59.68978973 3.7076358 59.96161072 4.4223175 60.2416687 C6.70101363 61.14135277 8.97020605 62.06216987 11.23828125 62.98828125 C12.38898102 63.45506287 12.38898102 63.45506287 13.56292725 63.93127441 C19.36528083 66.29015055 25.14651047 68.69853078 30.92578125 71.11328125 C32.7224523 71.86154113 34.51924742 72.60950315 36.31616211 73.35717773 C39.9107764 74.85307162 43.50488746 76.35016441 47.09863281 77.84814453 C53.8622807 80.66614659 60.63270811 83.467708 67.40420532 86.26678467 C69.27243585 87.03906398 71.14051799 87.81170102 73.00854492 88.58447266 C75.75171487 89.7192582 78.49496049 90.85386035 81.23828125 91.98828125 C80.96671792 89.58944039 80.68239296 87.19327181 80.390625 84.796875 C80.31565796 84.12281616 80.24069092 83.44875732 80.16345215 82.75427246 C79.08941741 74.13836054 75.24399874 69.30742825 68.61328125 63.98828125 C57.89011057 56.72557601 45.47624778 52.30992285 33.55859375 47.41015625 C32.79883743 47.09777008 32.03908112 46.78538391 31.25630188 46.46353149 C27.42586009 44.89054275 23.59254361 43.32523264 19.75366211 41.77294922 C19.03101166 41.47906311 18.30836121 41.185177 17.56381226 40.88238525 C16.20315243 40.3291328 14.84118919 39.7790706 13.47769165 39.23284912 C7.32207773 36.72305852 3.31475018 34.99033921 0.42578125 28.86328125 C-6.70439706 15.1458316 -17.50532795 8.26583407 -31.71875 2.93359375 C-46.57434123 -1.68136527 -67.6829661 -1.05109507 -81.76171875 5.98828125 C-84.07857277 6.10107746 -86.39873028 6.14769286 -88.71826172 6.1652832 C-89.79170837 6.17514 -89.79170837 6.17514 -90.88684082 6.18519592 C-93.25919698 6.20493514 -95.63148987 6.21659207 -98.00390625 6.2265625 C-98.81348911 6.23063803 -99.62307198 6.23471355 -100.45718765 6.23891258 C-104.74114986 6.25977474 -109.02508 6.27407651 -113.30908203 6.28344727 C-117.73681828 6.29451965 -122.16405306 6.32892824 -126.59161186 6.36861897 C-129.99395695 6.3947444 -133.39618174 6.40313538 -136.79861832 6.40672874 C-138.43092363 6.41160431 -140.06322323 6.42324591 -141.69543076 6.44176674 C-143.97948908 6.46607566 -146.26223906 6.46520919 -148.54638672 6.45825195 C-149.84607391 6.46411819 -151.14576111 6.46998444 -152.48483276 6.47602844 C-156.29969066 5.90820697 -157.46853616 5.02551969 -159.76171875 1.98828125 C-160.29296875 -0.01171875 -160.29296875 -0.01171875 -160.26171875 -2.01171875 C-160.2771875 -3.00171875 -160.2771875 -3.00171875 -160.29296875 -4.01171875 C-159.50983895 -6.95997211 -158.12250449 -8.10911538 -155.76171875 -10.01171875 C-152.85151672 -10.49705505 -152.85151672 -10.49705505 -149.42700195 -10.47827148 C-148.14078445 -10.48185165 -146.85456696 -10.48543182 -145.52937317 -10.48912048 C-144.50022262 -10.4781751 -144.50022262 -10.4781751 -143.45028114 -10.46700859 C-141.28153508 -10.44499824 -139.11417562 -10.44888237 -136.94535828 -10.45948792 C-131.54829664 -10.48109971 -126.15153982 -10.46411711 -120.7545166 -10.43798828 C-97.51640677 -9.82314317 -97.51640677 -9.82314317 -75.04931641 -14.80957031 C-50.70588518 -23.71102994 -19.3519283 -16.38895363 0 0 Z " fill="#000000" transform="translate(175.76171875,330.01171875)"/>
<path d="M0 0 C3.25268211 0.92318104 6.30271778 2.21577086 9.40234375 3.55859375 C10.30175186 3.93456192 11.20115997 4.31053009 12.12782288 4.69789124 C15.07010914 5.93128951 18.00362718 7.18423666 20.9375 8.4375 C22.9805305 9.29827501 25.02415845 10.15763325 27.06835938 11.015625 C31.2811061 12.78536166 35.49085221 14.56198243 39.69873047 16.34326172 C45.76670766 18.90755627 51.85077773 21.43145936 57.94140625 23.94140625 C58.88257797 24.32952988 59.82374969 24.7176535 60.79344177 25.11753845 C64.41177217 26.60935668 68.03035288 28.10056664 71.6491394 29.59127808 C74.12119063 30.61070026 76.59199617 31.63308457 79.0625 32.65625 C80.14229881 33.10037987 80.14229881 33.10037987 81.24391174 33.55348206 C93.90281979 38.80563958 93.90281979 38.80563958 96 43 C96.49533509 46.96268075 96.65651481 49.07601619 94.3125 52.375 C91.64664436 54.24830396 90.2414297 54.71434918 87 55 C84.51725317 54.30010115 82.2911171 53.53851304 79.91796875 52.5703125 C79.2243071 52.29849152 78.53064545 52.02667053 77.81596375 51.74661255 C75.53726762 50.84692848 73.2680752 49.92611138 71 49 C69.84930023 48.53321838 69.84930023 48.53321838 68.675354 48.05700684 C62.87300042 45.6981307 57.09177078 43.28975047 51.3125 40.875 C49.51582895 40.12674012 47.71903383 39.3787781 45.92211914 38.63110352 C42.32750485 37.13520963 38.73339379 35.63811684 35.13964844 34.14013672 C28.37600055 31.32213466 21.60557314 28.52057325 14.83407593 25.72149658 C12.9658454 24.94921727 11.09776326 24.17658023 9.22973633 23.40380859 C6.48656638 22.26902305 3.74332076 21.1344209 1 20 C1.12184769 21.73368079 1.25410859 23.46663132 1.390625 25.19921875 C1.49938965 26.64687622 1.49938965 26.64687622 1.61035156 28.1237793 C2.67715642 35.99848358 6.81622939 42.64296251 12.95703125 47.5703125 C24.46263899 55.56289946 38.23867997 60.22824536 51.11880493 65.51638794 C53.94587591 66.6782096 56.77029341 67.8464213 59.59484863 69.01434326 C61.65723685 69.8625535 63.72433124 70.69843298 65.79199219 71.53369141 C67.07376549 72.06104297 68.35535003 72.58885364 69.63671875 73.1171875 C70.76811279 73.57722168 71.89950684 74.03725586 73.06518555 74.51123047 C77.85893994 76.94300106 80.25892316 80.12854105 82.8125 84.75 C90.42937334 97.65321081 101.4644823 105.50364489 115.91870117 109.53515625 C121.98314149 111.04637511 127.8277439 111.38391354 134.0625 111.375 C135.06240967 111.37556396 136.06231934 111.37612793 137.0925293 111.37670898 C146.20481467 111.24314485 155.73171942 110.13414029 164 106 C166.31685402 105.88720379 168.63701153 105.84058839 170.95654297 105.82299805 C172.02998962 105.81314125 172.02998962 105.81314125 173.12512207 105.80308533 C175.49747823 105.78334611 177.86977112 105.77168918 180.2421875 105.76171875 C181.05177036 105.75764322 181.86135323 105.7535677 182.6954689 105.74936867 C186.97943111 105.72850651 191.26336125 105.71420474 195.54736328 105.70483398 C199.97509953 105.6937616 204.40233431 105.65935301 208.82989311 105.61966228 C212.2322382 105.59353685 215.63446299 105.58514587 219.03689957 105.58155251 C220.66920488 105.57667694 222.30150448 105.56503534 223.93371201 105.54651451 C226.21777033 105.52220559 228.50052031 105.52307206 230.78466797 105.5300293 C232.08435516 105.52416306 233.38404236 105.51829681 234.72311401 105.51225281 C238.53797191 106.08007428 239.70681741 106.96276156 242 110 C242.53125 112 242.53125 112 242.5 114 C242.51546875 114.99 242.51546875 114.99 242.53125 116 C241.7481202 118.94825336 240.36078574 120.09739663 238 122 C235.08979797 122.4853363 235.08979797 122.4853363 231.6652832 122.46655273 C229.73595695 122.47192299 229.73595695 122.47192299 227.76765442 122.47740173 C227.08155405 122.47010481 226.39545368 122.46280788 225.68856239 122.45528984 C223.51981633 122.43327949 221.35245687 122.43716362 219.18363953 122.44776917 C213.78657789 122.46938096 208.38982107 122.45239836 202.99279785 122.42626953 C179.75582442 121.81258735 179.75582442 121.81258735 157.28759766 126.79174805 C139.44683845 133.34855165 117.35024269 130.29614598 100.1875 123.125 C98.77913733 122.44191773 97.38318375 121.73272745 96 121 C95.20335937 120.58105469 94.40671875 120.16210938 93.5859375 119.73046875 C83.26800032 113.9326186 73.50563512 105.56460974 67.85351562 95.03955078 C64.95419291 90.37385538 61.6791243 88.83387315 56.65625 86.9296875 C55.85070679 86.6001004 55.04516357 86.27051331 54.21520996 85.93093872 C51.65245978 84.88808492 49.07750697 83.88075018 46.5 82.875 C44.80111203 82.19382374 43.10318403 81.51024813 41.40625 80.82421875 C38.91860572 79.81872922 36.43062131 78.81442692 33.93904114 77.81872559 C14.81443606 70.1545866 -4.96484208 61.73614125 -13.9609375 41.87890625 C-18.11268489 30.58539157 -16.88586652 17.85659427 -13.265625 6.63671875 C-10.20482938 0.2600612 -6.84149848 -0.82625443 0 0 Z " fill="#000000" transform="translate(254,70)"/>
<path d="M0 0 C2.9375 2.0625 2.9375 2.0625 5 5 C5.75828163 11.00847918 3.98978088 14.27773113 0.5 18.9375 C-16.4973401 43.0962172 -25.18846179 71.9168816 -25.18530273 101.34033203 C-25.1874742 103.59817801 -25.20562625 105.85552237 -25.22460938 108.11328125 C-25.25405549 115.96795149 -24.88572147 123.42852061 -23.4309082 131.18115234 C-22.72714001 135.78495264 -22.19035231 140.06649324 -25 144 C-27.65456931 146.06466502 -29.0882176 145.99684937 -32.5 145.875 C-36.48927244 144.87768189 -37.52249629 144.21367808 -40 141 C-40.77873466 138.23010072 -41.31895602 135.74545291 -41.72265625 132.921875 C-41.84407486 132.12883972 -41.96549347 131.33580444 -42.09059143 130.51873779 C-43.3288766 121.77140919 -43.50603179 113.07070144 -43.4375 104.25 C-43.43479095 103.42505035 -43.43208191 102.60010071 -43.42929077 101.75015259 C-43.36347254 88.48321537 -42.36766108 75.88123444 -39 63 C-38.72712158 61.88455811 -38.72712158 61.88455811 -38.44873047 60.74658203 C-33.22736681 39.61382421 -23.05397952 17.75018662 -9 1 C-5.86128812 -0.56935594 -3.46144178 -0.35201103 0 0 Z " fill="#000000" transform="translate(131,152)"/>
<path d="M0 0 C5.87073193 4.70185865 6.56626862 9.74230303 7.49609375 16.8515625 C9.43442736 36.74084811 9.80919683 58.52988239 5 78 C4.70198486 79.24378418 4.70198486 79.24378418 4.39794922 80.51269531 C-0.28663042 99.56682821 -10.44568116 133.71833162 -27.84375 145.21875 C-30.98638321 146.37656223 -33.13715521 145.96118249 -36.3125 145.0625 C-39 143 -39 143 -40.625 139.8125 C-41.29312391 133.01990689 -37.6190151 128.80988969 -33.75 123.5 C-17.47633619 100.70990121 -9.81172935 71.30281751 -9.81469727 43.65966797 C-9.8125258 41.40182199 -9.79437375 39.14447763 -9.77539062 36.88671875 C-9.74588631 28.98639522 -10.12974958 21.48420306 -11.58129883 13.68457031 C-12.19431305 9.75413047 -11.999534 6.85534544 -11 3 C-7.98260982 -0.71371099 -4.54917296 -0.63848041 0 0 Z " fill="#000000" transform="translate(416,215)"/>
<path d="M0 0 C3.28573474 2.16166759 3.90007665 3.63361438 4.9375 7.4375 C5.00754154 11.42986787 4.46465254 12.91918433 2 16 C-1.75047482 18.50031654 -3.55856266 18.53603554 -8 18 C-10.9375 15.9375 -10.9375 15.9375 -13 13 C-13.69151325 8.69725091 -13.51557405 6.79054688 -11.125 3.125 C-7.55474791 -0.44525209 -4.98769854 -0.42997401 0 0 Z " fill="#000000" transform="translate(157,127)"/>
<path d="M0 0 C3.06458538 2.04305692 3.82153128 3.44079802 4.9375 6.9375 C5.0128328 10.62880732 4.24574926 12.1126081 2 15 C-1.75047482 17.50031654 -3.55856266 17.53603554 -8 17 C-11.69186542 14.40783917 -12.82883761 12.95850936 -13.625 8.5 C-13 5 -13 5 -11 2.0625 C-6.84919686 -0.79117716 -4.9698922 -0.7099846 0 0 Z " fill="#000000" transform="translate(365,368)"/>
</svg>
