<?xml version="1.0" encoding="UTF-8"?>
<svg version="1.1" xmlns="http://www.w3.org/2000/svg" width="512" height="512">
<path d="M0 0 C9.9898877 10.45816368 16.72854496 22.85083815 20.6875 36.73046875 C21.00589844 37.84164062 21.32429687 38.9528125 21.65234375 40.09765625 C33.9871237 91.14204518 4.22405935 145.81514951 -21.20166016 187.85400391 C-24.91532085 193.90494684 -28.69829943 199.91080893 -32.51074219 205.89990234 C-34.84399979 209.56545637 -37.16316655 213.23981946 -39.48193359 216.91455078 C-40.5016803 218.52970104 -41.52274271 220.14402171 -42.54541016 221.75732422 C-44.84670715 225.38927539 -47.12265421 229.02962937 -49.3125 232.73046875 C-48.66925781 232.8505127 -48.02601563 232.97055664 -47.36328125 233.09423828 C-6.04992186 240.92521207 -6.04992186 240.92521207 6.4375 256.98046875 C8.77041924 262.11289109 9.41109189 267.34887403 7.75 272.79296875 C3.23655277 282.85835549 -6.51852354 287.8376792 -16.3125 291.73046875 C-54.69905391 305.97945208 -105.82450444 305.63599099 -143.3125 288.73046875 C-150.78578815 284.81842033 -156.94360254 279.36955961 -160.8125 271.79296875 C-161.71475964 266.26662847 -161.26441936 261.63430748 -158.75 256.60546875 C-144.59203853 239.90633471 -122.9536735 235.90802112 -102.3125 232.73046875 C-102.84653442 231.8957605 -102.84653442 231.8957605 -103.39135742 231.04418945 C-161.63968074 139.93162743 -161.63968074 139.93162743 -173.3125 93.73046875 C-173.48894043 93.03646973 -173.66538086 92.3424707 -173.84716797 91.62744141 C-179.78815614 67.10393719 -177.57879708 40.05671146 -165.68359375 17.6640625 C-150.86576943 -6.5051498 -128.90356391 -22.76076444 -101.73046875 -30.2578125 C-63.45614557 -39.32165334 -27.56439246 -27.05221625 0 0 Z M-135.3125 4.73046875 C-136.44751953 5.72626953 -136.44751953 5.72626953 -137.60546875 6.7421875 C-151.87268277 20.02714926 -160.66729622 39.02461466 -161.59765625 58.46875 C-162.28779066 83.71637185 -154.56367263 106.93412015 -144.3125 129.73046875 C-144.00618652 130.42672363 -143.69987305 131.12297852 -143.38427734 131.84033203 C-137.59707087 144.96863025 -130.50067575 157.328571 -123.3125 169.73046875 C-122.86084473 170.51486328 -122.40918945 171.29925781 -121.94384766 172.10742188 C-116.39196273 181.74465608 -110.55922937 191.18296757 -104.58984375 200.56640625 C-100.92411058 206.33053308 -97.3047652 212.12334268 -93.6875 217.91796875 C-93.05553711 218.92996338 -92.42357422 219.94195801 -91.77246094 220.98461914 C-90.53647106 222.96409903 -89.30062728 224.94367016 -88.06494141 226.92333984 C-85.50326187 231.0267379 -82.93917706 235.1286311 -80.375 239.23046875 C-79.57420491 240.5117101 -78.77342198 241.79295905 -77.97265625 243.07421875 C-77.42480469 243.95078125 -76.87695312 244.82734375 -76.3125 245.73046875 C-72.8688099 241.65993184 -70.16172371 237.35325698 -67.4375 232.79296875 C-63.1975701 225.7729824 -58.85695049 218.82626768 -54.4375 211.91796875 C-2.87493172 135.20970075 -2.87493172 135.20970075 7.5 46.29296875 C1.96119351 24.49508514 -10.77658927 6.62804318 -29.93798828 -5.29638672 C-63.55734979 -25.05228533 -106.26903731 -21.50395437 -135.3125 4.73046875 Z M-101.67431641 248.04125977 C-125.44791094 251.28198376 -125.44791094 251.28198376 -145.3125 263.73046875 C-145.6425 264.72046875 -145.9725 265.71046875 -146.3125 266.73046875 C-140.39088096 275.98209361 -127.46122007 279.2781351 -117.3125 281.73046875 C-85.44444389 288.31531966 -41.84664497 290.87105463 -12.76953125 273.18359375 C-8.54404353 270.2396534 -8.54404353 270.2396534 -6.3125 265.73046875 C-12.23235211 256.48160444 -25.16436269 253.17776874 -35.3125 250.73046875 C-47.23279761 247.98643297 -47.23279761 247.98643297 -59.3125 247.73046875 C-61.11848034 249.31203786 -61.11848034 249.31203786 -62.3125 251.60546875 C-62.80234375 252.41757812 -63.2921875 253.2296875 -63.796875 254.06640625 C-64.54710937 255.38511719 -64.54710937 255.38511719 -65.3125 256.73046875 C-66.39219364 258.56594794 -67.47543541 260.39934538 -68.5625 262.23046875 C-69.04203125 263.06578125 -69.5215625 263.90109375 -70.015625 264.76171875 C-71.3125 266.73046875 -71.3125 266.73046875 -73.3125 267.73046875 C-78.74527644 268.1928327 -78.74527644 268.1928327 -80.86425781 266.46557617 C-82.3973536 264.6288075 -83.45219704 262.84442183 -84.546875 260.71875 C-84.95679688 259.96142578 -85.36671875 259.20410156 -85.7890625 258.42382812 C-86.63946758 256.83388366 -87.47283601 255.23471135 -88.2890625 253.62695312 C-89.49224873 251.44290855 -90.62481193 249.56696 -92.3125 247.73046875 C-95.71409155 247.06521284 -98.28365574 247.59508331 -101.67431641 248.04125977 Z " fill="#000000" transform="translate(332.3125,41.26953125)"/>
<path d="M0 0 C1.26143011 1.06715922 2.49023292 2.17382258 3.6875 3.3125 C4.37585938 3.96089844 5.06421875 4.60929687 5.7734375 5.27734375 C13.13509385 12.84425074 17.25129088 21.94195942 17.75390625 32.52734375 C17.46801045 44.51815003 13.93160216 54.65654974 5.69921875 63.49609375 C-3.90647803 72.16919861 -14.69827464 75.11249123 -27.37109375 74.66015625 C-38.69290693 73.66150276 -48.27450504 68.18249505 -55.625 59.625 C-62.87247399 49.98095094 -65.40647431 38.77770718 -63.75 26.875 C-61.40593837 16.0645579 -56.01317287 7.14974373 -47.3125 0.3125 C-33.00584004 -8.7372942 -14.33743537 -10.07267964 0 0 Z M-43.3125 17.3125 C-47.75538534 24.30280057 -50.38085989 31.05860905 -48.625 39.375 C-45.96629896 48.31313311 -41.02287727 53.54168984 -33.125 58.1875 C-25.8772999 60.3261656 -18.96684074 60.45607448 -12 57.3125 C-6.25523375 54.05620737 -2.16797206 49.60174592 1.0625 43.875 C3.20385901 35.09542805 2.88754025 28.16049687 -1.53515625 20.078125 C-5.77393311 13.79670637 -11.85771278 9.80345744 -19.3125 8.3125 C-28.48238956 7.52199228 -36.9461934 10.50203247 -43.3125 17.3125 Z " fill="#000000" transform="translate(279.3125,71.6875)"/>
<path d="M0 0 C6.91241475 6.4684982 10.88410059 13.76857668 11.87890625 23.2421875 C12.01622821 33.78546258 8.90697859 41.76362487 1.73828125 49.453125 C-5.14589384 56.07697415 -12.52818819 59.10686438 -22.12109375 59.2421875 C-32.63343556 58.29877221 -40.08220105 55.05123975 -47.359375 47.40234375 C-54.60252451 38.52105399 -55.07780236 28.24968121 -54.12109375 17.2421875 C-52.09500326 8.36888759 -45.23471028 1.13440961 -37.8046875 -3.796875 C-26.16858232 -10.43836427 -10.16247572 -8.4219412 0 0 Z M-33.93359375 12.0546875 C-38.05488728 16.17598103 -39.32725422 19.87540428 -39.62109375 25.6171875 C-39.44442079 31.2630408 -37.99660841 35.11349851 -34.12109375 39.2421875 C-30.26205362 42.3294196 -26.07896508 44.14303007 -21.12109375 44.2421875 C-15.69960017 43.06737006 -11.04374314 41.28020893 -7.12109375 37.2421875 C-4.22716515 32.59123082 -2.31946104 27.7137209 -3.59375 22.1953125 C-5.48173597 16.70674125 -7.90380627 12.62183304 -12.93359375 9.4921875 C-21.2068701 6.2477654 -26.69079737 7.38710761 -33.93359375 12.0546875 Z " fill="#000000" transform="translate(63.12109375,444.7578125)"/>
<path d="M0 0 C9.31354914 6.44930083 15.03017347 13.00955919 17.4765625 24.20703125 C18.79266062 33.5128932 16.88277099 41.88758992 11.34375 49.48828125 C4.87178394 57.26918426 -1.70491256 61.68781853 -11.83203125 63.078125 C-21.1258894 63.84563581 -29.98132189 61.53200634 -37.21484375 55.5703125 C-43.34514345 49.80194931 -47.76733114 43.20855614 -48.3203125 34.6328125 C-48.62315004 22.63745814 -47.23582445 15.05378554 -38.80078125 6.046875 C-29.16646102 -3.58744523 -12.38949507 -6.80583481 0 0 Z M-27.95703125 16.140625 C-31.99921448 20.30169598 -33.28907652 23.97863117 -33.58203125 29.703125 C-33.40521966 35.35340845 -31.95395317 39.19287338 -28.08203125 43.328125 C-23.91510593 46.73292859 -19.4475966 48.23399227 -14.08203125 48.328125 C-7.80246134 46.86329225 -2.79633244 44.08325191 0.66796875 38.515625 C3.04475429 32.45482187 3.41525225 28.12669739 0.86328125 22.18359375 C-1.76911298 17.01670425 -4.71523999 14.4748415 -10.08203125 12.328125 C-16.65032887 10.28465463 -22.34515413 12.60270247 -27.95703125 16.140625 Z " fill="#000000" transform="translate(57.08203125,114.671875)"/>
<path d="M0 0 C6.85180355 6.41177947 10.8876674 13.44982812 11.27319336 22.94189453 C11.48446168 33.88249002 9.08703849 41.97918823 1.50390625 50.2421875 C-5.33898133 56.36947899 -13.00507458 58.68900302 -22.12109375 59.2421875 C-32.55099577 58.5755626 -40.23102874 54.94468784 -47.36328125 47.37890625 C-53.19767699 40.2868741 -55.51654643 31.84376241 -54.99609375 22.7421875 C-53.75614258 12.6394035 -48.99367947 5.27218483 -41.32421875 -1.296875 C-29.2900182 -10.40239843 -11.55289723 -9.57422422 0 0 Z M-33.93359375 12.0546875 C-38.26816297 16.38925672 -39.91164078 21.16805128 -40.12109375 27.2421875 C-38.95098889 32.30941848 -36.81883803 36.54444322 -33.12109375 40.2421875 C-28.5867685 43.00221156 -24.26753166 44.91722117 -18.91796875 43.76953125 C-13.04058829 41.98880174 -8.92603316 39.79399839 -5.30859375 34.6796875 C-3.38684877 29.11674151 -2.90389822 23.493452 -5 17.89453125 C-7.81193563 12.9295624 -10.91474531 10.48630321 -16.12109375 8.2421875 C-23.1515477 6.32479097 -28.02471524 8.24674357 -33.93359375 12.0546875 Z " fill="#000000" transform="translate(492.12109375,444.7578125)"/>
<path d="M0 0 C7.95628758 5.49324132 13.91690675 11.97880639 16.91796875 21.32421875 C17.93974407 33.15780269 17.34033086 42.14953316 9.60546875 51.57421875 C2.66655775 59.01723867 -4.24125142 62.44735255 -14.43359375 63.2890625 C-24.08978853 63.41724208 -32.34890981 60.14505258 -39.33203125 53.57421875 C-45.67784611 46.84267789 -48.99618253 38.91549306 -49.1171875 29.625 C-48.51676967 19.12501006 -44.62180829 11.57887817 -37.08203125 4.32421875 C-27.48896784 -3.8924486 -11.38462994 -6.27585983 0 0 Z M-27.95703125 16.13671875 C-32.21411933 20.5190153 -33.87297914 25.26170747 -34.08203125 31.32421875 C-32.91192639 36.39144973 -30.77977553 40.62647447 -27.08203125 44.32421875 C-22.43107457 47.21814735 -17.55356465 49.12585146 -12.03515625 47.8515625 C-6.61057496 45.98558811 -2.63133432 43.51461275 0.73046875 38.76171875 C2.65221373 33.19877276 3.13516428 27.57548325 1.0390625 21.9765625 C-2.32306579 16.04013136 -6.50515189 13.49059245 -12.95703125 11.38671875 C-18.56033832 11.27465261 -23.25843853 13.17456247 -27.95703125 16.13671875 Z " fill="#000000" transform="translate(486.08203125,114.67578125)"/>
<path d="M0 0 C2.6304116 1.32901183 4.91004609 3.03026816 7.25 4.8125 C7.87390625 5.26431641 8.4978125 5.71613281 9.140625 6.18164062 C11.99169057 8.28614484 14.01902618 10.02853927 16 13 C15.81989972 16.36187193 15.58112046 18.99918142 13.875 21.9375 C10.82415666 23.66631123 8.4576689 23.32008939 5 23 C2.31307474 21.77315985 0.04483739 20.14237003 -2.3125 18.375 C-2.93189453 17.94832031 -3.55128906 17.52164062 -4.18945312 17.08203125 C-8.12326816 14.22029827 -10.1239128 11.99165964 -11 7 C-8.65271838 0.7797037 -6.62191553 -0.72281472 0 0 Z " fill="#000000" transform="translate(326,347)"/>
<path d="M0 0 C2.5 2.0625 2.5 2.0625 4 5 C4.3125 8.375 4.3125 8.375 3 12 C0.25487974 14.72796326 -2.79719045 16.84344157 -6 19 C-6.85078125 19.65742188 -6.85078125 19.65742188 -7.71875 20.328125 C-10.20666711 22.20729644 -12.03193848 23.00511016 -15.125 23.5 C-18.70512577 22.87736943 -19.83880885 21.8815882 -22 19 C-23.12571428 16.50734695 -23.08973021 15.35892084 -22.42578125 12.703125 C-20.44408771 8.94605122 -17.74155946 7.09604853 -14.3125 4.6875 C-13.71244141 4.23310547 -13.11238281 3.77871094 -12.49414062 3.31054688 C-8.27253385 0.29511347 -5.33473239 -0.70348119 0 0 Z " fill="#000000" transform="translate(338,245)"/>
<path d="M0 0 C2.7029237 1.32155521 5.00117246 3.03768785 7.375 4.875 C8.00277344 5.33519531 8.63054687 5.79539062 9.27734375 6.26953125 C13.83151355 9.66302711 13.83151355 9.66302711 15 12 C15.375 15.375 15.375 15.375 15 19 C12.9375 21.5 12.9375 21.5 10 23 C4.28175053 22.76909681 1.14417403 21.12465 -3.3125 17.625 C-4.33988281 16.83351563 -5.36726563 16.04203125 -6.42578125 15.2265625 C-9.43302574 12.62545573 -10.86579786 11.0512501 -11.375 7.0625 C-11 4 -11 4 -9.4375 1.625 C-6.03003124 -0.64664584 -4.05669804 -0.43271446 0 0 Z " fill="#000000" transform="translate(418,412)"/>
<path d="M0 0 C2.4375 1.625 2.4375 1.625 4 4 C4.62736707 7.68578154 4.46628069 9.3240568 2.33203125 12.41796875 C-0.18612014 15.20607272 -2.72260399 17.24102817 -5.8125 19.375 C-7.30716797 20.43847656 -7.30716797 20.43847656 -8.83203125 21.5234375 C-12.74127607 23.34550229 -14.86677242 23.01833143 -19 22 C-20.9375 20.875 -20.9375 20.875 -22 19 C-22.5 15.625 -22.5 15.625 -22 12 C-20.3454416 9.79392213 -19.14463207 8.63240968 -17 7 C-16.236875 6.38511719 -15.47375 5.77023437 -14.6875 5.13671875 C-6.15459647 -1.35401122 -6.15459647 -1.35401122 0 0 Z " fill="#000000" transform="translate(101,412)"/>
<path d="M0 0 C2.375 1.5 2.375 1.5 4 4 C4.89380933 10.82227906 4.89380933 10.82227906 2.80712891 13.57177734 C1.148236 15.00107988 -0.55064252 16.22703496 -2.375 17.4375 C-2.97828125 17.86998047 -3.5815625 18.30246094 -4.203125 18.74804688 C-9.13123351 22.24700392 -11.85333975 23.63586141 -18 23 C-20.5 20.9375 -20.5 20.9375 -22 18 C-22.3125 14.625 -22.3125 14.625 -21 11 C-18.25487974 8.27203674 -15.20280955 6.15655843 -12 4 C-11.4328125 3.56171875 -10.865625 3.1234375 -10.28125 2.671875 C-6.81724506 0.05544574 -4.29377641 -0.74674372 0 0 Z " fill="#000000" transform="translate(192,347)"/>
<path d="M0 0 C2.70399416 1.34068034 5.00232512 3.08337347 7.375 4.9375 C8.00277344 5.40607422 8.63054687 5.87464844 9.27734375 6.35742188 C13.60700758 9.60700758 13.60700758 9.60700758 15 11 C15.58230683 18.10414334 15.58230683 18.10414334 13.375 21.5 C10.22740426 23.4879552 8.69863571 23.44156289 5 23 C2.37112238 21.6677543 0.09010385 19.96984604 -2.25 18.1875 C-3.18585938 17.50977539 -3.18585938 17.50977539 -4.140625 16.81835938 C-6.99169057 14.71385516 -9.01902618 12.97146073 -11 10 C-10.81989972 6.63812807 -10.58112046 4.00081858 -8.875 1.0625 C-5.81059661 -0.67399525 -3.47320559 -0.33884933 0 0 Z " fill="#000000" transform="translate(181,245)"/>
<path d="M0 0 C1.9375 1.125 1.9375 1.125 3 3 C3.5 6.375 3.5 6.375 3 10 C1.3454416 12.20607787 0.14463207 13.36759032 -2 15 C-2.763125 15.61488281 -3.52625 16.22976562 -4.3125 16.86328125 C-8.1982364 19.8190472 -11.0168155 21.82556404 -15.875 22.6875 C-19.58339743 21.87165256 -20.91275188 21.17261714 -23 18 C-23.62736707 14.31421846 -23.46628069 12.6759432 -21.33203125 9.58203125 C-18.81387986 6.79392728 -16.27739601 4.75897183 -13.1875 2.625 C-11.69283203 1.56152344 -11.69283203 1.56152344 -10.16796875 0.4765625 C-6.25872393 -1.34550229 -4.13322758 -1.01833143 0 0 Z " fill="#000000" transform="translate(430,181)"/>
<path d="M0 0 C3.23828125 1.9609375 3.23828125 1.9609375 6.3125 4.375 C7.33988281 5.16648438 8.36726563 5.95796875 9.42578125 6.7734375 C12.43302574 9.37454427 13.86579786 10.9487499 14.375 14.9375 C14 18 14 18 12.4375 20.375 C9.03003124 22.64664584 7.05669804 22.43271446 3 22 C0.2970763 20.67844479 -2.00117246 18.96231215 -4.375 17.125 C-5.00277344 16.66480469 -5.63054687 16.20460937 -6.27734375 15.73046875 C-10.83151355 12.33697289 -10.83151355 12.33697289 -12 10 C-12.375 6.625 -12.375 6.625 -12 3 C-8.23281244 -1.56628795 -5.51248346 -1.28818034 0 0 Z " fill="#000000" transform="translate(91,181)"/>
<path d="M0 0 C2.88671875 1.8046875 2.88671875 1.8046875 5.6875 3.875 C6.61949219 4.55304688 7.55148437 5.23109375 8.51171875 5.9296875 C10.80738595 7.83974027 12.46790321 9.44650534 14 12 C13.87426834 15.0804257 13.45859649 17.19071208 11.9375 19.875 C9.49387616 21.29387836 7.35400009 21.7717612 4.53125 21.6875 C-1.38697095 20.08008197 -8.95523842 15.06714238 -12.3828125 9.92578125 C-13.44257399 6.6190571 -12.95663798 4.28844304 -12 1 C-7.4492535 -2.49243336 -5.09785779 -2.10618691 0 0 Z " fill="#000000" transform="translate(374,381)"/>
<path d="M0 0 C3.0625 1.5625 3.0625 1.5625 4.5625 3.3125 C5.30331574 6.64617083 5.2178809 8.28892077 4.0625 11.5625 C1.63462977 14.22104674 -1.08102999 16.38186762 -3.9375 18.5625 C-4.9275 19.366875 -5.9175 20.17125 -6.9375 21 C-11.09539586 23.16557076 -13.28154398 23.23836458 -17.9375 22.5625 C-20.5 20.4375 -20.5 20.4375 -21.9375 17.5625 C-22.1875 14.6875 -22.1875 14.6875 -20.9375 11.5625 C-15.77028304 5.67761402 -8.1030404 -0.90033782 0 0 Z " fill="#000000" transform="translate(145.9375,379.4375)"/>
<path d="M0 0 C2.5625 2.125 2.5625 2.125 4 5 C4.25 7.875 4.25 7.875 3 11 C-1.45108641 16.06929286 -7.58370256 20.79224174 -14 23 C-17.8609998 22.57100002 -19.94348214 22.23260417 -22.5 19.25 C-23.24081574 15.91632917 -23.1553809 14.27357923 -22 11 C-19.57212977 8.34145326 -16.85647001 6.18063238 -14 4 C-13.01 3.195625 -12.02 2.39125 -11 1.5625 C-6.84210414 -0.60307076 -4.65595602 -0.67586458 0 0 Z " fill="#000000" transform="translate(384,213)"/>
<path d="M0 0 C6.55806614 1.83209467 14.00797241 7.89732384 17.4609375 13.6875 C17.5234375 17.25 17.5234375 17.25 16.4609375 20.6875 C13.7734375 22.75 13.7734375 22.75 10.4609375 23.6875 C5.86981339 22.56173121 2.5536324 20.60678633 -1.2265625 17.8125 C-2.62455078 16.79542969 -2.62455078 16.79542969 -4.05078125 15.7578125 C-6.34644845 13.84775973 -8.00696571 12.24099466 -9.5390625 9.6875 C-9.41333084 6.6070743 -8.99765899 4.49678792 -7.4765625 1.8125 C-5.01583212 0.38368881 -2.84106713 -0.0844927 0 0 Z " fill="#000000" transform="translate(133.5390625,212.3125)"/>
</svg>
