<?xml version="1.0" encoding="UTF-8"?>
<svg version="1.1" xmlns="http://www.w3.org/2000/svg" width="512" height="512">
<path d="M0 0 C21.5856161 16.64899537 34.04501058 42.06831073 37.79248047 68.83154297 C42.71810017 109.52802836 31.42776034 152.23620959 6.546875 184.9765625 C3.26224187 189.05653133 -0.18120435 192.92752505 -3.7734375 196.7421875 C-6.0627866 199.12858237 -6.0627866 199.12858237 -8.375 202.1875 C-25.30387401 221.18087084 -52.6840811 235.7170855 -77.9375 239.0625 C-82.42126616 239.30343316 -86.88603301 239.29810512 -91.375 239.25 C-92.54482422 239.24935547 -93.71464844 239.24871094 -94.91992188 239.24804688 C-103.51460956 239.20346348 -103.51460956 239.20346348 -106.9375 238.0625 C-107.48857422 239.87041016 -107.48857422 239.87041016 -108.05078125 241.71484375 C-110.22781 248.24592999 -113.20117947 254.40198034 -116.125 260.625 C-116.68989992 261.83638029 -117.25435629 263.04796752 -117.81835938 264.25976562 C-119.18707516 267.19607043 -120.56105214 270.12981566 -121.9375 273.0625 C-112.01925716 273.22461188 -102.23595924 272.80247405 -92.3482151 272.10595512 C-89.82822238 271.92893582 -87.30784857 271.75867242 -84.78727722 271.59010315 C-77.63203096 271.11055025 -70.47753917 270.62031722 -63.32348633 270.12329102 C-58.91820167 269.81769959 -54.51240687 269.52061411 -50.10620689 269.22853279 C-48.44321207 269.11657238 -46.78043053 269.00139032 -45.11789894 268.88274956 C-25.17540191 267.46057931 -12.74754456 269.9145117 3 282.6015625 C6.3732012 285.31217061 9.84709775 287.86251582 13.35546875 290.39453125 C16.38713899 293.35682689 17.03374157 296.28602244 17.1875 300.4375 C14.04750006 310.55527757 0.64976108 315.76917665 -7.95800781 320.82324219 C-10.01080924 322.06200954 -10.01080924 322.06200954 -12.06542969 323.71582031 C-13.9375 325.0625 -13.9375 325.0625 -15.9375 325.0625 C-11.22219976 330.67243189 -6.22647345 335.7545412 -0.8125 340.6875 C11.43221831 351.85651408 11.43221831 351.85651408 13.0625 357.5625 C13.0625 361.87383672 12.6881756 363.61161207 10.0625 367.0625 C2.297338 371.85018836 -6.63215214 374.9340629 -15.0625 378.375 C-16.41420531 378.92999086 -17.76576883 379.48532716 -19.1171875 380.04101562 C-22.38900379 381.38548786 -25.66270106 382.7253064 -28.9375 384.0625 C-24.66228564 390.89054595 -20.25885072 397.57983273 -15.5625 404.125 C-14.51180918 405.59418632 -13.46227059 407.06419757 -12.4140625 408.53515625 C-11.734646 409.48273804 -11.734646 409.48273804 -11.04150391 410.44946289 C-8.89670814 413.58317931 -8.72359805 416.11723475 -8.51171875 419.89453125 C-9.19723892 423.38502387 -10.27238053 424.63896689 -12.9375 427.0625 C-16.75838824 428.65368006 -20.68950535 429.69776999 -24.6875 430.75 C-25.74710937 431.04455078 -26.80671875 431.33910156 -27.8984375 431.64257812 C-30.90573556 432.47275656 -33.91938381 433.27269309 -36.9375 434.0625 C-38.10671997 434.37815918 -38.10671997 434.37815918 -39.29956055 434.70019531 C-49.53758401 437.39815883 -57.30233925 436.17470256 -66.9375 432.0625 C-68.6032103 431.39344738 -70.26959935 430.72607338 -71.9375 430.0625 C-72.57300781 430.91585938 -73.20851563 431.76921875 -73.86328125 432.6484375 C-77.35162041 436.82463546 -81.64047407 439.66723706 -86.125 442.6875 C-86.92486328 443.24695313 -87.72472656 443.80640625 -88.54882812 444.3828125 C-97.85866229 450.72396862 -106.51890752 454.56128683 -117.9375 453.0625 C-125.21272818 451.12625817 -131.82769682 446.53980621 -136.13671875 440.3359375 C-138.50990937 435.63250994 -138.05407393 432.00732741 -136.9375 427.0625 C-135.50325522 424.19401044 -134.19711802 422.32211802 -131.9375 420.0625 C-132.36417969 419.48886719 -132.79085938 418.91523438 -133.23046875 418.32421875 C-138.38761632 411.31687803 -143.31801024 404.17198418 -148.19213867 396.96557617 C-149.76068757 394.65507799 -151.34425916 392.35603097 -152.9375 390.0625 C-153.44933838 389.31790527 -153.96117676 388.57331055 -154.48852539 387.80615234 C-157.31129168 383.84369247 -159.5721615 381.09539533 -164.125 379.0625 C-164.96417969 378.670625 -165.80335938 378.27875 -166.66796875 377.875 C-169.00647805 376.89397256 -169.00647805 376.89397256 -171.9375 377.0625 C-171.17566406 377.64644531 -171.17566406 377.64644531 -170.3984375 378.2421875 C-160.83776544 386.01247153 -155.67280406 396.15872038 -154.125 408.3125 C-153.29539204 421.56779163 -157.0113759 433.12572665 -164.90625 443.69921875 C-173.69697831 453.35917953 -185.32081963 458.07605585 -198.1171875 458.97265625 C-210.96283729 459.27475231 -221.50827496 455.10499573 -231.3125 446.8125 C-239.6623644 438.81110506 -244.76514029 429.12195012 -245.1484375 417.5 C-245.33179154 404.85108308 -245.33179154 404.85108308 -243.9375 402.0625 C-244.37578125 402.46339844 -244.8140625 402.86429687 -245.265625 403.27734375 C-273.01864883 428.15352974 -305.87374932 440.49636081 -343.17871094 439.21484375 C-367.63694891 437.86422955 -391.22022124 429.58497897 -410.9375 415.0625 C-411.75089844 414.47210938 -412.56429687 413.88171875 -413.40234375 413.2734375 C-431.68275126 399.34832967 -444.60347079 381.92906944 -453.9375 361.0625 C-454.66066406 359.44794922 -454.66066406 359.44794922 -455.3984375 357.80078125 C-467.8677594 327.68547958 -467.09463807 291.97391978 -455.05761719 261.86132812 C-450.99825064 252.27565883 -446.12248747 243.45990394 -439.9375 235.0625 C-439.34710938 234.24910156 -438.75671875 233.43570313 -438.1484375 232.59765625 C-416.55442029 204.24976557 -386.19031252 187.82264476 -351.21875 182.49609375 C-346.17210693 181.89432764 -341.13863675 181.91655308 -336.0625 181.9375 C-334.66837891 181.93169922 -334.66837891 181.93169922 -333.24609375 181.92578125 C-327.08665188 181.93437182 -321.05296244 182.33276692 -314.9375 183.0625 C-320.69788771 174.25138064 -326.70565982 165.61934431 -332.72729492 156.98583984 C-337.09656396 150.71801035 -341.4411553 144.43451935 -345.75 138.125 C-346.28157715 137.34664795 -346.8131543 136.5682959 -347.36083984 135.76635742 C-348.39694001 134.24878674 -349.43291389 132.73112983 -350.46875 131.21337891 C-352.72455483 127.90991472 -354.98542166 124.60995522 -357.25 121.3125 C-357.68570313 120.67795898 -358.12140625 120.04341797 -358.5703125 119.38964844 C-361.92313512 114.51608127 -365.30770212 109.66513244 -368.69702148 104.81689453 C-371.44105921 100.88472013 -374.17106919 96.94292354 -376.89892578 92.99951172 C-378.24549613 91.05948282 -379.59793678 89.12351382 -380.95654297 87.19189453 C-399.23693603 61.18217746 -399.23693603 61.18217746 -396.46484375 44.16015625 C-394.31076534 33.93150847 -389.16729762 25.58453329 -380.9375 19.0625 C-370.58597184 12.57989848 -359.97543818 10.61625281 -348.0625 13.1875 C-333.38388157 17.16720109 -326.09741207 26.96571894 -318 39.125 C-316.68202453 41.08142677 -315.36297867 43.03713281 -314.04296875 44.9921875 C-313.03049072 46.49410645 -313.03049072 46.49410645 -311.99755859 48.02636719 C-308.64663205 52.96499275 -305.22983335 57.85719679 -301.8125 62.75 C-296.98827384 69.66567043 -292.18812218 76.59605295 -287.4375 83.5625 C-282.64440409 90.59083057 -277.80232575 97.58363701 -272.9375 104.5625 C-266.37535264 113.97734669 -259.87541321 123.43272921 -253.40625 132.91162109 C-245.99119033 143.77044351 -238.49784677 154.57360374 -230.98120117 165.36230469 C-226.24613484 172.16487311 -221.54907086 178.99201336 -216.88476562 185.84326172 C-213.89394974 190.22874422 -210.87259119 194.59061707 -207.8203125 198.93359375 C-207.11326172 199.94164062 -206.40621094 200.9496875 -205.67773438 201.98828125 C-204.31588182 203.92731786 -202.9502864 205.86373387 -201.58007812 207.796875 C-192.1438111 221.24427693 -186.76849036 230.73039953 -187.03417969 247.1784668 C-187.06823265 252.72451591 -186.43091941 257.11637007 -183.9375 262.0625 C-183.63199219 262.73023438 -183.32648438 263.39796875 -183.01171875 264.0859375 C-181.16132272 267.38300679 -179.8373097 268.77821598 -176.16796875 269.9375 C-173.42128899 270.44523028 -170.71952106 270.82376264 -167.9375 271.0625 C-167.6075 269.92941406 -167.2775 268.79632813 -166.9375 267.62890625 C-164.32510634 259.79325837 -160.50582254 252.43295175 -156.9375 245 C-155.84487332 242.7186942 -154.75387258 240.43665848 -153.66674805 238.15272522 C-152.99448392 236.74083467 -152.31909067 235.33042778 -151.63989258 233.92185974 C-149.4751743 229.38177329 -147.65014209 224.79235636 -145.9375 220.0625 C-146.4221875 219.67320312 -146.906875 219.28390625 -147.40625 218.8828125 C-166.53562415 202.91714253 -177.97124794 177.05816102 -180.75219727 152.51635742 C-184.1264522 107.83304213 -172.24144099 65.08575347 -143.08984375 30.5546875 C-142.02443359 29.32105469 -142.02443359 29.32105469 -140.9375 28.0625 C-139.91849609 26.85980469 -139.91849609 26.85980469 -138.87890625 25.6328125 C-104.6992366 -13.9436471 -45.04111307 -31.42840898 0 0 Z M-128.9375 34.0625 C-132.90356884 38.50444537 -136.47588389 43.22163568 -139.9375 48.0625 C-140.3288916 48.60567871 -140.7202832 49.14885742 -141.12353516 49.70849609 C-152.56187507 65.8352395 -160.10448405 83.97477892 -164.9375 103.0625 C-165.27652344 104.30128906 -165.61554688 105.54007812 -165.96484375 106.81640625 C-172.57110038 135.03760394 -168.55689148 166.9143908 -153.6875 191.875 C-143.93650325 206.15479302 -131.30124598 217.01502866 -114.9375 223.0625 C-114.10992187 223.38089844 -113.28234375 223.69929687 -112.4296875 224.02734375 C-92.58471344 230.30483555 -69.78504072 226.27108686 -51.5 217.25 C-17.83225651 199.67112057 7.24166781 168.98121623 18.77001953 132.84472656 C28.33871668 101.44556886 29.64433164 67.42984142 14.21411133 37.62402344 C3.65871374 18.15752409 -11.9032611 4.91058923 -33.125 -1.6875 C-69.36551618 -10.60666523 -104.41646896 8.43905607 -128.9375 34.0625 Z M-376.9375 33.0625 C-381.76431444 39.14403013 -384.21296756 45.42624452 -384 53.25 C-382.60473272 64.67568872 -373.68983332 74.41388808 -367.1640625 83.52734375 C-363.94052822 88.03737012 -360.80620773 92.60458542 -357.6875 97.1875 C-352.81253584 104.34192711 -347.88893096 111.46078726 -342.9375 118.5625 C-336.37525704 127.97727944 -329.87541255 137.43273018 -323.40625 146.91162109 C-320.71942534 150.84628288 -318.03150324 154.78024097 -315.32006836 158.69799805 C-312.49113182 162.78571198 -309.70538698 166.89926469 -306.94140625 171.03125 C-305.52372105 173.125192 -304.10575311 175.21894261 -302.6875 177.3125 C-302.02580811 178.3137793 -301.36411621 179.31505859 -300.68237305 180.34667969 C-296.88262492 185.91843719 -293.97812851 189.09946098 -287.9375 192.0625 C-286.75 195.0625 -286.75 195.0625 -286.9375 198.0625 C-288.3125 200.5625 -288.3125 200.5625 -290.9375 202.0625 C-294.06681723 201.89745162 -296.94540802 200.95084636 -299.9375 200.0625 C-302.0392059 199.51136257 -304.14347429 198.96991859 -306.25 198.4375 C-307.23613281 198.17710937 -308.22226562 197.91671875 -309.23828125 197.6484375 C-312.1286462 196.92107596 -312.1286462 196.92107596 -315.9375 197.0625 C-320.74093478 206.66936956 -317.25700982 224.26075889 -314.3359375 234.27734375 C-311.11157229 243.47088134 -306.31943502 255.44271166 -298.9375 262.0625 C-295.95275301 262.37380881 -295.95275301 262.37380881 -294.17207336 260.65783691 C-293.52143417 260.00053589 -292.87079498 259.34323486 -292.20043945 258.66601562 C-291.45989822 257.9252478 -290.71935699 257.18447998 -289.95637512 256.42126465 C-288.76560616 255.2072699 -288.76560616 255.2072699 -287.55078125 253.96875 C-286.32526802 252.73686951 -286.32526802 252.73686951 -285.07499695 251.48010254 C-282.45956391 248.84783728 -279.85473587 246.20534694 -277.25 243.5625 C-275.48180706 241.77926618 -273.7129354 239.99670508 -271.94335938 238.21484375 C-267.60015853 233.83851329 -263.26562679 229.45373626 -258.9375 225.0625 C-259.42605469 224.30324219 -259.91460937 223.54398438 -260.41796875 222.76171875 C-262.21495617 219.56964083 -262.33860018 217.67240158 -261.9375 214.0625 C-259.9375 212.0625 -259.9375 212.0625 -257.12109375 211.71875 C-249.63604317 212.52695178 -243.39098902 220.11149573 -238.76953125 225.70703125 C-238.16496094 226.48433594 -237.56039062 227.26164063 -236.9375 228.0625 C-236.17824219 229.03574219 -235.41898438 230.00898438 -234.63671875 231.01171875 C-223.57041164 245.63162724 -216.09324185 261.52040274 -210.9375 279.0625 C-210.11765625 278.65257812 -209.2978125 278.24265625 -208.453125 277.8203125 C-201.6953125 274.44140625 -201.6953125 274.44140625 -194.9375 271.0625 C-195.3396875 269.9178125 -195.3396875 269.9178125 -195.75 268.75 C-196.141875 267.533125 -196.53375 266.31625 -196.9375 265.0625 C-197.33388672 263.93134766 -197.33388672 263.93134766 -197.73828125 262.77734375 C-199.96974957 255.7656684 -200.07294373 249.4206066 -199.65234375 242.15234375 C-199.81008674 232.51104461 -205.95884322 224.61712526 -211.375 217.125 C-212.81579728 215.09424158 -214.25589146 213.06298415 -215.6953125 211.03125 C-216.76894043 209.52498047 -216.76894043 209.52498047 -217.86425781 207.98828125 C-220.87784845 203.73547034 -223.81779911 199.43414958 -226.75 195.125 C-227.81232401 193.56889026 -228.87482037 192.01289816 -229.9375 190.45703125 C-230.4428125 189.71662598 -230.948125 188.9762207 -231.46875 188.21337891 C-238.88380967 177.35455649 -246.37715323 166.55139626 -253.89379883 155.76269531 C-258.63271483 148.95459631 -263.32980576 142.11938561 -268.00341797 135.26635742 C-272.27835444 129.00620713 -276.6025589 122.78121401 -280.9375 116.5625 C-287.49964736 107.14765331 -293.99958679 97.69227079 -300.46875 88.21337891 C-309.26873838 75.32642784 -318.15538058 62.49952201 -327.09277344 49.70751953 C-328.73728815 47.34956925 -330.37353887 44.98614459 -332.0078125 42.62109375 C-332.87970892 41.37204707 -333.75206091 40.1233182 -334.625 38.875 C-335.35074219 37.82957031 -336.07648438 36.78414062 -336.82421875 35.70703125 C-341.71150961 29.59114232 -347.50822764 26.19166294 -355.25 25.1875 C-363.51379754 24.64928795 -370.93990981 27.27430198 -376.9375 33.0625 Z M-407.9375 220.0625 C-409.26947526 221.06430821 -410.60232731 222.06495719 -411.9375 223.0625 C-410.61039741 226.00459835 -409.16960009 228.07864431 -406.88766479 230.35284424 C-406.26226807 230.9809903 -405.63687134 231.60913635 -404.99252319 232.25631714 C-404.30775909 232.93389069 -403.622995 233.61146423 -402.91748047 234.30957031 C-402.19542419 235.03191864 -401.47336792 235.75426697 -400.72943115 236.49850464 C-398.34256011 238.88398279 -395.9486838 241.26229939 -393.5546875 243.640625 C-391.89801221 245.29357002 -390.24177805 246.94695727 -388.58596802 248.60076904 C-384.22724083 252.95186088 -379.86254076 257.29691313 -375.49658203 261.64074707 C-371.04228495 266.07458371 -366.59364582 270.51408909 -362.14453125 274.953125 C-353.41439145 283.6618166 -344.67793306 292.36414008 -335.9375 301.0625 C-334.8285562 300.11982958 -333.72073936 299.17583333 -332.61338806 298.23129272 C-331.99634978 297.70574987 -331.3793115 297.18020702 -330.7435751 296.63873863 C-328.20016615 294.41899736 -325.82094336 292.05767971 -323.44140625 289.6640625 C-322.96299789 289.1842392 -322.48458954 288.70441589 -321.99168396 288.21005249 C-320.49205121 286.70490542 -318.99596872 285.19628786 -317.5 283.6875 C-316.47224017 282.65471405 -315.44424715 281.62216009 -314.41601562 280.58984375 C-311.92048402 278.08339713 -309.42811918 275.5738292 -306.9375 273.0625 C-307.31769287 272.57273682 -307.69788574 272.08297363 -308.08959961 271.57836914 C-316.82199557 260.16118092 -323.27028486 247.99497198 -326.9375 234.0625 C-327.12441406 233.35722168 -327.31132812 232.65194336 -327.50390625 231.92529297 C-329.29712719 224.28674005 -329.16322158 216.74729629 -329.0625 208.9375 C-329.05244282 207.58594419 -329.04332184 206.23438107 -329.03515625 204.8828125 C-329.01177319 201.60918442 -328.97900061 198.33594006 -328.9375 195.0625 C-358.43039406 194.13114545 -384.49852533 201.86804634 -407.9375 220.0625 Z M-134.9375 229.0625 C-136.98303668 233.41797294 -139.02767314 237.77386699 -141.0715332 242.13012695 C-141.76465483 243.60712657 -142.45800783 245.08401763 -143.15161133 246.56079102 C-144.81087963 250.09377457 -146.46679113 253.62822768 -148.11474609 257.16650391 C-149.25119335 259.60538963 -150.40583366 262.03167306 -151.57666016 264.45458984 C-152.04249512 265.43250488 -152.50833008 266.41041992 -152.98828125 267.41796875 C-153.59603394 268.67130005 -153.59603394 268.67130005 -154.21606445 269.94995117 C-155.22548266 272.20830099 -155.22548266 272.20830099 -153.9375 275.0625 C-150.59132088 275.95481443 -147.26007128 276.2661295 -143.8125 276.4375 C-142.96429688 276.48648438 -142.11609375 276.53546875 -141.2421875 276.5859375 C-138.75754994 276.29536056 -138.75754994 276.29536056 -137.53051758 274.01855469 C-135.62112803 270.47542999 -133.86261123 266.88122 -132.14453125 263.2421875 C-131.79363937 262.50171173 -131.4427475 261.76123596 -131.08122253 260.99832153 C-130.34449056 259.44078872 -129.60918957 257.88257831 -128.87524414 256.32373047 C-127.74907882 253.93554651 -126.61398394 251.55174087 -125.47851562 249.16796875 C-124.76247011 247.65130155 -124.04695665 246.13438302 -123.33203125 244.6171875 C-122.82117729 243.54837845 -122.82117729 243.54837845 -122.30000305 242.45797729 C-120.90888792 239.48299823 -119.9375 237.38818232 -119.9375 234.0625 C-121.87217942 233.22263916 -123.81035129 232.39081973 -125.75 231.5625 C-126.82894531 231.0984375 -127.90789062 230.634375 -129.01953125 230.15625 C-131.88632024 228.88700697 -131.88632024 228.88700697 -134.9375 229.0625 Z M-422.9375 234.0625 C-424.59601343 235.94235068 -426.11859328 237.81536138 -427.625 239.8125 C-428.07198242 240.40305176 -428.51896484 240.99360352 -428.97949219 241.60205078 C-443.00673922 260.44770249 -451.19740828 282.90035944 -451 306.4375 C-450.99548828 307.45972656 -450.99097656 308.48195313 -450.98632812 309.53515625 C-450.974603 312.04433194 -450.95819176 314.5533849 -450.9375 317.0625 C-450.19814209 317.04678955 -449.45878418 317.0310791 -448.69702148 317.01489258 C-420.57660559 316.49645317 -396.16068451 320.16992195 -373.9375 339.0625 C-367.38372903 333.67609076 -361.46503365 327.70364873 -355.5 321.6875 C-354.47224017 320.65471405 -353.44424715 319.62216009 -352.41601562 318.58984375 C-349.92048402 316.08339713 -347.42811918 313.5738292 -344.9375 311.0625 C-349.10132689 306.0995059 -353.43156442 301.41987566 -358.01269531 296.84204102 C-358.69310883 296.15826889 -359.37352234 295.47449677 -360.07455444 294.77000427 C-362.30229155 292.53284237 -364.5337106 290.29940016 -366.765625 288.06640625 C-368.321749 286.50706684 -369.87779849 284.94765307 -371.43377686 283.38816833 C-374.68324379 280.13273363 -377.93475086 276.87935231 -381.1875 273.62719727 C-385.36470054 269.45009892 -389.53494717 265.26613056 -393.70351028 261.08041477 C-396.90845002 257.86439388 -400.11788644 254.65289031 -403.32863617 251.44267082 C-404.86929496 249.90082872 -406.40832499 248.35735738 -407.94571686 246.81225777 C-410.08575196 244.66248915 -412.23195209 242.51907291 -414.37988281 240.37719727 C-415.01781769 239.73364288 -415.65575256 239.0900885 -416.3130188 238.42703247 C-419.10443925 235.18451114 -419.10443925 235.18451114 -422.9375 234.0625 Z M-249.9375 234.0625 C-262.4775 246.6025 -275.0175 259.1425 -287.9375 272.0625 C-273.43096639 286.56903361 -254.9191475 292.28847481 -234.75 292.3125 C-228.24125226 292.3913195 -228.24125226 292.3913195 -221.9375 291.0625 C-222.96755762 271.49140528 -233.68901079 251.95649624 -245.9375 237.0625 C-247.2575 236.0725 -248.5775 235.0825 -249.9375 234.0625 Z M-297.9375 282.0625 C-307.1775 291.3025 -316.4175 300.5425 -325.9375 310.0625 C-321.36494643 315.45840611 -321.36494643 315.45840611 -316.5585022 320.56175232 C-315.96126343 321.16036575 -315.36402466 321.75897919 -314.74868774 322.37573242 C-314.1157077 323.00511719 -313.48272766 323.63450195 -312.83056641 324.28295898 C-312.14694031 324.96673111 -311.46331421 325.65050323 -310.75897217 326.35499573 C-308.521367 328.59190983 -306.28025155 330.82527089 -304.0390625 333.05859375 C-302.47800184 334.61778737 -300.91716327 336.17720339 -299.35653687 337.73683167 C-295.26529371 341.8242722 -291.17105542 345.9086996 -287.07617188 349.99249268 C-282.8914051 354.1669967 -278.70949759 358.34436292 -274.52734375 362.52148438 C-266.33351449 370.70461611 -258.13651608 378.88456539 -249.9375 387.0625 C-232.11396892 373.24249883 -222.91250375 345.90772665 -220.15136719 324.34179688 C-219.5190699 317.60306692 -219.72415846 310.81831529 -219.9375 304.0625 C-220.67685791 304.07821045 -221.41621582 304.0939209 -222.17797852 304.11010742 C-252.34386812 304.66625801 -273.33526203 299.63552712 -297.9375 282.0625 Z M-34.49169922 281.32151794 C-35.40014587 281.37897186 -36.30859253 281.43642578 -37.24456787 281.49562073 C-38.72838959 281.59144691 -38.72838959 281.59144691 -40.2421875 281.68920898 C-41.28973206 281.75587769 -42.33727661 281.82254639 -43.41656494 281.89123535 C-46.88197053 282.11224708 -50.34724321 282.3352618 -53.8125 282.55859375 C-56.21858679 282.71314679 -58.62467404 282.86769279 -61.03076172 283.02223206 C-66.07460881 283.34659186 -71.11837813 283.67213505 -76.16210938 283.99829102 C-82.63181169 284.41640657 -89.10180017 284.82990736 -95.5718689 285.24230862 C-100.54077113 285.55982276 -105.50945684 285.88062894 -110.47808838 286.20234871 C-112.86387338 286.35626545 -115.24973802 286.50895271 -117.63568115 286.66039848 C-120.96829328 286.87225993 -124.30057393 287.08874926 -127.6328125 287.30639648 C-128.62202698 287.36825638 -129.61124146 287.43011627 -130.63043213 287.49385071 C-131.99310211 287.58426132 -131.99310211 287.58426132 -133.38330078 287.67649841 C-134.56462082 287.75254633 -134.56462082 287.75254633 -135.76980591 287.83013058 C-137.90337011 288.05884139 -139.87219133 288.48954325 -141.9375 289.0625 C-142.60968507 291.81125682 -143.27542435 294.56130726 -143.9375 297.3125 C-144.22367187 298.47845703 -144.22367187 298.47845703 -144.515625 299.66796875 C-144.69609375 300.42207031 -144.8765625 301.17617188 -145.0625 301.953125 C-145.23007812 302.64438477 -145.39765625 303.33564453 -145.5703125 304.04785156 C-146.05703671 306.37705624 -146.05703671 306.37705624 -145.9375 310.0625 C-132.91210489 311.41488865 -119.88707638 312.59638345 -106.828125 313.5703125 C-105.07899643 313.70193027 -103.32987135 313.83359436 -101.58074951 313.96530151 C-97.95419594 314.23766257 -94.32749139 314.50790222 -90.70068359 314.77685547 C-86.09954267 315.11845919 -81.49903249 315.46789895 -76.89862442 315.81921577 C-73.30055423 316.09267488 -69.70209284 316.36069225 -66.103508 316.627285 C-64.40844006 316.75371836 -62.71351148 316.88203758 -61.01874542 317.01245499 C-52.73349214 317.64804756 -44.45419116 318.18739845 -36.14355469 318.31201172 C-34.89435242 318.33270721 -33.64515015 318.35340271 -32.35809326 318.37472534 C-26.90114615 317.87662544 -23.09072209 315.46314033 -18.70996094 312.31787109 C-16.5706032 310.80264004 -14.38644674 309.36508957 -12.1953125 307.92578125 C-7.75368708 305.00395552 -3.33888269 302.04453233 1.0625 299.0625 C-2.76643763 295.03551387 -6.84503368 291.67177484 -11.3125 288.375 C-11.94671875 287.88966797 -12.5809375 287.40433594 -13.234375 286.90429688 C-20.05324048 281.85972802 -26.0865621 280.78445791 -34.49169922 281.32151794 Z M-202.9375 289.5 C-206.40582899 293.94379652 -208.33586374 296.85894383 -208.125 302.60546875 C-208.09970215 303.67095947 -208.0744043 304.7364502 -208.04833984 305.83422852 C-208.0117627 306.96143311 -207.97518555 308.0886377 -207.9375 309.25 C-207.74953932 320.23958711 -208.61177311 330.3414663 -210.9375 341.0625 C-211.15019531 342.08472656 -211.36289062 343.10695313 -211.58203125 344.16015625 C-212.00604116 346.1337851 -212.46502447 348.09990933 -212.9375 350.0625 C-208.45346673 354.31658284 -204.0901484 356.91400563 -197.9375 358.0625 C-196.4525 357.5675 -196.4525 357.5675 -194.9375 357.0625 C-193.9040843 354.18409061 -193.9040843 354.18409061 -193.2199707 350.58666992 C-193.07322906 349.91019913 -192.92648743 349.23372833 -192.77529907 348.53675842 C-192.29170834 346.29137168 -191.8273423 344.04246608 -191.36328125 341.79296875 C-191.03230948 340.23434109 -190.7002795 338.67593779 -190.36723328 337.11775208 C-189.67088981 333.84666864 -188.98328581 330.57391468 -188.30249023 327.29956055 C-187.42999777 323.103737 -186.54254512 318.91127015 -185.64933491 314.71981335 C-184.79865104 310.72448811 -183.95577717 306.72752702 -183.11328125 302.73046875 C-182.95173365 301.96754202 -182.79018604 301.20461529 -182.62374306 300.41856956 C-182.16712303 298.25542708 -181.71610044 296.09119623 -181.2668457 293.92651367 C-180.88070854 292.07904793 -180.88070854 292.07904793 -180.48677063 290.19425964 C-179.82233307 286.9357833 -179.82233307 286.9357833 -179.9375 283.0625 C-188.51999771 282.49971326 -196.12763283 283.96698293 -202.9375 289.5 Z M-166.9375 285.0625 C-169.07179582 294.67338775 -171.19366566 304.28692504 -173.2995472 313.90408134 C-174.27770189 318.36924222 -175.26017359 322.83336248 -176.25244141 327.29541016 C-177.20919983 331.59852074 -178.15470857 335.90396032 -179.09234238 340.21127701 C-179.45273978 341.85726759 -179.8172383 343.50236555 -180.18582535 345.1465416 C-180.69991432 347.44298667 -181.1995579 349.74212345 -181.69580078 352.04248047 C-181.85260315 352.72724457 -182.00940552 353.41200867 -182.17095947 354.11752319 C-182.63766618 356.19312733 -182.63766618 356.19312733 -182.9375 359.0625 C-180.44244038 361.55755962 -179.26421112 361.42198376 -175.8125 361.6875 C-174.52110107 361.78683838 -174.52110107 361.78683838 -173.20361328 361.88818359 C-172.4557959 361.94570801 -171.70797852 362.00323242 -170.9375 362.0625 C-167.3751265 348.49618268 -164.40235414 334.80512423 -161.45385742 321.09448242 C-160.89607436 318.50732193 -160.33543711 315.92101238 -159.76928711 313.33569336 C-158.94657528 309.57306965 -158.13412914 305.80836601 -157.32421875 302.04296875 C-157.06912033 300.88371384 -156.81402191 299.72445892 -156.55119324 298.53007507 C-156.21007256 296.9261364 -156.21007256 296.9261364 -155.86206055 295.28979492 C-155.65872604 294.34988205 -155.45539154 293.40996918 -155.24589539 292.4415741 C-154.74330944 289.91913872 -154.74330944 289.91913872 -155.9375 287.0625 C-159.5675 286.4025 -163.1975 285.7425 -166.9375 285.0625 Z M-338.62133789 322.6328125 C-339.80351217 323.81514608 -340.98291539 325.00025415 -342.16015625 326.1875 C-342.78023056 326.80898926 -343.40030487 327.43047852 -344.03916931 328.07080078 C-346.02846015 330.0657106 -348.01425501 332.06406118 -350 334.0625 C-351.34417301 335.41168556 -352.68857106 336.76064695 -354.03320312 338.109375 C-357.33725707 341.42448312 -360.63817866 344.74268206 -363.9375 348.0625 C-363.53917969 348.65780518 -363.14085937 349.25311035 -362.73046875 349.86645508 C-349.19623916 370.12457884 -341.70125841 389.00243632 -341.875 413.5 C-341.87951172 414.70849609 -341.88402344 415.91699219 -341.88867188 417.16210938 C-341.90039855 420.12895789 -341.91681104 423.0957027 -341.9375 426.0625 C-312.5571153 427.05532902 -283.39833453 418.72066449 -260.9375 399.0625 C-259.9475 397.5775 -259.9475 397.5775 -258.9375 396.0625 C-268.82636895 386.15030357 -278.71810831 376.24097967 -288.61319637 366.33499146 C-293.20724195 361.73571574 -297.80034799 357.13550969 -302.39135742 352.53320312 C-306.81766301 348.09607331 -311.24637019 343.66135397 -315.67679024 339.22833252 C-317.3710354 337.53223227 -319.06439674 335.83524873 -320.75687981 334.13739014 C-323.11809311 331.76897257 -325.4823615 329.4036473 -327.84741211 327.0390625 C-328.55447296 326.32840637 -329.26153381 325.61775024 -329.99002075 324.88555908 C-330.63087112 324.24608337 -331.2717215 323.60660767 -331.93199158 322.94775391 C-332.49151992 322.38730377 -333.05104826 321.82685364 -333.62753201 321.24942017 C-336.06462595 319.04124718 -335.97859968 320.10186118 -338.62133789 322.6328125 Z M-148.9375 323.0625 C-150.37418294 326.9235854 -151.04935208 329.958927 -150.9375 334.0625 C-142.84674167 337.5154452 -134.6945462 340.68573915 -126.4140625 343.65234375 C-125.24521515 344.07410385 -124.0763678 344.49586395 -122.87210083 344.93040466 C-119.74643722 346.05785614 -116.61992642 347.18288419 -113.49284363 348.30638885 C-107.6372122 350.41043456 -101.78310468 352.51870934 -95.9296875 354.62890625 C-95.28542313 354.86103821 -94.64115875 355.09317017 -93.97737122 355.33233643 C-85.58886318 358.35643585 -77.22272686 361.43401986 -68.8828125 364.58984375 C-67.99199982 364.92533737 -67.10118713 365.26083099 -66.18338013 365.60649109 C-62.12702783 367.13425742 -58.07615634 368.67389628 -54.03369141 370.23803711 C-52.62167053 370.77133632 -51.20941411 371.30401246 -49.796875 371.8359375 C-48.60545898 372.29403809 -47.41404297 372.75213867 -46.18652344 373.22412109 C-40.10349758 374.79378677 -35.26724418 372.59206766 -29.67578125 370.2265625 C-29.00330856 369.94654388 -28.33083588 369.66652527 -27.63798523 369.37802124 C-26.22565838 368.787766 -24.81468813 368.19425525 -23.4050293 367.59765625 C-21.25011127 366.68754699 -19.0893776 365.79243681 -16.92773438 364.8984375 C-15.55170886 364.32120438 -14.17604473 363.74310883 -12.80078125 363.1640625 C-11.83510979 362.76545517 -11.83510979 362.76545517 -10.84992981 362.35879517 C-7.66693687 360.99877333 -5.15493038 359.7666834 -2.9375 357.0625 C-13.30455065 346.41242855 -13.30455065 346.41242855 -24.32421875 336.45703125 C-25.9375 335.0625 -25.9375 335.0625 -27.38104248 333.04962158 C-31.37447494 329.9455466 -35.51516284 330.16921589 -40.45410156 329.87402344 C-41.52448166 329.79541077 -42.59486176 329.7167981 -43.69767761 329.63580322 C-47.24015841 329.38013529 -50.78382557 329.15083036 -54.328125 328.921875 C-56.79199783 328.74976008 -59.2557627 328.57609343 -61.71942139 328.40093994 C-68.21230461 327.9438919 -74.70652229 327.50952896 -81.20123291 327.0793457 C-86.49155422 326.72520498 -91.78071589 326.35530194 -97.06988907 325.98446274 C-108.01321076 325.2175006 -118.95729882 324.460872 -129.90332031 323.73339844 C-131.4076487 323.63061584 -131.4076487 323.63061584 -132.94236755 323.52575684 C-138.288484 323.17549631 -143.57992589 322.99463759 -148.9375 323.0625 Z M-449.9375 330.0625 C-447.79410102 340.16880582 -445.4725584 349.71423296 -440.9375 359.0625 C-440.65922363 359.64209473 -440.38094727 360.22168945 -440.09423828 360.81884766 C-435.40861781 370.45617305 -429.73902459 378.79753262 -422.9375 387.0625 C-419.75490149 385.65740901 -417.62401534 383.99328658 -415.17871094 381.53076172 C-414.09804352 380.44986771 -414.09804352 380.44986771 -412.99554443 379.34713745 C-412.22873352 378.57000397 -411.46192261 377.79287048 -410.671875 376.9921875 C-409.48177826 375.79784592 -409.48177826 375.79784592 -408.26763916 374.57937622 C-405.73619297 372.03674052 -403.21179197 369.48723652 -400.6875 366.9375 C-398.97181383 365.21178247 -397.25567338 363.48651645 -395.5390625 361.76171875 C-391.33325752 357.53386968 -387.13321493 353.30036131 -382.9375 349.0625 C-396.39272681 335.44930246 -414.13962666 328.97172808 -433.11816406 328.7434082 C-441.65298248 328.50877626 -441.65298248 328.50877626 -449.9375 330.0625 Z M-153.9375 347.0625 C-155.79465944 351.22092222 -156.72740051 355.42255628 -157.5625 359.875 C-157.6965625 360.56787109 -157.830625 361.26074219 -157.96875 361.97460938 C-158.29608288 363.66972609 -158.61740594 365.36600146 -158.9375 367.0625 C-157.92888916 367.60438965 -157.92888916 367.60438965 -156.89990234 368.15722656 C-145.22947943 374.42926169 -133.56221307 380.70601256 -121.9375 387.0625 C-112.8619591 392.02488145 -103.75960155 396.93612779 -94.64672852 401.82958984 C-89.324032 404.69036524 -84.00972907 407.56458586 -78.71484375 410.4765625 C-77.23661133 411.28867187 -77.23661133 411.28867187 -75.72851562 412.1171875 C-73.89343812 413.12704535 -72.05996597 414.13982885 -70.22851562 415.15625 C-57.24341013 422.29957144 -50.05262081 424.26638005 -35.5 420.0625 C-34.48228516 419.77632813 -33.46457031 419.49015625 -32.41601562 419.1953125 C-29.92077197 418.49242696 -27.42819143 417.78131794 -24.9375 417.0625 C-24.9375 413.78506267 -25.28766374 413.19053348 -27.09765625 410.62109375 C-27.55809326 409.95948242 -28.01853027 409.29787109 -28.49291992 408.61621094 C-28.99025635 407.91786133 -29.48759277 407.21951172 -30 406.5 C-31.01846594 405.05615657 -32.0366954 403.61214631 -33.0546875 402.16796875 C-33.55194336 401.46591309 -34.04919922 400.76385742 -34.56152344 400.04052734 C-35.72889826 398.36237425 -36.84322981 396.64751744 -37.9453125 394.92578125 C-38.49960937 394.06339844 -39.05390625 393.20101562 -39.625 392.3125 C-40.08261719 391.57515625 -40.54023438 390.8378125 -41.01171875 390.078125 C-46.42989012 384.4071789 -55.64719793 382.21273281 -62.859375 379.640625 C-64.0177034 379.22296371 -65.1760318 378.80530243 -66.36946106 378.37498474 C-69.4947765 377.24895379 -72.62155381 376.12717318 -75.74907303 375.00728989 C-78.99796998 373.84278858 -82.2449191 372.67288458 -85.49194336 371.50317383 C-89.44639959 370.07885312 -93.400951 368.6548042 -97.35630798 367.23298645 C-105.7510557 364.21480474 -114.1386716 361.17768168 -122.51953125 358.12109375 C-124.0692009 357.5560463 -124.0692009 357.5560463 -125.650177 356.97958374 C-129.5561435 355.55487466 -133.46186198 354.12949393 -137.36682129 352.70202637 C-139.99535609 351.74139811 -142.62456471 350.78263616 -145.25390625 349.82421875 C-146.02708694 349.54090195 -146.80026764 349.25758514 -147.59687805 348.96568298 C-150.69099034 347.64012733 -150.69099034 347.64012733 -153.9375 347.0625 Z M-377.53930664 361.51904297 C-378.30001968 362.27337616 -379.06073273 363.02770935 -379.84449768 363.80490112 C-380.67054001 364.62983063 -381.49658234 365.45476013 -382.34765625 366.3046875 C-383.18969101 367.14339386 -384.03172577 367.98210022 -384.89927673 368.84622192 C-386.68360983 370.62547958 -388.46657394 372.40611099 -390.24829102 374.18798828 C-392.98628079 376.92379175 -395.73215135 379.651513 -398.47851562 382.37890625 C-400.20621912 384.10367602 -401.9334487 385.82892067 -403.66015625 387.5546875 C-404.48822281 388.37556854 -405.31628937 389.19644958 -406.16944885 390.04220581 C-406.92700974 390.80284332 -407.68457062 391.56348083 -408.46508789 392.34716797 C-409.1371376 393.01779266 -409.80918732 393.68841736 -410.50160217 394.37936401 C-412.15384012 395.94735568 -412.15384012 395.94735568 -411.9375 398.0625 C-409.81082211 399.87750958 -407.69210781 401.54338772 -405.4375 403.1875 C-404.76477051 403.67814941 -404.09204102 404.16879883 -403.39892578 404.67431641 C-389.99761581 414.18642418 -371.63093 424.0625 -354.9375 424.0625 C-349.99260936 406.33107282 -355.31007333 386.30703189 -363.8359375 370.625 C-366.41999087 366.11308475 -369.33127386 361.82551858 -372.9375 358.0625 C-374.86832959 358.0625 -376.26248239 360.24945217 -377.53930664 361.51904297 Z M-218.9375 364.0625 C-219.63460731 365.34900706 -220.31992876 366.64190665 -221 367.9375 C-221.38285156 368.65679687 -221.76570312 369.37609375 -222.16015625 370.1171875 C-222.41667969 370.75914062 -222.67320312 371.40109375 -222.9375 372.0625 C-222.6075 372.7225 -222.2775 373.3825 -221.9375 374.0625 C-221.34582031 373.78535156 -220.75414062 373.50820313 -220.14453125 373.22265625 C-212.29602373 369.62489016 -212.29602373 369.62489016 -207.9375 369.0625 C-213.01802449 365.3293148 -213.01802449 365.3293148 -218.9375 364.0625 Z M-224.9375 392.0625 C-231.5577303 400.77155615 -232.86890456 409.25581884 -231.9375 420.0625 C-229.9949877 428.92674919 -224.64257234 435.97763163 -217.1015625 440.921875 C-207.34320484 446.18988299 -199.43331826 447.15923184 -188.765625 444.13671875 C-180.17385241 440.87326922 -173.55403891 433.82105967 -169.625 425.625 C-166.37041535 417.54981716 -166.43207941 410.35232481 -168.9375 402.0625 C-172.84449766 393.27495772 -178.83394173 386.73171512 -187.5625 382.625 C-201.39652616 377.70859993 -215.20038277 381.37118865 -224.9375 392.0625 Z M-129.9375 398.0625 C-128.54969205 401.95256773 -126.7222773 405.02808708 -124.3125 408.375 C-123.68085938 409.25800781 -123.04921875 410.14101563 -122.3984375 411.05078125 C-121.91632813 411.71464844 -121.43421875 412.37851562 -120.9375 413.0625 C-117.00076356 411.75025452 -114.71030706 410.14339673 -111.9375 407.0625 C-114.55964328 405.55730613 -117.18494208 404.05818681 -119.8125 402.5625 C-120.55886719 402.13324219 -121.30523437 401.70398438 -122.07421875 401.26171875 C-122.78964844 400.85566406 -123.50507813 400.44960938 -124.2421875 400.03125 C-124.90202637 399.65419922 -125.56186523 399.27714844 -126.24169922 398.88867188 C-127.92277146 397.9165084 -127.92277146 397.9165084 -129.9375 398.0625 Z M-98.9375 414.0625 C-99.51193848 414.4656543 -100.08637695 414.86880859 -100.67822266 415.28417969 C-103.30581042 417.12767366 -105.93414852 418.97009507 -108.5625 420.8125 C-109.46613281 421.44671875 -110.36976563 422.0809375 -111.30078125 422.734375 C-115.81324479 425.89639325 -120.33403013 429.03430388 -124.9375 432.0625 C-120.93591198 437.43998172 -120.93591198 437.43998172 -114.9375 440.0625 C-103.48417584 441.35910273 -94.52882189 432.50470884 -86.10546875 425.8125 C-85.39003906 425.235 -84.67460937 424.6575 -83.9375 424.0625 C-84.673359 420.74905145 -84.673359 420.74905145 -88.09765625 419.23828125 C-89.39350869 418.60696852 -90.69456229 417.98624601 -92 417.375 C-92.66322266 417.05466797 -93.32644531 416.73433594 -94.00976562 416.40429688 C-95.64800858 415.6146402 -97.29221454 414.83737638 -98.9375 414.0625 Z " fill="#000000" transform="translate(468.9375,34.9375)"/>
<path d="M0 0 C18.64255859 14.55795305 28.12284646 33.55923336 31.5625 56.80078125 C33.22575809 70.96709379 32.13303259 85.13052306 29 99 C28.8443457 99.69125977 28.68869141 100.38251953 28.52832031 101.09472656 C23.20666972 123.6028655 11.67252709 144.94371667 -5 161 C-6.175625 162.2065625 -6.175625 162.2065625 -7.375 163.4375 C-24.9533418 180.59730985 -46.30563851 191.76930241 -71.125 192.5 C-89.60379877 191.93170361 -106.87200115 185.10673659 -119.64355469 171.53417969 C-136.33397327 152.65682361 -142.18128118 128.0709986 -141.15234375 103.36621094 C-139.02889609 70.38471295 -124.32081642 36.75944486 -99.43066406 14.60302734 C-71.69925321 -9.18641122 -32.66780783 -21.8358505 0 0 Z M-50 3 C-50.33 4.32 -50.66 5.64 -51 7 C-43.74 10.3 -36.48 13.6 -29 17 C-26.08482581 14.08482581 -25.21926746 12.54771015 -23.8125 8.8125 C-23.46832031 7.91144531 -23.12414062 7.01039062 -22.76953125 6.08203125 C-22.38861328 5.05142578 -22.38861328 5.05142578 -22 4 C-27.43947665 2.18684112 -32.53608296 1.80733371 -38.25 1.8125 C-38.94738281 1.81185547 -39.64476562 1.81121094 -40.36328125 1.81054688 C-43.70949155 1.84600768 -46.80067741 1.9692904 -50 3 Z M-10 10 C-11.98 13.96 -13.96 17.92 -16 22 C-11.92975554 25.05268334 -8.01294927 27.05229034 -3.4375 29.1875 C-2.66986328 29.55552734 -1.90222656 29.92355469 -1.11132812 30.30273438 C-0.37205078 30.65013672 0.36722656 30.99753906 1.12890625 31.35546875 C1.79994385 31.67153076 2.47098145 31.98759277 3.16235352 32.31323242 C5.14139729 33.17503654 5.14139729 33.17503654 8 33 C8.78042642 31.21863302 8.78042642 31.21863302 9 29 C4.89089193 21.5896763 -2.44452533 13.77773733 -10 10 Z M-75.55078125 13.22265625 C-81.01870839 16.86536302 -86.14065067 20.57259283 -91 25 C-88.06810006 27.39073149 -85.27856712 28.84107307 -81.75 30.1875 C-80.1825 30.785625 -78.615 31.38375 -77 32 C-74.36 25.73 -71.72 19.46 -69 13 C-72.83769355 11.58863122 -72.83769355 11.58863122 -75.55078125 13.22265625 Z M-57 19 C-58.34070318 21.60060504 -59.67273354 24.20504916 -61 26.8125 C-61.3815625 27.55048828 -61.763125 28.28847656 -62.15625 29.04882812 C-62.5171875 29.76103516 -62.878125 30.47324219 -63.25 31.20703125 C-63.58515625 31.8616333 -63.9203125 32.51623535 -64.265625 33.19067383 C-65.18804263 35.13784549 -65.18804263 35.13784549 -65 38 C-61.57021912 39.70353355 -58.13007937 41.38500046 -54.6875 43.0625 C-53.71103516 43.54783203 -52.73457031 44.03316406 -51.72851562 44.53320312 C-50.32182617 45.21479492 -50.32182617 45.21479492 -48.88671875 45.91015625 C-48.02264404 46.33433838 -47.15856934 46.75852051 -46.26831055 47.19555664 C-43.88380437 48.30300963 -43.88380437 48.30300963 -41 47 C-39.60536199 44.38065887 -38.40067344 41.84778694 -37.25 39.125 C-36.92128906 38.39152344 -36.59257812 37.65804687 -36.25390625 36.90234375 C-34.24720393 32.56547797 -34.24720393 32.56547797 -35 28 C-36.96197169 26.74891789 -36.96197169 26.74891789 -39.40234375 25.73828125 C-40.29244141 25.34189453 -41.18253906 24.94550781 -42.09960938 24.53710938 C-43.03611328 24.13298828 -43.97261719 23.72886719 -44.9375 23.3125 C-45.87013672 22.89677734 -46.80277344 22.48105469 -47.76367188 22.05273438 C-52.22211746 19.85715513 -52.22211746 19.85715513 -57 19 Z M-22 35 C-23.33957921 37.78871177 -24.67058435 40.58143062 -26 43.375 C-26.3815625 44.1690625 -26.763125 44.963125 -27.15625 45.78125 C-27.5171875 46.54179688 -27.878125 47.30234375 -28.25 48.0859375 C-28.58515625 48.7876709 -28.9203125 49.4894043 -29.265625 50.21240234 C-30.12666664 51.98623448 -30.12666664 51.98623448 -30 54 C-26.56703905 55.67613728 -23.12793117 57.33925697 -19.6875 59 C-18.71103516 59.47695312 -17.73457031 59.95390625 -16.72851562 60.4453125 C-15.79072266 60.89648438 -14.85292969 61.34765625 -13.88671875 61.8125 C-13.02264404 62.23144531 -12.15856934 62.65039062 -11.26831055 63.08203125 C-8.94435185 64.18756882 -8.94435185 64.18756882 -6 64 C-4.66042079 61.21128823 -3.32941565 58.41856938 -2 55.625 C-1.6184375 54.8309375 -1.236875 54.036875 -0.84375 53.21875 C-0.4828125 52.45820312 -0.121875 51.69765625 0.25 50.9140625 C0.58515625 50.2123291 0.9203125 49.5105957 1.265625 48.78759766 C2.12666664 47.01376552 2.12666664 47.01376552 2 45 C-1.62222211 43.32724698 -5.2482166 41.66283749 -8.875 40 C-9.90753906 39.52304688 -10.94007813 39.04609375 -12.00390625 38.5546875 C-12.99003906 38.10351562 -13.97617187 37.65234375 -14.9921875 37.1875 C-15.90339355 36.76855469 -16.81459961 36.34960938 -17.75341797 35.91796875 C-19.90408622 34.87391702 -19.90408622 34.87391702 -22 35 Z M-101 36 C-102.38137335 37.67465856 -103.68146716 39.41689132 -104.9375 41.1875 C-105.62714844 42.15042969 -106.31679688 43.11335938 -107.02734375 44.10546875 C-110.5511244 48.67770803 -110.5511244 48.67770803 -112 54 C-105.4 56.97 -98.8 59.94 -92 63 C-90.68 60.4425 -89.36 57.885 -88 55.25 C-87.58234375 54.45110352 -87.1646875 53.65220703 -86.734375 52.82910156 C-86.24710937 51.86955566 -86.24710937 51.86955566 -85.75 50.890625 C-85.41484375 50.24125977 -85.0796875 49.59189453 -84.734375 48.92285156 C-83.76214375 46.72026149 -83.76214375 46.72026149 -84 43 C-86.45620851 41.82866942 -88.91474917 40.66278278 -91.375 39.5 C-92.07367188 39.16613281 -92.77234375 38.83226562 -93.4921875 38.48828125 C-97.08827999 36.64790602 -97.08827999 36.64790602 -101 36 Z M-72 50 C-73.33957921 52.78871177 -74.67058435 55.58143062 -76 58.375 C-76.3815625 59.1690625 -76.763125 59.963125 -77.15625 60.78125 C-77.5171875 61.54179688 -77.878125 62.30234375 -78.25 63.0859375 C-78.58515625 63.7876709 -78.9203125 64.4894043 -79.265625 65.21240234 C-80.12666664 66.98623448 -80.12666664 66.98623448 -80 69 C-76.37777789 70.67275302 -72.7517834 72.33716251 -69.125 74 C-68.09246094 74.47695312 -67.05992187 74.95390625 -65.99609375 75.4453125 C-65.00996094 75.89648438 -64.02382813 76.34765625 -63.0078125 76.8125 C-62.09660645 77.23144531 -61.18540039 77.65039062 -60.24658203 78.08203125 C-58.09591378 79.12608298 -58.09591378 79.12608298 -56 79 C-54.62978206 76.23682377 -53.28169824 73.46341522 -51.9375 70.6875 C-51.54755859 69.90181641 -51.15761719 69.11613281 -50.75585938 68.30664062 C-50.39169922 67.54931641 -50.02753906 66.79199219 -49.65234375 66.01171875 C-49.14175415 64.96697388 -49.14175415 64.96697388 -48.62084961 63.90112305 C-47.73098049 61.81520956 -47.73098049 61.81520956 -49 59 C-50.94522382 57.74909791 -50.94522382 57.74909791 -53.3671875 56.73828125 C-54.25277344 56.34189453 -55.13835937 55.94550781 -56.05078125 55.53710938 C-56.98277344 55.13298828 -57.91476562 54.72886719 -58.875 54.3125 C-59.79925781 53.89677734 -60.72351563 53.48105469 -61.67578125 53.05273438 C-66.65102004 50.72932394 -66.65102004 50.72932394 -72 50 Z M14 51 C12.68504458 53.60295276 11.37295014 56.20728033 10.0625 58.8125 C9.68931641 59.55048828 9.31613281 60.28847656 8.93164062 61.04882812 C8.57392578 61.76103516 8.21621094 62.47324219 7.84765625 63.20703125 C7.51773682 63.8616333 7.18781738 64.51623535 6.84790039 65.19067383 C5.88166321 67.16130621 5.88166321 67.16130621 5 70 C6.95585325 71.00484204 8.91476237 72.00373805 10.875 73 C11.96554687 73.556875 13.05609375 74.11375 14.1796875 74.6875 C16.78375082 76.14064094 16.78375082 76.14064094 19 76 C19.2144997 67.72984476 19.07422976 60.03764031 17 52 C16.01 51.67 15.02 51.34 14 51 Z M-119 66 C-120.98 71.94 -122.96 77.88 -125 84 C-122.42749207 86.57250793 -121.34590373 87.49333682 -118.20703125 88.82421875 C-117.49482422 89.13037109 -116.78261719 89.43652344 -116.04882812 89.75195312 C-115.31083984 90.06068359 -114.57285156 90.36941406 -113.8125 90.6875 C-112.68811523 91.16799805 -112.68811523 91.16799805 -111.54101562 91.65820312 C-109.69674768 92.44524741 -107.8487286 93.22349144 -106 94 C-104.65722268 91.2336466 -103.32744772 88.46123789 -102 85.6875 C-101.6184375 84.90181641 -101.236875 84.11613281 -100.84375 83.30664062 C-100.4828125 82.54931641 -100.121875 81.79199219 -99.75 81.01171875 C-99.24726563 79.96697388 -99.24726563 79.96697388 -98.734375 78.90112305 C-97.81983234 76.87326062 -97.81983234 76.87326062 -98 74 C-100.74569923 72.65712527 -103.49594266 71.32553004 -106.25 70 C-107.41595703 69.42765625 -107.41595703 69.42765625 -108.60546875 68.84375 C-109.35957031 68.4828125 -110.11367188 68.121875 -110.890625 67.75 C-111.58188477 67.41484375 -112.27314453 67.0796875 -112.98535156 66.734375 C-115.26896454 65.77168381 -115.26896454 65.77168381 -119 66 Z M-36 66 C-37.15341698 68.22552258 -38.29781159 70.45495969 -39.4375 72.6875 C-39.76298828 73.31333984 -40.08847656 73.93917969 -40.42382812 74.58398438 C-42.17752313 78.03713639 -43.47760497 81.15193519 -44 85 C-42.98679687 85.47050781 -41.97359375 85.94101563 -40.9296875 86.42578125 C-39.57810425 87.0546429 -38.22654291 87.68355166 -36.875 88.3125 C-36.20984375 88.62123047 -35.5446875 88.92996094 -34.859375 89.24804688 C-34.20195312 89.55419922 -33.54453125 89.86035156 -32.8671875 90.17578125 C-32.21459961 90.47822754 -31.56201172 90.78067383 -30.88964844 91.09228516 C-29.13058357 91.93727265 -27.41060471 92.86233149 -25.6953125 93.79296875 C-22.98593308 95.37106071 -22.98593308 95.37106071 -20 94 C-18.84643316 92.19982455 -18.84643316 92.19982455 -17.95703125 89.96484375 C-17.43012695 88.75151367 -17.43012695 88.75151367 -16.89257812 87.51367188 C-16.53615234 86.66353516 -16.17972656 85.81339844 -15.8125 84.9375 C-15.26045898 83.65649414 -15.26045898 83.65649414 -14.69726562 82.34960938 C-13.7884879 80.23699623 -12.88993798 78.12060231 -12 76 C-15.62222211 74.32724698 -19.2482166 72.66283749 -22.875 71 C-23.90753906 70.52304688 -24.94007813 70.04609375 -26.00390625 69.5546875 C-26.99003906 69.10351562 -27.97617187 68.65234375 -28.9921875 68.1875 C-29.90339355 67.76855469 -30.81459961 67.34960938 -31.75341797 66.91796875 C-33.90408622 65.87391702 -33.90408622 65.87391702 -36 66 Z M-86 80 C-87.33934716 82.95564708 -88.67044247 85.9149378 -90 88.875 C-90.3815625 89.71675781 -90.763125 90.55851562 -91.15625 91.42578125 C-91.5171875 92.23144531 -91.878125 93.03710938 -92.25 93.8671875 C-92.58515625 94.61081543 -92.9203125 95.35444336 -93.265625 96.12060547 C-94.12131741 97.97417611 -94.12131741 97.97417611 -94 100 C-86.41 103.3 -78.82 106.6 -71 110 C-69.700625 107.421875 -68.40125 104.84375 -67.0625 102.1875 C-66.65394775 101.37949951 -66.24539551 100.57149902 -65.82446289 99.73901367 C-65.5021167 99.09681885 -65.17977051 98.45462402 -64.84765625 97.79296875 C-64.51773682 97.1383667 -64.18781738 96.48376465 -63.84790039 95.80932617 C-62.88166321 93.83869379 -62.88166321 93.83869379 -62 91 C-69.87792285 86.95887531 -77.70443459 83.12795894 -86 80 Z M-1 82 C-4.96 90.91 -4.96 90.91 -9 100 C-6.45549888 102.54450112 -5.37021238 103.48683549 -2.27734375 104.82421875 C-1.57416016 105.13037109 -0.87097656 105.43652344 -0.14648438 105.75195312 C0.58248047 106.06068359 1.31144531 106.36941406 2.0625 106.6875 C3.16174805 107.16799805 3.16174805 107.16799805 4.28320312 107.65820312 C8.00556401 109.38744772 8.00556401 109.38744772 12 110 C12.86656998 107.25336296 13.71851786 104.5035757 14.5625 101.75 C14.80935547 100.97269531 15.05621094 100.19539063 15.31054688 99.39453125 C15.53935547 98.64042969 15.76816406 97.88632813 16.00390625 97.109375 C16.21861572 96.41811523 16.4333252 95.72685547 16.65454102 95.01464844 C17.06427573 92.62515667 16.92506515 91.2413007 16 89 C13.50984914 87.55353692 11.18870999 86.38002203 8.5625 85.25 C7.52125977 84.77626953 7.52125977 84.77626953 6.45898438 84.29296875 C2.86988092 82.58475426 2.86988092 82.58475426 -1 82 Z M-50 97 C-51.31495542 99.60295276 -52.62704986 102.20728033 -53.9375 104.8125 C-54.31068359 105.55048828 -54.68386719 106.28847656 -55.06835938 107.04882812 C-55.42607422 107.76103516 -55.78378906 108.47324219 -56.15234375 109.20703125 C-56.48226318 109.8616333 -56.81218262 110.51623535 -57.15209961 111.19067383 C-58.11833679 113.16130621 -58.11833679 113.16130621 -59 116 C-55.40312101 117.7033629 -51.79646081 119.38490589 -48.1875 121.0625 C-47.16333984 121.54783203 -46.13917969 122.03316406 -45.08398438 122.53320312 C-44.10107422 122.98759766 -43.11816406 123.44199219 -42.10546875 123.91015625 C-41.19949951 124.33433838 -40.29353027 124.75852051 -39.36010742 125.19555664 C-36.89538364 126.30145358 -36.89538364 126.30145358 -34 125 C-32.63496638 122.36054527 -31.44518502 119.79844273 -30.3125 117.0625 C-29.83200195 115.9497168 -29.83200195 115.9497168 -29.34179688 114.81445312 C-27.61371643 111.04148415 -27.61371643 111.04148415 -27 107 C-30.45533314 105.32705993 -33.91473993 103.66272237 -37.375 102 C-38.35984375 101.52304688 -39.3446875 101.04609375 -40.359375 100.5546875 C-41.30039062 100.10351562 -42.24140625 99.65234375 -43.2109375 99.1875 C-44.08024902 98.76855469 -44.94956055 98.34960938 -45.84521484 97.91796875 C-47.91630306 96.86935644 -47.91630306 96.86935644 -50 97 Z M-127 99 C-128.20262933 102.607888 -128.13247114 105.57218762 -128.125 109.375 C-128.12757813 110.68210937 -128.13015625 111.98921875 -128.1328125 113.3359375 C-128.08898437 114.54507813 -128.04515625 115.75421875 -128 117 C-127.97679687 117.92039063 -127.95359375 118.84078125 -127.9296875 119.7890625 C-127.09805694 122.4328301 -127.09805694 122.4328301 -123.4375 123.8125 C-122.303125 124.204375 -121.16875 124.59625 -120 125 C-118.66065284 122.04435292 -117.32955753 119.0850622 -116 116.125 C-115.6184375 115.28324219 -115.236875 114.44148438 -114.84375 113.57421875 C-114.4828125 112.76855469 -114.121875 111.96289062 -113.75 111.1328125 C-113.24726563 110.01737061 -113.24726563 110.01737061 -112.734375 108.87939453 C-111.87868259 107.02582389 -111.87868259 107.02582389 -112 105 C-114.12282669 103.99539469 -116.24833021 102.99644398 -118.375 102 C-119.55835938 101.443125 -120.74171875 100.88625 -121.9609375 100.3125 C-124.75428575 98.86783959 -124.75428575 98.86783959 -127 99 Z M-100 111 C-101.34277732 113.7663534 -102.67255228 116.53876211 -104 119.3125 C-104.3815625 120.09818359 -104.763125 120.88386719 -105.15625 121.69335938 C-105.5171875 122.45068359 -105.878125 123.20800781 -106.25 123.98828125 C-106.75273437 125.03302612 -106.75273437 125.03302612 -107.265625 126.09887695 C-108.18016766 128.12673938 -108.18016766 128.12673938 -108 131 C-100.74 134.3 -93.48 137.6 -86 141 C-82.91300631 137.91300631 -81.58421035 135.48468281 -79.75 131.5625 C-79.20859375 130.42941406 -78.6671875 129.29632813 -78.109375 128.12890625 C-76.9625223 124.89429705 -76.66795392 124.04321878 -78 121 C-80.05409822 119.52730869 -80.05409822 119.52730869 -82.65625 118.421875 C-84.06583984 117.76445312 -84.06583984 117.76445312 -85.50390625 117.09375 C-86.49261719 116.6503125 -87.48132813 116.206875 -88.5 115.75 C-89.48871094 115.29109375 -90.47742188 114.8321875 -91.49609375 114.359375 C-95.59231732 112.1045558 -95.59231732 112.1045558 -100 111 Z M-15 113 C-16.37021794 115.76317623 -17.71830176 118.53658478 -19.0625 121.3125 C-19.45244141 122.09818359 -19.84238281 122.88386719 -20.24414062 123.69335938 C-20.60830078 124.45068359 -20.97246094 125.20800781 -21.34765625 125.98828125 C-21.85824585 127.03302612 -21.85824585 127.03302612 -22.37915039 128.09887695 C-23.26901951 130.18479044 -23.26901951 130.18479044 -22 133 C-19.54928471 134.36573274 -17.1779901 135.55099232 -14.625 136.6875 C-13.59632813 137.16799805 -13.59632813 137.16799805 -12.546875 137.65820312 C-9.54299018 139.02865252 -7.33773084 140 -4 140 C-2.65120801 138.54132133 -2.65120801 138.54132133 -1.51953125 136.5703125 C-1.07802734 135.85746094 -0.63652344 135.14460938 -0.18164062 134.41015625 C0.27017578 133.65605469 0.72199219 132.90195313 1.1875 132.125 C1.65091797 131.37863281 2.11433594 130.63226563 2.59179688 129.86328125 C5.0993853 126.18515169 5.0993853 126.18515169 6 122 C2.87797994 120.49373883 -0.24808399 118.99606757 -3.375 117.5 C-4.26445312 117.07074219 -5.15390625 116.64148438 -6.0703125 116.19921875 C-6.92109375 115.79316406 -7.771875 115.38710937 -8.6484375 114.96875 C-9.43395996 114.59169922 -10.21948242 114.21464844 -11.02880859 113.82617188 C-12.9512028 112.87115169 -12.9512028 112.87115169 -15 113 Z M-65 128 C-66.33957921 130.78871177 -67.67058435 133.58143062 -69 136.375 C-69.3815625 137.1690625 -69.763125 137.963125 -70.15625 138.78125 C-70.5171875 139.54179687 -70.878125 140.30234375 -71.25 141.0859375 C-71.58515625 141.7876709 -71.9203125 142.4894043 -72.265625 143.21240234 C-73.12666664 144.98623448 -73.12666664 144.98623448 -73 147 C-69.37777789 148.67275302 -65.7517834 150.33716251 -62.125 152 C-61.09246094 152.47695312 -60.05992187 152.95390625 -58.99609375 153.4453125 C-58.00996094 153.89648438 -57.02382813 154.34765625 -56.0078125 154.8125 C-55.09660645 155.23144531 -54.18540039 155.65039062 -53.24658203 156.08203125 C-51.09591378 157.12608298 -51.09591378 157.12608298 -49 157 C-47.66042079 154.21128823 -46.32941565 151.41856938 -45 148.625 C-44.6184375 147.8309375 -44.236875 147.036875 -43.84375 146.21875 C-43.4828125 145.45820313 -43.121875 144.69765625 -42.75 143.9140625 C-42.41484375 143.2123291 -42.0796875 142.5105957 -41.734375 141.78759766 C-40.87333336 140.01376552 -40.87333336 140.01376552 -41 138 C-44.43296095 136.32386272 -47.87206883 134.66074303 -51.3125 133 C-52.28896484 132.52304688 -53.26542969 132.04609375 -54.27148438 131.5546875 C-55.67817383 130.87792969 -55.67817383 130.87792969 -57.11328125 130.1875 C-57.97735596 129.76855469 -58.84143066 129.34960938 -59.73168945 128.91796875 C-62.05564815 127.81243118 -62.05564815 127.81243118 -65 128 Z M-114 142 C-116.01167681 144.90186133 -117.3991789 147.49866325 -118 151 C-116.39571456 154.95085221 -113.84655905 157.86308155 -111 161 C-110.38511719 161.68707031 -109.77023437 162.37414062 -109.13671875 163.08203125 C-106.00833676 166.37689033 -102.96057915 168.73584639 -99 171 C-97.63354299 168.40163864 -96.28169331 165.79734444 -94.9375 163.1875 C-94.54755859 162.44951172 -94.15761719 161.71152344 -93.75585938 160.95117188 C-93.39169922 160.23896484 -93.02753906 159.52675781 -92.65234375 158.79296875 C-92.31195068 158.1383667 -91.97155762 157.48376465 -91.62084961 156.80932617 C-90.72812283 154.80393888 -90.72812283 154.80393888 -92 152 C-94.07558625 150.65370102 -94.07558625 150.65370102 -96.65625 149.51953125 C-97.59597656 149.07802734 -98.53570312 148.63652344 -99.50390625 148.18164062 C-100.98697266 147.50391602 -100.98697266 147.50391602 -102.5 146.8125 C-103.48871094 146.34908203 -104.47742188 145.88566406 -105.49609375 145.40820312 C-109.59015156 143.12477587 -109.59015156 143.12477587 -114 142 Z M-29 144 C-30.36907416 146.57637588 -31.72028455 149.15968104 -33.0625 151.75 C-33.45244141 152.47960937 -33.84238281 153.20921875 -34.24414062 153.9609375 C-34.60830078 154.66992188 -34.97246094 155.37890625 -35.34765625 156.109375 C-35.68804932 156.75874023 -36.02844238 157.40810547 -36.37915039 158.07714844 C-37.15186406 160.47034265 -36.93611595 161.684812 -36 164 C-33.75734342 165.58564771 -33.75734342 165.58564771 -31 166 C-28.71006337 164.96459109 -28.71006337 164.96459109 -26.6875 163.0625 C-25.91921875 162.4128125 -25.1509375 161.763125 -24.359375 161.09375 C-23.19148438 160.05734375 -23.19148438 160.05734375 -22 159 C-20.83210938 157.99453125 -20.83210938 157.99453125 -19.640625 156.96875 C-17.74515306 155.32869626 -15.86631251 153.67307034 -14 152 C-16.4899148 149.1120376 -19.15894659 147.83518573 -22.625 146.3125 C-23.60726562 145.87550781 -24.58953125 145.43851563 -25.6015625 144.98828125 C-27.72175232 143.93650383 -27.72175232 143.93650383 -29 144 Z M-79 159 C-81.64 164.61 -84.28 170.22 -87 176 C-81.2851299 178.85743505 -76.80188472 179.13764029 -70.4375 179.125 C-68.48650391 179.12886719 -68.48650391 179.12886719 -66.49609375 179.1328125 C-62.62400138 179.03915088 -62.62400138 179.03915088 -59 178 C-57.64897007 175.9279446 -57.64897007 175.9279446 -56.75 173.4375 C-56.41484375 172.61121094 -56.0796875 171.78492188 -55.734375 170.93359375 C-55.49203125 170.29550781 -55.2496875 169.65742188 -55 169 C-58.62222211 167.32724698 -62.2482166 165.66283749 -65.875 164 C-66.90753906 163.52304688 -67.94007813 163.04609375 -69.00390625 162.5546875 C-69.99003906 162.10351562 -70.97617187 161.65234375 -71.9921875 161.1875 C-72.90339355 160.76855469 -73.81459961 160.34960938 -74.75341797 159.91796875 C-76.90408622 158.87391702 -76.90408622 158.87391702 -79 159 Z " fill="#000000" transform="translate(452,56)"/>
<path d="M0 0 C1.78483582 1.71566772 1.78483582 1.71566772 3.39526367 3.93896484 C3.99204926 4.7558075 4.58883484 5.57265015 5.20370483 6.41424561 C8.08722474 10.56505245 10.9143531 14.74342421 13.67578125 18.9765625 C14.28584518 19.90487885 14.89590912 20.83319519 15.52445984 21.78964233 C17.45736896 24.73244226 19.3851049 27.67858644 21.3125 30.625 C23.22488443 33.54093208 25.13833138 36.45616132 27.05270386 39.37078857 C28.29331598 41.26227889 29.53124901 43.15552932 30.76638794 45.05059814 C33.51155197 49.25570407 36.27882957 53.43168059 39.18115234 57.53027344 C39.65820114 58.21253998 40.13524994 58.89480652 40.62675476 59.5977478 C41.49656739 60.83507654 42.3800177 62.06299019 43.28010559 63.2784729 C45.30321211 66.17433375 46.01278963 67.70694966 45.85668945 71.28369141 C45 74 45 74 43.3125 75.9375 C40.12421131 77.4023894 38.35425278 76.9044008 35 76 C33.17382812 74.26733398 33.17382812 74.26733398 31.53125 71.80859375 C30.51417969 70.31175049 30.51417969 70.31175049 29.4765625 68.78466797 C28.65062206 67.52338665 27.82514838 66.26179963 27 65 C25.92552814 63.38748414 24.84991992 61.77572513 23.7734375 60.16455078 C19.98879725 54.48140593 16.2435749 48.77274341 12.5 43.0625 C10.57228184 40.12738584 8.64381826 37.19276459 6.71459961 34.25863647 C5.478917 32.37723593 4.24531416 30.49446757 3.01391602 28.61026001 C0.49360617 24.75858994 -2.03129222 20.91929184 -4.6875 17.15966797 C-5.4196875 16.11568848 -6.151875 15.07170898 -6.90625 13.99609375 C-7.82374023 12.7285022 -7.82374023 12.7285022 -8.75976562 11.43530273 C-10.2948058 8.42112444 -10.33304402 6.34004727 -10 3 C-7.06212313 -0.87265587 -4.57898065 -1.43125721 0 0 Z " fill="#000000" transform="translate(117,98)"/>
<path d="M0 0 C2.89509999 3.19203332 4.02105318 4.90523452 3.9375 9.25 C3 12 3 12 0 14 C-2.9375 14.4375 -2.9375 14.4375 -6 14 C-9.18983563 11.22987959 -9.9214435 9.56953461 -10.5 5.375 C-10 2 -10 2 -8.375 0 C-5.04951221 -1.40020538 -3.39641184 -1.20289586 0 0 Z " fill="#000000" transform="translate(106,81)"/>
</svg>
